<?xml version="1.0" standalone="no"?>
<!DOCTYPE svg PUBLIC "-//W3C//DTD SVG 1.1//EN" "http://www.w3.org/Graphics/SVG/1.1/DTD/svg11.dtd" >
<svg>
<metadata>
Created by FontForge 20090622 at Mon Sep  5 07:05:15 2016
 By deploy user
Copyright (c) 2011 by . All rights reserved.
</metadata>
<defs>
<font id="Sonus-Light" horiz-adv-x="352" >
  <font-face 
    font-family="Sonus"
    font-weight="300"
    font-stretch="normal"
    units-per-em="1000"
    panose-1="0 0 0 0 0 0 0 0 0 0"
    ascent="800"
    descent="-200"
    x-height="492"
    cap-height="676"
    bbox="-131 -247 1114 978"
    underline-thickness="50"
    underline-position="-50"
    unicode-range="U+0020-U+FB04"
  />
<missing-glyph horiz-adv-x="501" 
d="M0 0v702h501v-702h-501zM251 396l170 256h-341zM280 351l172 -255v511zM80 50h341l-170 256zM50 607v-511l171 255z" />
    <glyph glyph-name="f_f" unicode="ff" horiz-adv-x="581" 
d="M176 0h-68v433h-78v51l78 7v24q0 93 38 139q45 53 124 53q52 0 92 -10l-16 -60q-26 10 -71 10q-48 0 -77 -39q-22 -31 -22 -94v-22h203v39q0 93 39 142q47 53 124 53q51 0 93 -11l-15 -59q-33 10 -69 10q-51 0 -81 -39q-23 -33 -23 -96v-39h135v-59h-135v-433h-68v433
h-203v-433z" />
    <glyph glyph-name="fi" unicode="fi" horiz-adv-x="528" 
d="M176 0h-68v433h-78v51l78 7v41q0 94 39 141q45 53 123 53q44 0 86 -9l-14 -59q-29 10 -65 10q-50 0 -78 -39q-23 -30 -23 -96v-41h271v-492h-68v433h-203v-433zM453 638q0 -43 -40 -43q-39 0 -39 43t40 43q39 0 39 -43z" />
    <glyph glyph-name="fl" unicode="fl" horiz-adv-x="529" 
d="M176 0h-68v433h-78v51l78 7v41q0 92 41 141q44 53 146 53q74 0 152 -17v-709h-68v658q-50 10 -82 10q-69 0 -97 -39q-24 -31 -24 -100v-37h128v-59h-128v-433z" />
    <glyph glyph-name="f_f_i" unicode="ffi" horiz-adv-x="799" 
d="M176 0h-68v433h-78v51l78 7v24q0 93 38 139q45 53 125 53q51 0 91 -10l-16 -59q-26 10 -68 10q-52 0 -80 -40q-22 -34 -22 -94v-22h203v39q0 93 39 142q47 53 124 53q44 0 85 -9l-14 -60q-29 10 -65 10q-47 0 -78 -39q-23 -34 -23 -96v-40h271v-492h-67v433h-204v-433
h-68v433h-203v-433zM724 638q0 -43 -40 -43q-39 0 -39 43t40 43q39 0 39 -43z" />
    <glyph glyph-name="f_f_l" unicode="ffl" horiz-adv-x="800" 
d="M176 0h-68v433h-78v51l78 7v24q0 93 38 139q45 53 124 53q52 0 92 -10l-16 -59q-26 10 -71 10q-48 0 -77 -40q-22 -31 -22 -94v-22h203v40q0 90 41 141q45 53 146 53q77 0 152 -17v-709h-67v657q-43 10 -83 10q-67 0 -97 -40q-24 -31 -24 -99v-36h128v-59h-128v-433h-68
v433h-203v-433z" />
    <glyph glyph-name="T_h" unicode="Th" horiz-adv-x="1075" 
d="M303 0h-70v610h-210v66h572v38l67 11v-339q35 51 94 84.5t117 33.5q52 0 78 -20t34 -63q5 -28 5 -124v-297h-68v289q0 84 -9 114q-11 38 -70 38q-38 0 -82.5 -23.5t-72.5 -60.5q-26 -35 -26 -110v-247h-67v617l-119 -9h-173v-608z" />
    <glyph glyph-name="Tcaron_h" unicode="&#x164;h" horiz-adv-x="1075" 
d="M363 853h62l-124 -126h-67l-124 126h63l95 -75zM303 0h-70v610h-210v66h572v38l67 11v-339q35 51 94 84.5t117 33.5q52 0 78 -20t34 -63q5 -28 5 -124v-297h-68v289q0 84 -9 114q-11 38 -70 38q-38 0 -82.5 -23.5t-72.5 -60.5q-26 -35 -26 -110v-247h-67v617l-119 -9
h-173v-608z" />
    <glyph glyph-name="f_b" unicode="fb" horiz-adv-x="852" 
d="M176 0h-68v433h-78v51l78 7v41q0 92 41 141q44 53 146 53q74 0 152 -17v-317q26 45 77.5 78.5t112.5 33.5q84 0 129 -61t45 -180q0 -136 -62.5 -203.5t-155.5 -67.5q-94 0 -151 65l-3 -57h-60v657q-43 10 -82 10q-68 0 -97 -40q-24 -31 -24 -99v-36h128v-59h-128v-433z
M446 208q0 -63 15 -93q15 -29 48.5 -48t73.5 -19q66 0 112 52t46 154q0 189 -127 189q-55 0 -97 -38t-56 -79q-15 -43 -15 -118z" />
    <glyph glyph-name="f_f_b" unicode="ffb" horiz-adv-x="1123" 
d="M176 0h-68v433h-78v51l78 7v24q0 93 38 139q45 53 124 53q52 0 92 -10l-16 -59q-26 10 -71 10q-48 0 -77 -40q-22 -31 -22 -94v-22h203v40q0 90 41 141q45 53 146 53q77 0 152 -17v-318q30 47 79.5 80t110.5 33q84 0 129 -61t45 -180q0 -136 -62.5 -203.5t-154.5 -67.5
q-44 0 -84 18.5t-67 49.5l-4 -60h-59v657q-43 10 -83 10q-67 0 -97 -40q-24 -31 -24 -99v-36h128v-59h-128v-433h-68v433h-203v-433zM717 207q0 -64 16 -94q15 -28 48 -46.5t73 -18.5q66 0 112 52t46 154q0 189 -126 189q-55 0 -97.5 -38.5t-56.5 -78.5q-15 -43 -15 -119z
" />
    <glyph glyph-name="f_f_h" unicode="ffh" horiz-adv-x="1131" 
d="M176 0h-68v433h-78v51l78 7v24q0 93 38 139q45 53 124 53q52 0 92 -10l-16 -59q-26 10 -71 10q-48 0 -77 -40q-22 -31 -22 -94v-22h203v40q0 90 41 141q45 53 146 53q77 0 152 -17v-318q39 50 96.5 81.5t115.5 31.5q52 0 78 -20t33 -63q5 -28 5 -124v-297h-67v289
q0 84 -9 114q-14 38 -71 38q-38 0 -82.5 -24.5t-72.5 -62.5q-26 -35 -26 -110v-244h-67v657q-43 10 -83 10q-67 0 -97 -40q-24 -31 -24 -99v-36h128v-59h-128v-433h-68v433h-203v-433z" />
    <glyph glyph-name="f_f_j" unicode="ffj" horiz-adv-x="799" 
d="M176 0h-68v433h-78v51l78 7v24q0 93 38 139q45 53 125 53q51 0 91 -10l-16 -59q-26 10 -68 10q-52 0 -80 -40q-22 -34 -22 -94v-22h203v40q0 92 39 141q47 53 124 53q44 0 85 -9l-14 -60q-29 10 -65 10q-47 0 -78 -39q-23 -34 -23 -96v-40h271v-498q0 -94 -18 -136
q-35 -79 -168 -99l-12 58q51 11 78 25.5t39 40.5q14 31 14 100v450h-204v-433h-68v433h-203v-433zM725 638q0 -43 -41 -43q-38 0 -38 43t40 43q39 0 39 -43z" />
    <glyph glyph-name="f_f_k" unicode="ffk" horiz-adv-x="1059" 
d="M176 0h-68v433h-78v51l78 7v24q0 93 38 139q45 53 124 53q52 0 92 -10l-16 -59q-26 10 -71 10q-48 0 -77 -40q-22 -31 -22 -94v-22h203v40q0 90 41 141q45 53 146 53q77 0 152 -17v-440l223 223h86l-182 -180l208 -312h-79l-177 260l-79 -74v-186h-67v657q-43 10 -83 10
q-67 0 -97 -40q-24 -31 -24 -99v-36h128v-59h-128v-433h-68v433h-203v-433z" />
    <glyph glyph-name="f_f_t" unicode="fft" horiz-adv-x="865" 
d="M176 0h-68v433h-78v51l78 7v24q0 93 38 139q45 53 124 53q52 0 92 -10l-16 -59q-26 10 -71 10q-48 0 -77 -40q-22 -31 -22 -94v-22h203v40q0 92 39 141q45 53 124 53q44 0 84 -9l-14 -60q-28 10 -64 10q-49 0 -78 -40q-23 -30 -23 -95v-40h200q1 11 6 128l62 10v-138h130
v-59h-130v-259q0 -70 16 -94q16 -27 56 -27q29 0 71 14l11 -58q-54 -19 -102 -19q-63 0 -92 42q-27 36 -27 140v261h-201v-433h-68v433h-203v-433z" />
    <glyph glyph-name="f_h" unicode="fh" horiz-adv-x="860" 
d="M176 0h-68v433h-78v51l78 7v41q0 91 41 139q45 55 146 55q74 0 152 -17v-317q36 48 94.5 80t116.5 32q52 0 78 -20t34 -63q5 -28 5 -124v-297h-68v289q0 84 -9 114q-13 38 -71 38q-38 0 -82 -24.5t-73 -62.5q-25 -36 -25 -110v-244h-68v657q-43 10 -82 10q-68 0 -97 -40
q-24 -31 -24 -99v-36h128v-59h-128v-433z" />
    <glyph glyph-name="f_j" unicode="fj" horiz-adv-x="528" 
d="M176 0h-68v434h-78v50l78 7v41q0 94 39 141q45 53 123 53q44 0 86 -9l-14 -59q-29 10 -65 10q-50 0 -78 -39q-23 -30 -23 -96v-41h271v-498q0 -94 -18 -136q-35 -79 -169 -99l-11 58q51 11 77 25t38 40q15 30 15 101v451h-203v-434zM454 638q0 -43 -41 -43q-39 0 -39 43
t41 43q39 0 39 -43z" />
    <glyph glyph-name="f_k" unicode="fk" horiz-adv-x="787" 
d="M379 0v657q-43 10 -82 10q-68 0 -97 -40q-24 -31 -24 -99v-36h128v-59h-128v-433h-68v433h-78v51l78 7v41q0 91 41 139q45 55 146 55q74 0 152 -17v-440l222 223h86l-182 -180l208 -312h-79l-176 260l-79 -74v-186h-68z" />
    <glyph glyph-name="f_t" unicode="ft" horiz-adv-x="594" 
d="M176 0h-68v433h-78v51l78 7v41q0 94 39 141q44 53 124 53q43 0 83 -9l-14 -60q-26 10 -64 10q-48 0 -77 -40q-23 -30 -23 -95v-40h200q0 11 6 128l62 10v-138h130v-59h-130v-258q0 -70 15 -95q17 -26 56 -26q34 0 71 14l12 -59q-55 -19 -102 -19q-64 0 -93 42
q-27 38 -27 140v261h-200v-433z" />
    <glyph glyph-name="uni0162_h" unicode="&#x162;h" horiz-adv-x="1075" 
d="M164 -231l16 50q28 -8 58 -8q53 0 53 40t-57 40q-12 0 -37 -3l43 112h-7v610h-210v66h572v38l67 11v-339q35 51 94 84.5t117 33.5q52 0 78 -20t34 -63q5 -28 5 -124v-297h-68v289q0 84 -9 114q-11 38 -70 38q-38 0 -82.5 -23.5t-72.5 -60.5q-26 -35 -26 -110v-247h-67
v617l-119 -9h-173v-608h-14l-25 -60q49 -4 70 -28t21 -57q0 -42 -32.5 -69t-90.5 -27q-38 0 -68 10z" />
    <glyph glyph-name="uni021A_h" unicode="&#x21a;h" horiz-adv-x="1052" 
d="M303 0h-70v610h-210v66h572v38l67 11v-339q35 51 94 84.5t117 33.5q52 0 78 -20t34 -63q5 -28 5 -124v-297h-68v289q0 84 -9 114q-11 38 -70 38q-38 0 -82.5 -23.5t-72.5 -60.5q-26 -35 -26 -110v-247h-67v617l-119 -9h-173v-608zM311 -54q-9 -93 -58 -193h-53
q33 86 43 193h68z" />
    <glyph glyph-name=".notdef" horiz-adv-x="501" 
d="M0 0v702h501v-702h-501zM251 396l170 256h-341zM280 351l172 -255v511zM80 50h341l-170 256zM50 607v-511l171 255z" />
    <glyph glyph-name=".null" horiz-adv-x="0" 
 />
    <glyph glyph-name="nonmarkingreturn" horiz-adv-x="333" 
 />
    <glyph glyph-name="space" unicode=" " horiz-adv-x="216" 
 />
    <glyph glyph-name="exclam" unicode="!" horiz-adv-x="272" 
d="M181 206h-60q-10 440 -10 470h80q0 -30 -10 -470zM202 46q0 -52 -54 -52q-19 0 -35 12.5t-16 39.5t16 41.5t37 14.5q22 0 37 -13.5t15 -42.5z" />
    <glyph glyph-name="quotedbl" unicode="&#x22;" horiz-adv-x="354" 
d="M117 423h-42l-14 274h70zM278 423h-41l-14 274h69z" />
    <glyph glyph-name="numbersign" unicode="#" horiz-adv-x="567" 
d="M167 0h-44l31 219h-115v57h124l16 115h-114v57h123l29 202h44l-29 -202h138l29 202h44l-29 -202h113v-57h-122l-16 -115h113v-57h-122l-31 -219h-44l31 219h-138zM223 391l-16 -115h138l16 115h-138z" />
    <glyph glyph-name="dollar" unicode="$" horiz-adv-x="522" 
d="M286 -101h-44v99q-125 2 -214 73l41 57q81 -64 173 -64v230l-43 17q-69 27 -99 66.5t-30 96.5q0 67 45.5 114t126.5 57v109h44v-106q91 -2 170 -41l-34 -64q-60 38 -136 40v-228l37 -15q70 -28 105 -65.5t35 -93.5q0 -75 -47.5 -122.5t-129.5 -58.5v-101zM385 169
q0 34 -21.5 58.5t-77.5 48.5v-209q47 9 73 35.5t26 66.5zM146 482q0 -39 20.5 -63t75.5 -47v207q-48 -9 -72 -37t-24 -60z" />
    <glyph glyph-name="percent" unicode="%" horiz-adv-x="796" 
d="M323 451q0 -106 -40.5 -163t-109.5 -57q-68 0 -106.5 54.5t-38.5 147.5q0 101 40.5 161t112.5 60q67 0 104.5 -55t37.5 -148zM271 444q0 162 -93 162q-44 0 -70.5 -43t-26.5 -123q0 -160 94 -160q43 0 69.5 41.5t26.5 122.5zM263 0h-47l317 644h46zM767 212
q0 -106 -40 -163t-110 -57q-68 0 -106 54.5t-38 147.5q0 101 40.5 161t112.5 60q66 0 103.5 -55t37.5 -148zM716 204q0 162 -94 162q-43 0 -70 -43t-27 -122q0 -161 95 -161q43 0 69.5 41.5t26.5 122.5z" />
    <glyph glyph-name="ampersand" unicode="&#x26;" horiz-adv-x="664" 
d="M635 -14q-75 19 -157 83q-38 -36 -94 -58.5t-112 -22.5q-101 0 -163.5 54t-62.5 145q0 74 38 119.5t121 82.5q-47 75 -47 146q0 66 45.5 110.5t124.5 44.5q70 0 110 -36.5t40 -100.5q0 -61 -46 -104.5t-129 -83.5q94 -126 176 -198q52 58 80 136l68 -23q-36 -94 -99 -161
q50 -39 132 -68zM272 415q136 59 136 135q0 38 -19.5 60.5t-59.5 22.5q-53 0 -76.5 -29t-23.5 -69q0 -63 43 -120zM237 336q-119 -53 -119 -143q0 -54 36 -96.5t120 -42.5q85 0 156 61q-106 96 -193 221z" />
    <glyph glyph-name="quotesingle" unicode="'" horiz-adv-x="192" 
d="M117 423h-42l-14 274h70z" />
    <glyph glyph-name="parenleft" unicode="(" horiz-adv-x="296" 
d="M302 -176h-48q-81 60 -142.5 179t-61.5 273q0 266 203 439h50q-187 -196 -187 -436q0 -251 186 -455z" />
    <glyph glyph-name="parenright" unicode=")" horiz-adv-x="296" 
d="M-6 715h48q81 -60 142.5 -179t61.5 -273q0 -266 -203 -439h-50q187 196 187 436q0 251 -186 455z" />
    <glyph glyph-name="asterisk" unicode="*" horiz-adv-x="407" 
d="M366 592l17 -48q-75 -23 -149 -43l95 -120l-41 -29l-87 122l-86 -122l-40 28q27 37 95 121q-48 12 -145 42l17 49q88 -29 142 -50q-4 70 -6 149h50q0 -67 -5 -150q4 2 143 51z" />
    <glyph glyph-name="plus" unicode="+" horiz-adv-x="700" 
d="M377 34h-53v235h-234v52h233v232h54v-232h233v-52h-233v-235z" />
    <glyph glyph-name="comma" unicode="," horiz-adv-x="190" 
d="M145 99q-15 -127 -82 -258h-58q52 118 66 258h74z" />
    <glyph glyph-name="hyphen" unicode="-" horiz-adv-x="304" 
d="M267 248h-230v52h230v-52z" />
    <glyph glyph-name="period" unicode="." horiz-adv-x="190" 
d="M146 45q0 -51 -52 -51q-19 0 -34.5 12.5t-15.5 38.5q0 27 15 40.5t36 13.5q22 0 36.5 -13t14.5 -41z" />
    <glyph glyph-name="slash" unicode="/" horiz-adv-x="377" 
d="M44 -53h-45l328 753h44z" />
    <glyph glyph-name="zero" unicode="0" horiz-adv-x="550" 
d="M509 337q0 -168 -63.5 -258.5t-174.5 -90.5q-108 0 -169.5 86.5t-61.5 233.5q0 160 64.5 255t178.5 95q107 0 166.5 -86.5t59.5 -234.5zM438 324q0 265 -160 265q-75 0 -120 -70.5t-45 -199.5q0 -137 43 -200.5t119 -63.5q74 0 118.5 68t44.5 201z" />
    <glyph glyph-name="one" unicode="1" horiz-adv-x="550" 
d="M332 0h-69v562q-63 -43 -134 -85l-30 51q92 60 173 119h60v-647z" />
    <glyph glyph-name="two" unicode="2" horiz-adv-x="550" 
d="M487 0h-450v53q169 124 277 233q90 92 90 179q0 52 -33 88t-102 36q-86 0 -181 -58l-28 60q110 67 219 67q97 0 149 -50.5t52 -137.5q0 -118 -125 -236q-92 -89 -208 -171q103 1 340 1v-64z" />
    <glyph glyph-name="three" unicode="3" horiz-adv-x="550" 
d="M77 -20v69q12 -1 36 -1q137 0 212.5 40.5t75.5 110.5q0 51 -33 79.5t-126 28.5q-21 0 -61 -4l-4 66q109 6 157 40.5t48 85.5q0 94 -125 94q-77 0 -163 -49l-25 63q102 55 198 55q186 0 186 -155q0 -54 -33.5 -92.5t-95.5 -57.5q152 -12 152 -151q0 -58 -28.5 -102
t-79 -70t-113.5 -38.5t-137 -12.5q-27 0 -41 1z" />
    <glyph glyph-name="four" unicode="4" horiz-adv-x="550" 
d="M348 226q0 254 2 329q-74 -110 -233 -329h231zM418 -12h-70v178h-310v49l309 432h71v-421h98v-60h-98v-178z" />
    <glyph glyph-name="five" unicode="5" horiz-adv-x="550" 
d="M77 -19v69q14 -1 37 -1q136 0 212.5 44.5t76.5 120.5q0 71 -41.5 101t-121.5 30q-55 0 -138 -25l34 327h320v-66h-262l-20 -182q48 13 101 13q98 0 151.5 -50t53.5 -143q0 -119 -100 -179t-262 -60q-27 0 -41 1z" />
    <glyph glyph-name="six" unicode="6" horiz-adv-x="550" 
d="M474 661l-10 -69q-25 4 -59 4q-119 0 -186 -71t-85 -203q63 98 184 98q87 0 138.5 -54t51.5 -155q0 -99 -59.5 -161t-161.5 -62q-42 0 -79.5 15t-72 47.5t-54.5 92.5t-20 142q0 164 94.5 272.5t249.5 108.5q38 0 69 -5zM438 211q0 65 -35.5 106t-104.5 41
q-47 0 -82.5 -24t-53.5 -60q-15 -32 -15 -71q0 -57 37 -105t107 -48q67 0 107 43.5t40 117.5z" />
    <glyph glyph-name="seven" unicode="7" horiz-adv-x="550" 
d="M241 0h-82q90 282 249 581h-356v66h435v-56q-169 -341 -246 -591z" />
    <glyph glyph-name="eight" unicode="8" horiz-adv-x="550" 
d="M354 340q68 -22 103.5 -65t35.5 -99q0 -87 -62.5 -137.5t-155.5 -50.5q-95 0 -156.5 49t-61.5 132q0 118 137 168q-112 46 -112 151q0 79 56.5 124.5t141.5 45.5q90 0 141 -42.5t51 -115.5q0 -108 -118 -160zM265 309q-68 -16 -102.5 -50.5t-34.5 -82.5q0 -53 39.5 -88
t107.5 -35q67 0 107.5 33.5t40.5 85.5q0 56 -39 87t-119 50zM284 367q55 13 88.5 44.5t33.5 76.5t-31 76t-95 31q-61 0 -95.5 -30t-34.5 -77q0 -50 33 -77.5t101 -43.5z" />
    <glyph glyph-name="nine" unicode="9" horiz-adv-x="550" 
d="M94 -15l12 68q24 -5 60 -5q118 0 186 76.5t81 201.5q-24 -41 -71 -69t-109 -28q-88 0 -140 52t-52 153q0 99 60 161.5t162 62.5q44 0 81.5 -15t71 -47t52.5 -92t19 -142q0 -165 -90.5 -273.5t-247.5 -108.5q-44 0 -75 5zM132 434q0 -63 37 -102.5t104 -39.5q47 0 81 24.5
t52 59.5q14 30 14 69q0 57 -35.5 103.5t-105.5 46.5q-66 0 -106.5 -44t-40.5 -117z" />
    <glyph glyph-name="colon" unicode=":" horiz-adv-x="210" 
d="M166 45q0 -51 -52 -51q-19 0 -34.5 12.5t-15.5 38.5q0 27 15 40.5t36 13.5q22 0 36.5 -13t14.5 -41zM166 406q0 -26 -14.5 -39t-37.5 -13q-19 0 -34.5 12.5t-15.5 39.5t15 40.5t36 13.5q22 0 36.5 -13t14.5 -41z" />
    <glyph glyph-name="semicolon" unicode=";" horiz-adv-x="210" 
d="M165 99q-15 -127 -82 -258h-58q52 118 66 258h74zM166 406q0 -26 -14.5 -39t-37.5 -13q-19 0 -34.5 12.5t-15.5 39.5t15 40.5t36 13.5q22 0 36.5 -13t14.5 -41z" />
    <glyph glyph-name="less" unicode="&#x3c;" horiz-adv-x="700" 
d="M566 49l-451 216v54l451 222v-62l-390 -185l390 -181v-64z" />
    <glyph glyph-name="equal" unicode="=" horiz-adv-x="700" 
d="M610 172h-520v53h520v-53zM610 360h-520v52h520v-52z" />
    <glyph glyph-name="greater" unicode="&#x3e;" horiz-adv-x="700" 
d="M134 541l451 -217v-53l-451 -222v62l391 185l-391 181v64z" />
    <glyph glyph-name="question" unicode="?" horiz-adv-x="406" 
d="M213 210l-61 -7q-11 37 -11 62q0 38 13.5 65t51.5 62q45 41 64.5 73t19.5 67q0 42 -27.5 66t-79.5 24q-66 0 -128 -31l-19 61q81 38 161 38q82 0 124.5 -37.5t42.5 -104.5q0 -50 -20 -87.5t-74 -86.5q-39 -35 -52 -54.5t-13 -54.5q0 -31 8 -55zM235 46q0 -26 -14.5 -39
t-38.5 -13q-19 0 -35 12.5t-16 39.5t15.5 41.5t36.5 14.5q22 0 37 -13.5t15 -42.5z" />
    <glyph glyph-name="at" unicode="@" horiz-adv-x="794" 
d="M493 135q-75 -99 -169 -99q-54 0 -85.5 34.5t-31.5 96.5q0 47 18.5 102t52.5 97q67 86 161 86q77 0 104 -53l11 40l48 5l-50 -227q-12 -48 -12 -85q0 -46 32 -46q47 0 89.5 72t42.5 159q0 119 -71.5 186t-188.5 67q-150 0 -246.5 -105.5t-96.5 -260.5q0 -134 83.5 -219
t228.5 -85q132 0 263 77l21 -37q-137 -81 -290 -81q-157 0 -254 96t-97 248q0 175 111 290t279 115q138 0 218.5 -77.5t80.5 -210.5q0 -110 -56 -194t-129 -84q-64 0 -67 93zM507 253q16 57 16 87q0 32 -22 50.5t-61 18.5q-71 0 -122 -66q-26 -34 -42.5 -82.5t-16.5 -89.5
q0 -44 21 -65.5t56 -21.5q50 0 87.5 30.5t57.5 64.5q16 34 26 74z" />
    <glyph glyph-name="A" unicode="A" horiz-adv-x="592" 
d="M76 0h-73l254 676h83l249 -676h-75l-80 211h-276zM176 273h241q-99 259 -119 325q-27 -80 -122 -325z" />
    <glyph glyph-name="B" unicode="B" horiz-adv-x="597" 
d="M89 0v673q78 6 173 6q127 0 192.5 -35.5t65.5 -123.5q0 -64 -37 -106t-107 -56q79 -7 125.5 -48.5t46.5 -111.5q0 -160 -173 -186q-77 -12 -286 -12zM158 317v-251q144 0 208 13q55 11 81 40.5t26 82.5q0 46 -34.5 76t-105.5 36q-39 3 -133 3h-42zM158 613v-230h40
q92 0 134 8q114 21 114 116q0 60 -41.5 84t-137.5 24q-77 0 -109 -2z" />
    <glyph glyph-name="C" unicode="C" horiz-adv-x="608" 
d="M598 95q-114 -109 -258 -109q-127 0 -210 88.5t-83 241.5q0 175 87.5 274.5t234.5 99.5q113 0 198 -46l-35 -66q-71 44 -167 44q-102 0 -172 -74t-70 -228q0 -124 65.5 -195t165.5 -71q61 0 107 22t93 69z" />
    <glyph glyph-name="D" unicode="D" horiz-adv-x="673" 
d="M89 0v673q112 6 183 6q118 0 186 -28q168 -68 168 -291q0 -269 -218 -335q-50 -15 -119 -19.5t-200 -5.5zM159 68q145 0 220 23q171 48 171 268q0 163 -113 224q-57 30 -169 30q-70 0 -109 -3v-542z" />
    <glyph glyph-name="E" unicode="E" horiz-adv-x="545" 
d="M480 610h-321v-227h304v-66h-304v-250h352v-67h-422v676h391v-66z" />
    <glyph glyph-name="F" unicode="F" horiz-adv-x="512" 
d="M159 0h-70v676h388v-66h-318v-239h291v-66h-291v-305z" />
    <glyph glyph-name="G" unicode="G" horiz-adv-x="688" 
d="M608 0h-64v89q-69 -101 -213 -101q-127 0 -205.5 87.5t-78.5 240.5q0 175 88 274.5t235 99.5q120 0 209 -48l-36 -66q-77 46 -176 46q-108 0 -176 -78t-68 -224q0 -125 62.5 -194.5t157.5 -69.5q64 0 111 30t69 77q17 40 17 100v21h-164v66h232v-350z" />
    <glyph glyph-name="H" unicode="H" horiz-adv-x="673" 
d="M159 0h-70v676h70v-293h355v293h70v-676h-70v317h-355v-317z" />
    <glyph glyph-name="I" unicode="I" horiz-adv-x="248" 
d="M159 0h-70v676h70v-676z" />
    <glyph glyph-name="J" unicode="J" horiz-adv-x="375" 
d="M1 6l19 67q56 -18 89 -18q68 0 95 50q16 32 16 123v448h71v-447q0 -111 -21 -157q-37 -84 -152 -84q-70 0 -117 18z" />
    <glyph glyph-name="K" unicode="K" horiz-adv-x="592" 
d="M159 0h-70v676h70v-354l316 354h87l-241 -266l266 -410h-86l-229 350l-113 -120v-230z" />
    <glyph glyph-name="L" unicode="L" horiz-adv-x="502" 
d="M482 0h-393v676h70v-610h323v-66z" />
    <glyph glyph-name="M" unicode="M" horiz-adv-x="797" 
d="M140 0h-68l23 676h95q168 -348 211 -448l208 448h90l27 -676h-69q-21 446 -23 583q-28 -67 -211 -457h-48q-191 399 -217 458q-3 -173 -18 -584z" />
    <glyph glyph-name="N" unicode="N" horiz-adv-x="673" 
d="M159 0h-70v676h75q307 -482 353 -560q-3 147 -3 560h71v-676h-75l-353 560q2 -93 2 -560z" />
    <glyph glyph-name="O" unicode="O" horiz-adv-x="714" 
d="M667 356q0 -169 -84 -269.5t-231 -100.5q-141 0 -223 93.5t-82 241.5q0 167 85 268t238 101q138 0 217.5 -92.5t79.5 -241.5zM591 337q0 58 -11.5 106.5t-37 90t-73 65t-113.5 23.5q-105 0 -169 -81.5t-64 -203.5q0 -141 63.5 -212t172.5 -71q102 0 167 77t65 206z" />
    <glyph glyph-name="P" unicode="P" horiz-adv-x="579" 
d="M159 0h-70v673q106 6 175 6q138 0 204.5 -40.5t66.5 -145.5q0 -74 -36 -126.5t-109 -72.5q-51 -14 -147 -14q-56 0 -84 2v-282zM159 346q43 -3 85 -3q63 0 96 6q60 9 91.5 46t31.5 95q0 65 -43 94.5t-142 29.5q-88 0 -119 -3v-265z" />
    <glyph glyph-name="Q" unicode="Q" horiz-adv-x="714" 
d="M667 356q0 -141 -59.5 -236t-166.5 -123q137 -62 289 -86l-15 -63q-183 25 -399 140q-125 12 -197 103.5t-72 229.5q0 167 85 268t238 101q138 0 217.5 -92.5t79.5 -241.5zM591 337q0 58 -11.5 106.5t-37 90t-73 65t-113.5 23.5q-105 0 -169 -81.5t-64 -203.5
q0 -141 63.5 -212t172.5 -71q102 0 167 77t65 206z" />
    <glyph glyph-name="R" unicode="R" horiz-adv-x="587" 
d="M159 0h-70v673q106 6 177 6q131 0 193.5 -40t62.5 -141q0 -68 -38.5 -111.5t-107.5 -60.5q37 -14 68 -54.5t72 -131.5q57 -123 66 -140h-76q-28 54 -46 97q-38 87 -61.5 123t-56.5 60q-29 20 -100 21q-33 0 -83 2v-303zM159 366q58 -2 95 -2q50 0 82 6q115 20 115 125
q0 65 -40 93t-134 28q-87 0 -118 -3v-247z" />
    <glyph glyph-name="S" unicode="S" horiz-adv-x="509" 
d="M63 126q84 -70 180 -70q69 0 111 33t42 86q0 39 -26 66t-95 55l-77 32q-71 29 -103 71.5t-32 102.5q0 83 60.5 135.5t167.5 52.5q91 0 174 -44l-35 -66q-66 42 -147 42q-72 0 -108 -33.5t-36 -78.5q0 -42 22 -68t81 -50l86 -36q72 -29 108 -69t36 -100
q0 -92 -62.5 -145.5t-170.5 -53.5q-57 0 -117 20t-106 57z" />
    <glyph glyph-name="T" unicode="T" horiz-adv-x="543" 
d="M303 0h-70v610h-210v66h498v-66h-218v-610z" />
    <glyph glyph-name="U" unicode="U" horiz-adv-x="661" 
d="M579 676v-397q0 -132 -31 -189q-56 -101 -219 -101q-170 0 -222 110q-25 52 -25 178v399h70v-394q0 -101 16 -141q31 -85 164 -85q121 0 156 78q20 39 20 143v399h71z" />
    <glyph glyph-name="V" unicode="V" horiz-adv-x="579" 
d="M328 0h-83l-244 676h78q175 -484 209 -592q36 111 215 592h75z" />
    <glyph glyph-name="W" unicode="W" horiz-adv-x="860" 
d="M679 0h-78l-172 576q-24 -91 -172 -576h-79l-169 676h77q101 -405 138 -580q34 132 170 580h72q129 -413 173 -580q38 172 137 580h75z" />
    <glyph glyph-name="X" unicode="X" horiz-adv-x="607" 
d="M97 0h-82l242 358l-217 318h85l184 -265l177 265h79l-217 -323l244 -353h-87l-207 301z" />
    <glyph glyph-name="Y" unicode="Y" horiz-adv-x="567" 
d="M314 0h-70v270l-243 406h83q149 -245 199 -335q75 132 203 335h79l-251 -406v-270z" />
    <glyph glyph-name="Z" unicode="Z" horiz-adv-x="572" 
d="M540 0h-521v54l424 556h-384v66h477v-52l-422 -557h426v-67z" />
    <glyph glyph-name="bracketleft" unicode="[" horiz-adv-x="265" 
d="M262 -168h-175v873h175v-44h-115v-783h115v-46z" />
    <glyph glyph-name="backslash" unicode="\" horiz-adv-x="377" 
d="M378 -53h-45l-327 753h44z" />
    <glyph glyph-name="bracketright" unicode="]" horiz-adv-x="265" 
d="M4 705h175v-873h-175v45h115v783h-115v45z" />
    <glyph glyph-name="asciicircum" unicode="^" horiz-adv-x="707" 
d="M573 282h-62l-159 330l-156 -330h-62l187 394h64z" />
    <glyph glyph-name="underscore" unicode="_" horiz-adv-x="501" 
d="M0 -90h501v-40h-501v40z" />
    <glyph glyph-name="grave" unicode="`" horiz-adv-x="201" 
d="M207 560h-65l-147 152h90z" />
    <glyph glyph-name="a" unicode="a" horiz-adv-x="499" 
d="M420 0h-61l-3 82q-57 -92 -169 -92q-67 0 -107 39t-40 97q0 90 95 129q78 31 222 38v32q0 67 -20 91q-24 30 -83 30q-79 0 -169 -56l-26 52q106 63 209 63q89 0 126 -48q29 -38 29 -134q0 -14 -3 -323zM358 242q-143 -10 -202 -40q-49 -23 -49 -70q0 -36 25 -59t71 -23
q42 0 80 25.5t56 63.5q19 42 19 103z" />
    <glyph glyph-name="b" unicode="b" horiz-adv-x="553" 
d="M140 0h-59v713l67 12v-328q30 45 79.5 76t110.5 31q84 0 129 -61t45 -180q0 -136 -62.5 -204t-154.5 -68t-151 62zM147 217q0 -70 16 -100t48.5 -49.5t72.5 -19.5q66 0 112 52t46 154q0 189 -127 189q-53 0 -95 -38.5t-57 -79.5q-16 -45 -16 -108z" />
    <glyph glyph-name="c" unicode="c" horiz-adv-x="464" 
d="M450 73q-87 -85 -200 -85q-92 0 -150.5 64t-58.5 177q0 130 67.5 203t174.5 73q78 0 142 -34l-32 -58q-49 30 -109 30q-80 0 -127 -58t-47 -153q0 -88 42.5 -136t112.5 -48q75 0 151 69z" />
    <glyph glyph-name="d" unicode="d" horiz-adv-x="553" 
d="M472 0h-64l-3 85q-62 -94 -179 -94q-82 0 -133.5 62.5t-51.5 176.5q0 131 63.5 202t153.5 71q98 0 146 -56v266l68 12v-725zM405 262q0 87 -16 117q-17 29 -48 48t-71 19q-67 0 -113 -56.5t-46 -151.5q0 -99 38.5 -143.5t97.5 -44.5q56 0 94 37t51 77q13 41 13 98z" />
    <glyph glyph-name="e" unicode="e" horiz-adv-x="503" 
d="M473 74q-95 -86 -210 -86q-103 0 -162.5 69.5t-59.5 181.5q0 127 68 196.5t163 69.5q57 0 96.5 -19.5t59.5 -56t28.5 -78.5t8.5 -96l-357 -13q1 -97 45.5 -145t123.5 -48q81 0 158 68zM397 307q-4 65 -31.5 103t-97.5 38q-57 0 -101.5 -37.5t-56.5 -115.5z" />
    <glyph glyph-name="f" unicode="f" horiz-adv-x="310" 
d="M108 0v433h-78v51l78 7v40q0 95 39 142q45 53 125 53q48 0 92 -11l-15 -59q-34 10 -70 10q-51 0 -80 -39q-23 -30 -23 -95v-40h135v-59h-135v-433h-68z" />
    <glyph glyph-name="g" unicode="g" horiz-adv-x="496" 
d="M124 14q-46 9 -69 34t-23 58q0 62 79 110q-45 45 -45 120q0 74 50 121.5t139 47.5q41 0 78 -13h153v-59h-84q32 -36 32 -93q0 -80 -51.5 -125.5t-137.5 -45.5q-52 0 -86 17q-25 -9 -42 -26.5t-17 -37.5q0 -54 84 -54q29 0 85.5 1t71.5 1q144 0 144 -112
q0 -89 -76.5 -145.5t-189.5 -56.5q-96 0 -144 36.5t-48 92.5q0 81 97 129zM414 -64q0 40 -22 55t-91 15t-85 -3q-45 -8 -74 -28q-47 -34 -47 -75q0 -43 37.5 -63.5t98.5 -20.5q77 0 130 37.5t53 82.5zM366 338q0 110 -115 110q-55 0 -85.5 -31t-30.5 -79q0 -57 31 -85.5
t81 -28.5q53 0 86 29.5t33 84.5z" />
    <glyph glyph-name="h" unicode="h" horiz-adv-x="561" 
d="M148 0h-67v714l67 11v-329q35 48 92.5 78t115.5 30q52 0 79.5 -20t35.5 -63q5 -28 5 -124v-297h-67v288q0 86 -9 114q-14 39 -71 39q-38 0 -82.5 -24.5t-72.5 -62.5q-26 -35 -26 -114v-240z" />
    <glyph glyph-name="i" unicode="i" horiz-adv-x="230" 
d="M148 0h-67v487l67 11v-498zM156 638q0 -43 -42 -43q-41 0 -41 43t42 43q41 0 41 -43z" />
    <glyph glyph-name="j" unicode="j" horiz-adv-x="234" 
d="M-39 -241l-12 58q51 11 78 26t39 40q15 31 15 100v504l67 11v-504q0 -95 -19 -136q-35 -77 -168 -99zM156 638q0 -43 -42 -43q-41 0 -41 43t42 43q41 0 41 -43z" />
    <glyph glyph-name="k" unicode="k" horiz-adv-x="487" 
d="M148 0h-67v713l67 12v-456l221 223h87l-181 -180l208 -312h-81l-174 261l-80 -75v-186z" />
    <glyph glyph-name="l" unicode="l" horiz-adv-x="230" 
d="M148 0h-67v713l67 12v-725z" />
    <glyph glyph-name="m" unicode="m" horiz-adv-x="868" 
d="M148 0h-67v487l67 12v-103q90 108 205 108q57 0 81.5 -25t29.5 -83q39 50 94 79t113 29q95 0 108 -83q4 -28 4 -124v-297h-67v291q0 82 -9 112q-11 38 -66 38q-37 0 -79.5 -24t-70.5 -62q-25 -33 -25 -110v-245h-68v291q0 79 -10 112q-13 38 -64 38q-37 0 -79 -25
t-71 -63q-26 -35 -26 -110v-243z" />
    <glyph glyph-name="n" unicode="n" horiz-adv-x="554" 
d="M148 0h-67v487l67 12v-102q37 48 93 77.5t114 29.5q101 0 116 -84q5 -29 5 -124v-296h-67v289q0 82 -9 112q-13 40 -73 40q-37 0 -81 -25t-72 -63q-26 -37 -26 -114v-239z" />
    <glyph glyph-name="o" unicode="o" horiz-adv-x="539" 
d="M498 259q0 -124 -61.5 -197.5t-173.5 -73.5q-102 0 -162 69t-60 181q0 121 63.5 194t178.5 73q101 0 158 -68t57 -178zM428 242q0 204 -157 204q-73 0 -116.5 -57t-43.5 -134q0 -105 42.5 -156t116.5 -51q68 0 113 52t45 142z" />
    <glyph glyph-name="p" unicode="p" horiz-adv-x="553" 
d="M148 -229h-67v716l67 12v-103q72 108 190 108q84 0 129 -61t45 -180q0 -136 -62.5 -203.5t-154.5 -67.5q-91 0 -147 57v-278zM147 217q0 -70 16 -98q15 -30 48 -50.5t73 -20.5q66 0 112 52t46 154q0 189 -127 189q-55 0 -96.5 -39.5t-56.5 -82.5t-15 -104z" />
    <glyph glyph-name="q" unicode="q" horiz-adv-x="551" 
d="M469 -229h-67v316q-61 -98 -179 -98q-81 0 -131.5 63.5t-50.5 177.5q0 131 63.5 202t152.5 71q102 0 149 -60l1 44l62 11v-727zM403 261q0 82 -16 114q-35 71 -118 71q-65 0 -111.5 -56t-46.5 -152q0 -100 38.5 -144t95.5 -44q56 0 93.5 40t51.5 83q13 41 13 88z" />
    <glyph glyph-name="r" unicode="r" horiz-adv-x="344" 
d="M148 0h-67v487l67 12v-105q31 48 80 78t103 31v-69q-98 -3 -156 -84q-27 -39 -27 -125v-225z" />
    <glyph glyph-name="s" unicode="s" horiz-adv-x="404" 
d="M57 98q66 -50 139 -50q50 0 79 21t29 57q0 27 -18.5 44.5t-70.5 39.5l-59 25q-102 43 -102 130q0 62 46.5 101t131.5 39q75 0 137 -31l-31 -58q-58 30 -113 30q-51 0 -77 -22t-26 -51q0 -30 15.5 -49t59.5 -35l69 -26q56 -21 81.5 -50.5t25.5 -75.5q0 -66 -45 -107.5
t-133 -41.5q-102 0 -177 54z" />
    <glyph glyph-name="t" unicode="t" horiz-adv-x="325" 
d="M331 9q-54 -19 -104 -19q-64 0 -93 42q-27 38 -27 140v261h-78v51l78 7l4 129l64 10v-138h129v-59h-129v-259q0 -72 15 -94q18 -27 56 -27q27 0 69 14z" />
    <glyph glyph-name="u" unicode="u" horiz-adv-x="561" 
d="M471 0h-68v88q-78 -99 -190 -99q-54 0 -88 25t-42 68q-7 42 -7 117v293h67v-283q0 -87 12 -116q18 -42 82 -42q38 0 79 24.5t63 61.5q24 40 24 119v236h68v-492z" />
    <glyph glyph-name="v" unicode="v" horiz-adv-x="449" 
d="M260 0h-74l-185 492h77q105 -283 146 -411l151 411h73z" />
    <glyph glyph-name="w" unicode="w" horiz-adv-x="688" 
d="M214 0h-72l-133 492h76q79 -302 100 -405q25 85 127 398h72q105 -346 116 -398q14 66 110 405h69l-143 -492h-73l-59.5 200.5l-39.5 131.5l-20 68q-31 -106 -130 -400z" />
    <glyph glyph-name="x" unicode="x" horiz-adv-x="467" 
d="M84 0h-80l186 255l-172 237h85q123 -169 133 -184q24 36 132 184h81l-175 -234l190 -258h-86l-149 205z" />
    <glyph glyph-name="y" unicode="y" horiz-adv-x="456" 
d="M18 -240l-20 63q68 21 116 62t81 123l-192 484h77q109 -276 155 -407q39 116 148 407h72l-163 -435q-29 -77 -58.5 -129t-64.5 -84.5t-68.5 -50.5t-82.5 -33z" />
    <glyph glyph-name="z" unicode="z" horiz-adv-x="439" 
d="M413 0h-388v50l298 380h-272v62h358v-53l-296 -379h300v-60z" />
    <glyph glyph-name="braceleft" unicode="{" horiz-adv-x="300" 
d="M296 -176q-93 0 -134 34.5t-41 127.5v134q0 67 -21 95.5t-72 35.5v36q54 10 73.5 39t19.5 93v134q0 93 40.5 127.5t134.5 34.5v-44q-27 0 -43.5 -3t-35 -13.5t-27 -35t-8.5 -62.5v-140q0 -71 -19.5 -101t-65.5 -46q43 -10 64 -42t21 -100v-142q0 -68 31 -93.5t83 -25.5
v-43z" />
    <glyph glyph-name="bar" unicode="|" horiz-adv-x="222" 
d="M135 -170h-48v903h48v-903z" />
    <glyph glyph-name="braceright" unicode="}" horiz-adv-x="300" 
d="M4 715q93 0 134.5 -34t41.5 -127v-135q0 -68 20.5 -96t71.5 -35v-36q-53 -10 -72.5 -39t-19.5 -93v-133q0 -93 -41 -128t-135 -35v44q27 0 44 3t35 13.5t26.5 35t8.5 63.5v139q0 71 19.5 101t65.5 46q-43 10 -64 42.5t-21 99.5v142q0 68 -31 93.5t-83 25.5v43z" />
    <glyph glyph-name="asciitilde" unicode="~" horiz-adv-x="700" 
d="M126 232l-38 30q41 56 77.5 79t77.5 23q42 0 121 -46q59 -35 98 -35q32 0 56.5 18t53.5 64l40 -28q-35 -55 -69 -81t-82 -26q-51 0 -118 39q-69 41 -104 41q-59 0 -113 -78z" />
    <glyph glyph-name="exclamdown" unicode="&#xa1;" horiz-adv-x="272" 
d="M92 276h60q10 -440 10 -470h-80q0 30 10 470zM71 434q0 27 15.5 41t37.5 14q21 0 36 -13.5t15 -41.5q0 -26 -15 -39.5t-38 -13.5q-20 0 -35.5 13t-15.5 40z" />
    <glyph glyph-name="cent" unicode="&#xa2;" horiz-adv-x="506" 
d="M321 -101h-45v101q-88 3 -142 65t-54 168q0 113 53.5 181.5t142.5 82.5v106h45v-102q77 -1 133 -32l-27 -58q-50 31 -106 32v-381q66 7 129 63l37 -44q-72 -67 -166 -79v-103zM151 237q0 -77 33 -121.5t92 -52.5v375q-59 -15 -92 -68.5t-33 -132.5z" />
    <glyph glyph-name="sterling" unicode="&#xa3;" horiz-adv-x="550" 
d="M441 263h-173q4 -26 4 -39q0 -93 -115 -162q110 2 364 2v-64h-457v55q69 35 103.5 79t34.5 85q0 19 -6 44h-116v52h97q-1 3 -11 23.5t-12 25.5t-9.5 22.5t-10 26.5l-6.5 23.5t-5.5 26.5t-1.5 24q0 81 55.5 126t154.5 45q92 0 174 -45l-29 -66q-65 43 -139 43
q-66 0 -101.5 -30t-35.5 -84q0 -39 36 -122l16 -39h189v-52z" />
    <glyph glyph-name="currency" unicode="&#xa4;" horiz-adv-x="519" 
d="M415 330q0 70 -44 115.5t-111 45.5q-66 0 -111 -45.5t-45 -113.5q0 -70 44 -115.5t112 -45.5q67 0 111 45t44 114zM446 108l-58 59q-54 -44 -128 -44q-73 0 -128 43l-57 -58l-35 34l60 60q-44 55 -44 128q0 74 43 129l-59 60l35 34l58 -59q54 45 127 45q75 0 126 -44
l58 58l34 -34l-58 -59q43 -54 43 -130q0 -74 -43 -127l59 -61z" />
    <glyph glyph-name="yen" unicode="&#xa5;" horiz-adv-x="607" 
d="M509 308h-141l-35 -55v-18h176v-44h-176v-191h-70v191h-174v44h174v18l-34 55h-140v44h113l-179 295h84q152 -249 192 -325q62 105 204 325h80l-187 -295h113v-44z" />
    <glyph glyph-name="brokenbar" unicode="&#xa6;" horiz-adv-x="222" 
d="M135 340h-48v336h48v-336zM135 -129h-48v336h48v-336z" />
    <glyph glyph-name="section" unicode="&#xa7;" horiz-adv-x="498" 
d="M81 -4q81 -62 161 -62q44 0 73 21t29 57q0 20 -7.5 35t-29 31.5t-41.5 28l-64 35.5q-18 10 -28 15q-71 39 -98 74t-27 78q0 47 30.5 78.5t73.5 44.5q-59 52 -59 117q0 51 40 94t122 43q88 0 161 -48l-27 -56q-79 45 -136 45q-47 0 -68.5 -23t-21.5 -50q0 -35 26.5 -59
t105.5 -69q91 -51 122 -84.5t31 -83.5q0 -86 -96 -126q34 -27 48.5 -53t14.5 -63q0 -58 -46 -100t-129 -42q-106 0 -192 66zM311 160q74 27 74 85q0 28 -18.5 49.5t-58.5 43.5l-113 67q-81 -19 -81 -82q0 -49 69 -90q19 -12 128 -73z" />
    <glyph glyph-name="dieresis" unicode="&#xa8;" horiz-adv-x="201" 
d="M58 633q0 -41 -39 -41q-38 0 -38 41q0 42 39 42q38 0 38 -42zM220 633q0 -41 -39 -41q-38 0 -38 41q0 42 39 42q38 0 38 -42z" />
    <glyph glyph-name="copyright" unicode="&#xa9;" horiz-adv-x="812" 
d="M761 337q0 -150 -101 -250t-254 -100q-152 0 -253 100.5t-101 249.5t101 250.5t252 101.5q153 0 254.5 -101t101.5 -251zM727 337q0 138 -91 230t-231 92q-138 0 -229.5 -92.5t-91.5 -229.5t91.5 -228.5t230.5 -91.5t230 91.5t91 228.5zM566 183q-77 -72 -172 -72
q-84 0 -134.5 55.5t-50.5 154.5q0 114 58.5 176t153.5 62q70 0 123 -30l-25 -47q-42 29 -100 29q-73 0 -114 -51.5t-41 -135.5q0 -78 39 -121t99 -43q69 0 137 60z" />
    <glyph glyph-name="ordfeminine" unicode="&#xaa;" horiz-adv-x="318" 
d="M276 267h-44l-2 49q-38 -56 -109 -56q-45 0 -71.5 26t-26.5 65q0 60 64 84q52 19 142 25v12q0 42 -12 59q-13 19 -52 19q-55 0 -111 -36l-18 37q69 41 137 41q56 0 83 -32q20 -23 20 -86v-207zM230 420q-89 -5 -131 -25q-28 -13 -28 -46q0 -20 15.5 -34t43.5 -14
q59 0 88 52q12 22 12 67z" />
    <glyph glyph-name="guillemotleft" unicode="&#xab;" horiz-adv-x="492" 
d="M217 438h71l-175 -184l176 -189h-73l-186 187zM391 438h71l-175 -184l176 -189h-72l-188 187z" />
    <glyph glyph-name="logicalnot" unicode="&#xac;" horiz-adv-x="700" 
d="M602 34h-54v235h-466v52h520v-287z" />
    <glyph glyph-name="uni00AD" unicode="&#xad;" horiz-adv-x="304" 
d="M267 248h-230v52h230v-52z" />
    <glyph glyph-name="registered" unicode="&#xae;" horiz-adv-x="812" 
d="M761 337q0 -150 -101 -250t-254 -100q-152 0 -253 100.5t-101 249.5t101 250.5t252 101.5q153 0 254.5 -101t101.5 -251zM727 337q0 138 -91 230t-231 92q-138 0 -229.5 -92.5t-91.5 -229.5t91.5 -228.5t230.5 -91.5t230 91.5t91 228.5zM318 130h-52v426q66 4 116 4
q167 0 167 -116q0 -84 -91 -108q25 -8 45.5 -36.5t43.5 -81.5q6 -14 44 -88h-57q-14 24 -31 63q-43 93 -72 112q-19 12 -60 12q-25 0 -53 2v-189zM318 363q6 0 24.5 -0.5t23.5 -0.5q66 0 97.5 16.5t31.5 61.5q0 33 -25 53.5t-80 20.5q-36 0 -72 -2v-149z" />
    <glyph glyph-name="macron" unicode="&#xaf;" horiz-adv-x="201" 
d="M240 584h-279v54h279v-54z" />
    <glyph glyph-name="degree" unicode="&#xb0;" horiz-adv-x="294" 
d="M269 566q0 -58 -35.5 -92.5t-88.5 -34.5t-86.5 35.5t-33.5 85.5q0 58 34.5 93t87.5 35q59 0 90.5 -34.5t31.5 -87.5zM234 566q0 34 -21 61t-67 27q-41 0 -63 -26.5t-22 -64.5q0 -39 23.5 -64.5t61.5 -25.5q40 0 64 25t24 68z" />
    <glyph glyph-name="plusminus" unicode="&#xb1;" horiz-adv-x="700" 
d="M377 127h-53v227h-234v53h233v225h54v-225h233v-53h-233v-227zM610 0h-520v52h520v-52z" />
    <glyph glyph-name="twosuperior" unicode="&#xb2;" 
d="M306 459h-278v39q125 96 172 147q49 52 49 104q0 32 -19.5 54.5t-59.5 22.5q-50 0 -110 -38l-19 43q71 43 137 43q61 0 92.5 -32t31.5 -88q0 -75 -76 -146q-46 -44 -126 -104q62 1 206 1v-46z" />
    <glyph glyph-name="threesuperior" unicode="&#xb3;" 
d="M53 447v48q8 -1 24 -1q170 0 170 90q0 33 -18.5 51t-74.5 18q-15 0 -37 -2l-3 40q121 8 121 76q0 58 -72 58q-46 0 -98 -31l-17 45q62 35 123 35q118 0 118 -98q0 -34 -22 -59t-60 -36q44 -2 70.5 -26.5t26.5 -67.5q0 -73 -62 -107t-164 -34q-17 0 -25 1z" />
    <glyph glyph-name="acute" unicode="&#xb4;" horiz-adv-x="201" 
d="M58 560h-63l121 152h91z" />
    <glyph glyph-name="mu" unicode="&#xb5;" horiz-adv-x="583" 
d="M162 -202h-68v694h67v-284q0 -88 12 -114q18 -40 87 -40q80 0 137 83q25 38 25 111v244h67v-492h-67v107q-29 -52 -72.5 -83t-95.5 -31q-64 0 -95 35q3 -71 3 -230z" />
    <glyph glyph-name="paragraph" unicode="&#xb6;" horiz-adv-x="555" 
d="M309 -107h-38v359q-103 0 -158.5 57.5t-55.5 148.5q0 218 260 218h148v-783h-39v746h-117v-746z" />
    <glyph glyph-name="periodcentered" unicode="&#xb7;" horiz-adv-x="190" 
d="M143 264q0 -26 -13.5 -39t-35.5 -13q-18 0 -33 12.5t-15 39.5t14.5 40.5t34.5 13.5q48 0 48 -54z" />
    <glyph glyph-name="cedilla" unicode="&#xb8;" horiz-adv-x="201" 
d="M10 -221l15 48q27 -8 54 -8q50 0 50 38t-53 38q-22 0 -35 -2l44 117h48l-28 -67q46 -4 66 -27.5t20 -54.5q0 -41 -31 -67t-86 -26q-40 0 -64 11z" />
    <glyph glyph-name="onesuperior" unicode="&#xb9;" 
d="M216 459h-51v350q-25 -18 -82 -53l-20 37q68 46 105 74h48v-408z" />
    <glyph glyph-name="ordmasculine" unicode="&#xba;" horiz-adv-x="342" 
d="M324 435q0 -80 -41 -127.5t-116 -47.5q-69 0 -108.5 44.5t-39.5 116.5q0 77 42.5 124t119.5 47q67 0 105 -43.5t38 -113.5zM275 424q0 126 -101 126q-50 0 -77.5 -35t-27.5 -83q0 -129 103 -129q44 0 73.5 32.5t29.5 88.5z" />
    <glyph glyph-name="guillemotright" unicode="&#xbb;" horiz-adv-x="492" 
d="M275 65h-71l175 184l-176 189h73l187 -187zM101 65h-71l175 184l-176 189h73l187 -187z" />
    <glyph glyph-name="onequarter" unicode="&#xbc;" horiz-adv-x="795" 
d="M267 0h-47l317 644h46zM217 239h-51v351q-32 -24 -82 -54l-20 37q101 71 105 74h48v-408zM625 144q0 155 1 202q-39 -61 -139 -202h138zM675 -7h-50v109h-189v36l188 270h51v-264h61v-42h-61v-109z" />
    <glyph glyph-name="onehalf" unicode="&#xbd;" horiz-adv-x="795" 
d="M267 0h-47l317 644h46zM217 239h-51v351q-32 -24 -82 -54l-20 37q101 71 105 74h48v-408zM763 0h-278v39q125 96 172 147q49 52 49 104q0 32 -19.5 54.5t-59.5 22.5q-50 0 -110 -38l-19 43q71 43 137 43q61 0 92.5 -32t31.5 -88q0 -75 -76 -146q-46 -44 -126 -104
q62 1 206 1v-46z" />
    <glyph glyph-name="threequarters" unicode="&#xbe;" horiz-adv-x="795" 
d="M289 0h-47l317 644h46zM79 227v48q8 -1 24 -1q170 0 170 90q0 33 -18.5 51.5t-74.5 18.5q-4 0 -37 -3l-3 41q121 8 121 76q0 58 -72 58q-44 0 -98 -31l-17 44q59 35 123 35q118 0 118 -98q0 -34 -22 -59t-60 -35q45 -3 71 -27.5t26 -67.5q0 -73 -62 -107t-164 -34
q-17 0 -25 1zM625 144q0 155 1 202q-39 -61 -139 -202h138zM675 -7h-50v109h-189v36l188 270h51v-264h61v-42h-61v-109z" />
    <glyph glyph-name="questiondown" unicode="&#xbf;" horiz-adv-x="406" 
d="M203 272l61 7q11 -31 11 -62q0 -39 -13 -65.5t-52 -61.5q-45 -42 -64.5 -73.5t-19.5 -66.5q0 -42 28 -66t80 -24q65 0 127 31l18 -61q-79 -38 -160 -38q-82 0 -124.5 38.5t-42.5 104.5q0 50 20 86.5t74 86.5q28 26 38.5 37t19 29.5t8.5 42.5q0 28 -9 55zM180 434
q0 27 15.5 41t37.5 14q21 0 36 -13.5t15 -41.5q0 -26 -15 -39.5t-38 -13.5q-20 0 -35.5 13t-15.5 40z" />
    <glyph glyph-name="Agrave" unicode="&#xc0;" horiz-adv-x="592" 
d="M76 0h-73l254 676h83l249 -676h-75l-80 211h-276zM176 273h241q-99 259 -119 325q-27 -80 -122 -325zM396 727h-71l-202 146h102z" />
    <glyph glyph-name="Aacute" unicode="&#xc1;" horiz-adv-x="592" 
d="M76 0h-73l254 676h83l249 -676h-75l-80 211h-276zM176 273h241q-99 259 -119 325q-27 -80 -122 -325zM270 727h-73l171 146h102z" />
    <glyph glyph-name="Acircumflex" unicode="&#xc2;" horiz-adv-x="592" 
d="M76 0h-73l254 676h83l249 -676h-75l-80 211h-276zM176 273h241q-99 259 -119 325q-27 -80 -122 -325zM203 727h-62l124 126h67l124 -126h-63l-95 75z" />
    <glyph glyph-name="Atilde" unicode="&#xc3;" horiz-adv-x="592" 
d="M74 0h-73l254 676h83l249 -676h-75l-80 211h-276zM174 273h241q-100 259 -119 325q-27 -80 -122 -325zM188 727h-49q12 51 35.5 77.5t53.5 26.5q29 0 74 -23q41 -19 60 -19q16 0 25 10.5t19 38.5h46q-21 -108 -88 -108q-27 0 -76 23q-41 20 -57 20q-14 0 -23.5 -10.5
t-19.5 -35.5z" />
    <glyph glyph-name="Adieresis" unicode="&#xc4;" horiz-adv-x="592" 
d="M76 0h-73l254 676h83l249 -676h-75l-80 211h-276zM176 273h241q-99 259 -119 325q-27 -80 -122 -325zM253 783q0 -41 -39 -41q-38 0 -38 41q0 42 39 42q38 0 38 -42zM425 783q0 -41 -39 -41q-38 0 -38 41q0 42 39 42q38 0 38 -42z" />
    <glyph glyph-name="Aring" unicode="&#xc5;" horiz-adv-x="592" 
d="M76 0h-73l254 676h83l249 -676h-75l-80 211h-276zM176 273h241q-99 259 -119 325q-27 -80 -122 -325zM382 798q0 -36 -24 -62.5t-61 -26.5t-61 25t-24 62q0 38 24.5 62.5t61.5 24.5q39 0 61.5 -23t22.5 -62zM349 797q0 25 -14.5 39.5t-37.5 14.5t-37 -15t-14 -40
t13.5 -40t39.5 -15q23 0 36.5 15.5t13.5 40.5z" />
    <glyph glyph-name="AE" unicode="&#xc6;" horiz-adv-x="939" 
d="M86 0h-86l442 676h433v-66h-322v-227h305v-66h-305v-250h353v-67h-422v211h-262zM261 277h223v341z" />
    <glyph glyph-name="Ccedilla" unicode="&#xc7;" horiz-adv-x="608" 
d="M250 -231l16 50q28 -8 58 -8q53 0 53 40t-57 40q-12 0 -37 -3l38 99q-120 7 -197 94.5t-77 234.5q0 175 87.5 274.5t234.5 99.5q113 0 198 -46l-35 -66q-71 44 -167 44q-102 0 -172 -74t-70 -228q0 -124 65.5 -195t165.5 -71q61 0 107 22t93 69l44 -50
q-102 -97 -228 -108l-20 -47q49 -4 70 -28t21 -57q0 -42 -32.5 -69t-90.5 -27q-38 0 -68 10z" />
    <glyph glyph-name="Egrave" unicode="&#xc8;" horiz-adv-x="545" 
d="M480 610h-321v-227h304v-66h-304v-250h352v-67h-422v676h391v-66zM366 727h-71l-202 146h102z" />
    <glyph glyph-name="Eacute" unicode="&#xc9;" horiz-adv-x="545" 
d="M480 610h-321v-227h304v-66h-304v-250h352v-67h-422v676h391v-66zM265 717h-73l171 146h102z" />
    <glyph glyph-name="Ecircumflex" unicode="&#xca;" horiz-adv-x="545" 
d="M480 610h-321v-227h304v-66h-304v-250h352v-67h-422v676h391v-66zM189 727h-62l124 126h67l124 -126h-63l-95 75z" />
    <glyph glyph-name="Edieresis" unicode="&#xcb;" horiz-adv-x="545" 
d="M480 610h-321v-227h304v-66h-304v-250h352v-67h-422v676h391v-66zM246 783q0 -41 -39 -41q-38 0 -38 41q0 42 39 42q38 0 38 -42zM418 783q0 -41 -39 -41q-38 0 -38 41q0 42 39 42q38 0 38 -42z" />
    <glyph glyph-name="Igrave" unicode="&#xcc;" horiz-adv-x="248" 
d="M159 0h-70v676h70v-676zM221 727h-71l-202 146h102z" />
    <glyph glyph-name="Iacute" unicode="&#xcd;" horiz-adv-x="248" 
d="M159 0h-70v676h70v-676zM87 717h-73l171 146h102z" />
    <glyph glyph-name="Icircumflex" unicode="&#xce;" horiz-adv-x="248" 
d="M159 0h-70v676h70v-676zM28 727h-62l124 126h67l124 -126h-63l-95 75z" />
    <glyph glyph-name="Idieresis" unicode="&#xcf;" horiz-adv-x="248" 
d="M159 0h-70v676h70v-676zM74 783q0 -41 -39 -41q-38 0 -38 41q0 42 39 42q38 0 38 -42zM246 783q0 -41 -39 -41q-38 0 -38 41q0 42 39 42q38 0 38 -42z" />
    <glyph glyph-name="Eth" unicode="&#xd0;" horiz-adv-x="673" 
d="M89 0v332h-70v58h70v283q112 6 183 6q118 0 186 -28q168 -68 168 -291q0 -269 -218 -335q-50 -15 -119 -19.5t-200 -5.5zM159 67q143 0 220 22q86 24 128.5 94t42.5 176q0 164 -113 225q-59 31 -169 31q-70 0 -109 -3v-222h206v-58h-206v-265z" />
    <glyph glyph-name="Ntilde" unicode="&#xd1;" horiz-adv-x="673" 
d="M159 0h-70v676h75q307 -482 353 -560q-3 147 -3 560h71v-676h-75l-353 560q2 -93 2 -560zM234 727h-49q12 51 35.5 77.5t53.5 26.5q29 0 74 -23q41 -19 60 -19q16 0 25 10.5t19 38.5h46q-21 -108 -88 -108q-27 0 -76 23q-41 20 -57 20q-14 0 -23.5 -10.5t-19.5 -35.5z
" />
    <glyph glyph-name="Ograve" unicode="&#xd2;" horiz-adv-x="714" 
d="M667 356q0 -169 -84 -269.5t-231 -100.5q-141 0 -223 93.5t-82 241.5q0 167 85 268t238 101q138 0 217.5 -92.5t79.5 -241.5zM591 337q0 58 -11.5 106.5t-37 90t-73 65t-113.5 23.5q-105 0 -169 -81.5t-64 -203.5q0 -141 63.5 -212t172.5 -71q102 0 167 77t65 206z
M449 727h-71l-202 146h102z" />
    <glyph glyph-name="Oacute" unicode="&#xd3;" horiz-adv-x="714" 
d="M667 356q0 -169 -84 -269.5t-231 -100.5q-141 0 -223 93.5t-82 241.5q0 167 85 268t238 101q138 0 217.5 -92.5t79.5 -241.5zM591 337q0 58 -11.5 106.5t-37 90t-73 65t-113.5 23.5q-105 0 -169 -81.5t-64 -203.5q0 -141 63.5 -212t172.5 -71q102 0 167 77t65 206z
M317 721h-73l171 146h102z" />
    <glyph glyph-name="Ocircumflex" unicode="&#xd4;" horiz-adv-x="714" 
d="M667 356q0 -169 -84 -269.5t-231 -100.5q-141 0 -223 93.5t-82 241.5q0 167 85 268t238 101q138 0 217.5 -92.5t79.5 -241.5zM591 337q0 58 -11.5 106.5t-37 90t-73 65t-113.5 23.5q-105 0 -169 -81.5t-64 -203.5q0 -141 63.5 -212t172.5 -71q102 0 167 77t65 206z
M254 727h-62l124 126h67l124 -126h-63l-95 75z" />
    <glyph glyph-name="Otilde" unicode="&#xd5;" horiz-adv-x="714" 
d="M667 356q0 -169 -84 -269.5t-231 -100.5q-141 0 -223 93.5t-82 241.5q0 167 85 268t238 101q138 0 217.5 -92.5t79.5 -241.5zM591 337q0 58 -11.5 106.5t-37 90t-73 65t-113.5 23.5q-105 0 -169 -81.5t-64 -203.5q0 -141 63.5 -212t172.5 -71q102 0 167 77t65 206z
M244 727h-49q12 51 35.5 77.5t53.5 26.5q29 0 74 -23q41 -19 60 -19q16 0 25 10.5t19 38.5h46q-21 -108 -88 -108q-27 0 -76 23q-41 20 -57 20q-14 0 -23.5 -10.5t-19.5 -35.5z" />
    <glyph glyph-name="Odieresis" unicode="&#xd6;" horiz-adv-x="714" 
d="M667 356q0 -169 -84 -269.5t-231 -100.5q-141 0 -223 93.5t-82 241.5q0 167 85 268t238 101q138 0 217.5 -92.5t79.5 -241.5zM591 337q0 58 -11.5 106.5t-37 90t-73 65t-113.5 23.5q-105 0 -169 -81.5t-64 -203.5q0 -141 63.5 -212t172.5 -71q102 0 167 77t65 206z
M308 783q0 -41 -39 -41q-38 0 -38 41q0 42 39 42q38 0 38 -42zM480 783q0 -41 -39 -41q-38 0 -38 41q0 42 39 42q38 0 38 -42z" />
    <glyph glyph-name="multiply" unicode="&#xd7;" horiz-adv-x="700" 
d="M562 122l-38 -40l-176 174l-173 -174l-37 38l175 175l-177 177l38 39l175 -178l178 177l37 -38l-178 -177z" />
    <glyph glyph-name="Oslash" unicode="&#xd8;" horiz-adv-x="714" 
d="M121 -46l-42 27l60 87q-92 92 -92 253q0 166 86.5 267.5t239.5 101.5q92 0 160 -43l52 77l42 -26l-55 -81q98 -93 98 -261t-85 -269t-233 -101q-102 0 -175 50zM593 337q0 142 -64 216l-311 -456q56 -43 143 -43q102 0 167 77t65 206zM124 337q0 -133 58 -205l309 454
q-53 36 -133 36q-105 0 -169.5 -81.5t-64.5 -203.5z" />
    <glyph glyph-name="Ugrave" unicode="&#xd9;" horiz-adv-x="661" 
d="M579 676v-397q0 -132 -31 -189q-56 -101 -219 -101q-170 0 -222 110q-25 52 -25 178v399h70v-394q0 -101 16 -141q31 -85 164 -85q121 0 156 78q20 39 20 143v399h71zM420 727h-71l-202 146h102z" />
    <glyph glyph-name="Uacute" unicode="&#xda;" horiz-adv-x="661" 
d="M579 676v-397q0 -132 -31 -189q-56 -101 -219 -101q-170 0 -222 110q-25 52 -25 178v399h70v-394q0 -101 16 -141q31 -85 164 -85q121 0 156 78q20 39 20 143v399h71zM307 717h-73l171 146h102z" />
    <glyph glyph-name="Ucircumflex" unicode="&#xdb;" horiz-adv-x="661" 
d="M579 676v-397q0 -132 -31 -189q-56 -101 -219 -101q-170 0 -222 110q-25 52 -25 178v399h70v-394q0 -101 16 -141q31 -85 164 -85q121 0 156 78q20 39 20 143v399h71zM232 727h-62l124 126h67l124 -126h-63l-95 75z" />
    <glyph glyph-name="Udieresis" unicode="&#xdc;" horiz-adv-x="661" 
d="M579 676v-397q0 -132 -31 -189q-56 -101 -219 -101q-170 0 -222 110q-25 52 -25 178v399h70v-394q0 -101 16 -141q31 -85 164 -85q121 0 156 78q20 39 20 143v399h71zM284 783q0 -41 -39 -41q-38 0 -38 41q0 42 39 42q38 0 38 -42zM456 783q0 -41 -39 -41q-38 0 -38 41
q0 42 39 42q38 0 38 -42z" />
    <glyph glyph-name="Yacute" unicode="&#xdd;" horiz-adv-x="567" 
d="M314 0h-70v270l-243 406h83q149 -245 199 -335q75 132 203 335h79l-251 -406v-270zM267 717h-73l171 146h102z" />
    <glyph glyph-name="Thorn" unicode="&#xde;" horiz-adv-x="579" 
d="M159 0h-70v676h70v-129q78 4 127 4q127 0 188 -42.5t61 -144.5q0 -73 -36 -125t-108 -71q-53 -16 -149 -16q-54 0 -83 1v-153zM159 215q10 0 27.5 -1t31.5 -1.5t26 -0.5q66 0 98 6q121 17 121 141q0 68 -42.5 98t-142.5 30q-88 0 -119 -3v-269z" />
    <glyph glyph-name="germandbls" unicode="&#xdf;" horiz-adv-x="531" 
d="M148 0h-67v448q0 128 35 181q62 94 173 94q83 0 119.5 -40.5t36.5 -92.5q0 -65 -71 -141q-47 -51 -47 -70q0 -17 34 -46q39 -31 86 -73q53 -49 53 -113q0 -74 -47.5 -115.5t-119.5 -41.5q-75 0 -144 37l32 60q47 -33 106 -33q47 0 74.5 21.5t27.5 63.5q0 43 -38 78
l-96 84q-38 32 -38 65t38 78q48 56 65 84.5t17 58.5q0 32 -21.5 54t-69.5 22q-67 0 -105 -55q-33 -47 -33 -145v-463z" />
    <glyph glyph-name="agrave" unicode="&#xe0;" horiz-adv-x="499" 
d="M420 0h-61l-3 82q-57 -92 -169 -92q-67 0 -107 39t-40 97q0 90 95 129q78 31 222 38v32q0 67 -20 91q-24 30 -83 30q-79 0 -169 -56l-26 52q106 63 209 63q89 0 126 -48q29 -38 29 -134q0 -14 -3 -323zM358 242q-143 -10 -202 -40q-49 -23 -49 -70q0 -36 25 -59t71 -23
q42 0 80 25.5t56 63.5q19 42 19 103zM324 560h-65l-147 152h90z" />
    <glyph glyph-name="aacute" unicode="&#xe1;" horiz-adv-x="499" 
d="M420 0h-61l-3 82q-57 -92 -169 -92q-67 0 -107 39t-40 97q0 90 95 129q78 31 222 38v32q0 67 -20 91q-24 30 -83 30q-79 0 -169 -56l-26 52q106 63 209 63q89 0 126 -48q29 -38 29 -134q0 -14 -3 -323zM358 242q-143 -10 -202 -40q-49 -23 -49 -70q0 -36 25 -59t71 -23
q42 0 80 25.5t56 63.5q19 42 19 103zM234 560h-63l121 152h91z" />
    <glyph glyph-name="acircumflex" unicode="&#xe2;" horiz-adv-x="499" 
d="M420 0h-61l-3 82q-57 -92 -169 -92q-67 0 -107 39t-40 97q0 90 95 129q78 31 222 38v32q0 67 -20 91q-24 30 -83 30q-79 0 -169 -56l-26 52q106 63 209 63q89 0 126 -48q29 -38 29 -134q0 -14 -3 -323zM358 242q-143 -10 -202 -40q-49 -23 -49 -70q0 -36 25 -59t71 -23
q42 0 80 25.5t56 63.5q19 42 19 103zM157 560h-61l118 149h62l115 -149h-62l-86 97z" />
    <glyph glyph-name="atilde" unicode="&#xe3;" horiz-adv-x="499" 
d="M420 0h-61l-3 82q-57 -92 -169 -92q-67 0 -107 39t-40 97q0 90 95 129q78 31 222 38v32q0 67 -20 91q-24 30 -83 30q-79 0 -169 -56l-26 52q106 63 209 63q89 0 126 -48q29 -38 29 -134q0 -14 -3 -323zM358 242q-143 -10 -202 -40q-49 -23 -49 -70q0 -36 25 -59t71 -23
q42 0 80 25.5t56 63.5q19 42 19 103zM143 569h-46q22 105 85 105q28 0 69 -23q35 -20 56 -20q14 0 23 10.5t19 38.5h44q-18 -108 -83 -108q-26 0 -72 23q-44 21 -54 21q-25 0 -41 -47z" />
    <glyph glyph-name="adieresis" unicode="&#xe4;" horiz-adv-x="499" 
d="M420 0h-61l-3 82q-57 -92 -169 -92q-67 0 -107 39t-40 97q0 90 95 129q78 31 222 38v32q0 67 -20 91q-24 30 -83 30q-79 0 -169 -56l-26 52q106 63 209 63q89 0 126 -48q29 -38 29 -134q0 -14 -3 -323zM358 242q-143 -10 -202 -40q-49 -23 -49 -70q0 -36 25 -59t71 -23
q42 0 80 25.5t56 63.5q19 42 19 103zM204 632q0 -41 -39 -41q-38 0 -38 41q0 42 39 42q38 0 38 -42zM366 632q0 -41 -39 -41q-38 0 -38 41q0 42 39 42q38 0 38 -42z" />
    <glyph glyph-name="aring" unicode="&#xe5;" horiz-adv-x="499" 
d="M420 0h-61l-3 82q-57 -92 -169 -92q-67 0 -107 39t-40 97q0 90 95 129q78 31 222 38v32q0 67 -20 91q-24 30 -83 30q-79 0 -169 -56l-26 52q106 63 209 63q89 0 126 -48q29 -38 29 -134q0 -14 -3 -323zM358 242q-143 -10 -202 -40q-49 -23 -49 -70q0 -36 25 -59t71 -23
q42 0 80 25.5t56 63.5q19 42 19 103zM337 637q0 -38 -25.5 -65t-64.5 -27t-64.5 26t-25.5 64q0 40 26 65t65 25q41 0 65 -23.5t24 -64.5zM303 636q0 26 -15.5 42t-40.5 16t-40 -16.5t-15 -42.5q0 -25 15 -41.5t42 -16.5q25 0 39.5 16.5t14.5 42.5z" />
    <glyph glyph-name="ae" unicode="&#xe6;" horiz-adv-x="822" 
d="M795 74q-99 -86 -213 -86q-135 0 -187 125q-30 -63 -82 -93t-112 -30q-68 0 -109 39t-41 98q0 92 95 129q80 29 221 39v27q0 65 -22 92q-25 31 -84 31q-81 0 -164 -56l-27 53q103 63 204 63q64 0 98 -25.5t45 -79.5q23 50 70 77.5t102 27.5q58 0 98.5 -19.5t61 -56
t29.5 -78t9 -95.5l-354 -12q0 -98 43 -146t122 -48q83 0 163 71zM436 297l282 12q-4 63 -32.5 100.5t-99.5 37.5q-56 0 -97 -36t-53 -114zM368 240q-143 -10 -200 -37q-50 -23 -50 -70q0 -38 25.5 -61.5t70.5 -23.5q40 0 74.5 23.5t56.5 60.5q23 39 23 108z" />
    <glyph glyph-name="ccedilla" unicode="&#xe7;" horiz-adv-x="464" 
d="M166 -221l15 48q27 -8 54 -8q50 0 50 38t-53 38q-22 0 -35 -2l35 95q-85 6 -138 70t-53 171q0 130 67.5 203t174.5 73q78 0 142 -34l-32 -58q-49 30 -109 30q-80 0 -127 -58t-47 -153q0 -88 42.5 -136t112.5 -48q75 0 151 69l34 -44q-72 -71 -169 -82l-20 -48
q46 -4 66 -27.5t20 -54.5q0 -41 -31 -67t-86 -26q-40 0 -64 11z" />
    <glyph glyph-name="egrave" unicode="&#xe8;" horiz-adv-x="503" 
d="M473 74q-95 -86 -210 -86q-103 0 -162.5 69.5t-59.5 181.5q0 127 68 196.5t163 69.5q57 0 96.5 -19.5t59.5 -56t28.5 -78.5t8.5 -96l-357 -13q1 -97 45.5 -145t123.5 -48q81 0 158 68zM397 307q-4 65 -31.5 103t-97.5 38q-57 0 -101.5 -37.5t-56.5 -115.5zM348 560h-65
l-147 152h90z" />
    <glyph glyph-name="eacute" unicode="&#xe9;" horiz-adv-x="503" 
d="M473 74q-95 -86 -210 -86q-103 0 -162.5 69.5t-59.5 181.5q0 127 68 196.5t163 69.5q57 0 96.5 -19.5t59.5 -56t28.5 -78.5t8.5 -96l-357 -13q1 -97 45.5 -145t123.5 -48q81 0 158 68zM397 307q-4 65 -31.5 103t-97.5 38q-57 0 -101.5 -37.5t-56.5 -115.5zM251 560h-63
l121 152h91z" />
    <glyph glyph-name="ecircumflex" unicode="&#xea;" horiz-adv-x="503" 
d="M473 74q-95 -86 -210 -86q-103 0 -162.5 69.5t-59.5 181.5q0 127 68 196.5t163 69.5q57 0 96.5 -19.5t59.5 -56t28.5 -78.5t8.5 -96l-357 -13q1 -97 45.5 -145t123.5 -48q81 0 158 68zM397 307q-4 65 -31.5 103t-97.5 38q-57 0 -101.5 -37.5t-56.5 -115.5zM166 560h-61
l118 149h62l115 -149h-62l-86 97z" />
    <glyph glyph-name="edieresis" unicode="&#xeb;" horiz-adv-x="503" 
d="M473 74q-95 -86 -210 -86q-103 0 -162.5 69.5t-59.5 181.5q0 127 68 196.5t163 69.5q57 0 96.5 -19.5t59.5 -56t28.5 -78.5t8.5 -96l-357 -13q1 -97 45.5 -145t123.5 -48q81 0 158 68zM397 307q-4 65 -31.5 103t-97.5 38q-57 0 -101.5 -37.5t-56.5 -115.5zM210 633
q0 -41 -39 -41q-38 0 -38 41q0 42 39 42q38 0 38 -42zM372 633q0 -41 -39 -41q-38 0 -38 41q0 42 39 42q38 0 38 -42z" />
    <glyph glyph-name="igrave" unicode="&#xec;" horiz-adv-x="230" 
d="M191 560h-65l-147 152h90zM148 0h-67v487l67 11v-498z" />
    <glyph glyph-name="iacute" unicode="&#xed;" horiz-adv-x="230" 
d="M96 560h-63l121 152h91zM148 0h-67v487l67 11v-498z" />
    <glyph glyph-name="icircumflex" unicode="&#xee;" horiz-adv-x="230" 
d="M148 0h-67v487l67 11v-498zM28 560h-61l118 149h62l115 -149h-62l-86 97z" />
    <glyph glyph-name="idieresis" unicode="&#xef;" horiz-adv-x="230" 
d="M72 633q0 -41 -39 -41q-38 0 -38 41q0 42 39 42q38 0 38 -42zM234 633q0 -41 -39 -41q-38 0 -38 41q0 42 39 42q38 0 38 -42zM148 0h-67v487l67 11v-498z" />
    <glyph glyph-name="eth" unicode="&#xf0;" horiz-adv-x="541" 
d="M185 522l-29 46l98 66q-49 32 -111 49l22 50q78 -19 142 -64l103 69l31 -45l-89 -60q146 -137 146 -374q0 -119 -58.5 -195t-177.5 -76q-101 0 -161 69.5t-60 179.5q0 118 63 190t171 72q85 0 127 -61q-34 98 -103 160zM428 242q0 87 -36 143.5t-121 56.5
q-72 0 -116 -55.5t-44 -131.5q0 -105 42 -155.5t117 -50.5q68 0 113 51.5t45 141.5z" />
    <glyph glyph-name="ntilde" unicode="&#xf1;" horiz-adv-x="554" 
d="M148 0h-67v487l67 12v-102q37 48 93 77.5t114 29.5q101 0 116 -84q5 -29 5 -124v-296h-67v289q0 82 -9 112q-13 40 -73 40q-37 0 -81 -25t-72 -63q-26 -37 -26 -114v-239zM178 569h-46q22 105 85 105q28 0 69 -23q35 -20 56 -20q14 0 23 10.5t19 38.5h44
q-18 -108 -83 -108q-26 0 -72 23q-44 21 -54 21q-25 0 -41 -47z" />
    <glyph glyph-name="ograve" unicode="&#xf2;" horiz-adv-x="539" 
d="M498 259q0 -124 -61.5 -197.5t-173.5 -73.5q-102 0 -162 69t-60 181q0 121 63.5 194t178.5 73q101 0 158 -68t57 -178zM428 242q0 204 -157 204q-73 0 -116.5 -57t-43.5 -134q0 -105 42.5 -156t116.5 -51q68 0 113 52t45 142zM331 560h-65l-147 152h90z" />
    <glyph glyph-name="oacute" unicode="&#xf3;" horiz-adv-x="539" 
d="M498 259q0 -124 -61.5 -197.5t-173.5 -73.5q-102 0 -162 69t-60 181q0 121 63.5 194t178.5 73q101 0 158 -68t57 -178zM428 242q0 204 -157 204q-73 0 -116.5 -57t-43.5 -134q0 -105 42.5 -156t116.5 -51q68 0 113 52t45 142zM259 560h-63l121 152h91z" />
    <glyph glyph-name="ocircumflex" unicode="&#xf4;" horiz-adv-x="539" 
d="M498 259q0 -124 -61.5 -197.5t-173.5 -73.5q-102 0 -162 69t-60 181q0 121 63.5 194t178.5 73q101 0 158 -68t57 -178zM428 242q0 204 -157 204q-73 0 -116.5 -57t-43.5 -134q0 -105 42.5 -156t116.5 -51q68 0 113 52t45 142zM181 560h-61l118 149h62l115 -149h-62
l-86 97z" />
    <glyph glyph-name="otilde" unicode="&#xf5;" horiz-adv-x="539" 
d="M498 259q0 -124 -61.5 -197.5t-173.5 -73.5q-102 0 -162 69t-60 181q0 121 63.5 194t178.5 73q101 0 158 -68t57 -178zM428 242q0 204 -157 204q-73 0 -116.5 -57t-43.5 -134q0 -105 42.5 -156t116.5 -51q68 0 113 52t45 142zM166 569h-46q22 105 85 105q28 0 69 -23
q35 -20 56 -20q14 0 23 10.5t19 38.5h44q-18 -108 -83 -108q-26 0 -72 23q-43 21 -54 21q-25 0 -41 -47z" />
    <glyph glyph-name="odieresis" unicode="&#xf6;" horiz-adv-x="539" 
d="M498 259q0 -124 -61.5 -197.5t-173.5 -73.5q-102 0 -162 69t-60 181q0 121 63.5 194t178.5 73q101 0 158 -68t57 -178zM428 242q0 204 -157 204q-73 0 -116.5 -57t-43.5 -134q0 -105 42.5 -156t116.5 -51q68 0 113 52t45 142zM225 633q0 -41 -39 -41q-38 0 -38 41
q0 42 39 42q38 0 38 -42zM387 633q0 -41 -39 -41q-38 0 -38 41q0 42 39 42q38 0 38 -42z" />
    <glyph glyph-name="divide" unicode="&#xf7;" horiz-adv-x="700" 
d="M392 454q0 -40 -39 -40q-37 0 -37 40q0 42 39 42q37 0 37 -42zM610 269h-520v53h520v-53zM392 130q0 -41 -39 -41q-37 0 -37 41q0 42 39 42q37 0 37 -42z" />
    <glyph glyph-name="oslash" unicode="&#xf8;" horiz-adv-x="539" 
d="M98 -44l-39 25l47 70q-65 68 -65 187q0 121 63.5 194t178.5 73q64 0 111 -29l49 72l39 -24l-52 -76q68 -68 68 -189q0 -124 -61.5 -197.5t-173.5 -73.5q-69 0 -121 33zM428 242q0 98 -37 148l-213 -315q36 -27 92 -27q68 0 113 52t45 142zM111 255q0 -94 35 -146l212 314
q-36 23 -87 23q-73 0 -116.5 -57t-43.5 -134z" />
    <glyph glyph-name="ugrave" unicode="&#xf9;" horiz-adv-x="561" 
d="M471 0h-68v88q-78 -99 -190 -99q-54 0 -88 25t-42 68q-7 42 -7 117v293h67v-283q0 -87 12 -116q18 -42 82 -42q38 0 79 24.5t63 61.5q24 40 24 119v236h68v-492zM344 560h-65l-147 152h90z" />
    <glyph glyph-name="uacute" unicode="&#xfa;" horiz-adv-x="561" 
d="M471 0h-68v88q-78 -99 -190 -99q-54 0 -88 25t-42 68q-7 42 -7 117v293h67v-283q0 -87 12 -116q18 -42 82 -42q38 0 79 24.5t63 61.5q24 40 24 119v236h68v-492zM273 560h-63l121 152h91z" />
    <glyph glyph-name="ucircumflex" unicode="&#xfb;" horiz-adv-x="561" 
d="M471 0h-68v88q-78 -99 -190 -99q-54 0 -88 25t-42 68q-7 42 -7 117v293h67v-283q0 -87 12 -116q18 -42 82 -42q38 0 79 24.5t63 61.5q24 40 24 119v236h68v-492zM191 560h-61l118 149h62l115 -149h-62l-86 97z" />
    <glyph glyph-name="udieresis" unicode="&#xfc;" horiz-adv-x="561" 
d="M471 0h-68v88q-78 -99 -190 -99q-54 0 -88 25t-42 68q-7 42 -7 117v293h67v-283q0 -87 12 -116q18 -42 82 -42q38 0 79 24.5t63 61.5q24 40 24 119v236h68v-492zM233 633q0 -41 -39 -41q-38 0 -38 41q0 42 39 42q38 0 38 -42zM395 633q0 -41 -39 -41q-38 0 -38 41
q0 42 39 42q38 0 38 -42z" />
    <glyph glyph-name="yacute" unicode="&#xfd;" horiz-adv-x="456" 
d="M18 -240l-20 63q68 21 116 62t81 123l-192 484h77q109 -276 155 -407q39 116 148 407h72l-163 -435q-29 -77 -58.5 -129t-64.5 -84.5t-68.5 -50.5t-82.5 -33zM246 560h-63l121 152h91z" />
    <glyph glyph-name="thorn" unicode="&#xfe;" horiz-adv-x="553" 
d="M148 -229h-67v942l67 12v-338q25 47 76 82t114 35q84 0 129 -61t45 -180q0 -136 -62.5 -203.5t-154.5 -67.5q-94 0 -147 64v-285zM147 207q0 -63 16 -91q15 -29 48 -47.5t73 -18.5q66 0 112 51t46 153q0 188 -127 188q-56 0 -97.5 -37t-55.5 -78q-15 -43 -15 -120z" />
    <glyph glyph-name="ydieresis" unicode="&#xff;" horiz-adv-x="456" 
d="M18 -240l-20 63q68 21 116 62t81 123l-192 484h77q109 -276 155 -407q39 116 148 407h72l-163 -435q-29 -77 -58.5 -129t-64.5 -84.5t-68.5 -50.5t-82.5 -33zM191 633q0 -41 -39 -41q-38 0 -38 41q0 42 39 42q38 0 38 -42zM353 633q0 -41 -39 -41q-38 0 -38 41
q0 42 39 42q38 0 38 -42z" />
    <glyph glyph-name="Amacron" unicode="&#x100;" horiz-adv-x="592" 
d="M74 0h-73l254 676h83l249 -676h-75l-80 211h-276zM174 273h241q-100 259 -119 325q-27 -80 -122 -325zM438 748h-285v55h285v-55z" />
    <glyph glyph-name="amacron" unicode="&#x101;" horiz-adv-x="499" 
d="M420 0h-61l-3 82q-57 -92 -169 -92q-67 0 -107 39t-40 97q0 90 95 129q78 31 222 38v32q0 67 -20 91q-24 30 -83 30q-79 0 -169 -56l-26 52q106 63 209 63q89 0 126 -48q29 -38 29 -134q0 -14 -3 -323zM358 242q-143 -10 -202 -40q-49 -23 -49 -70q0 -36 25 -59t71 -23
q42 0 80 25.5t56 63.5q19 42 19 103zM389 584h-279v54h279v-54z" />
    <glyph glyph-name="Abreve" unicode="&#x102;" horiz-adv-x="592" 
d="M74 0h-73l254 676h83l249 -676h-75l-80 211h-276zM174 273h241q-100 259 -119 325q-27 -80 -122 -325zM432 857q-1 -57 -39 -95t-101 -38q-64 0 -99 38t-35 95h49q9 -79 86 -79q82 0 89 79h50z" />
    <glyph glyph-name="abreve" unicode="&#x103;" horiz-adv-x="499" 
d="M420 0h-61l-3 82q-57 -92 -169 -92q-67 0 -107 39t-40 97q0 90 95 129q78 31 222 38v32q0 67 -20 91q-24 30 -83 30q-79 0 -169 -56l-26 52q106 63 209 63q89 0 126 -48q29 -38 29 -134q0 -14 -3 -323zM358 242q-143 -10 -202 -40q-49 -23 -49 -70q0 -36 25 -59t71 -23
q42 0 80 25.5t56 63.5q19 42 19 103zM368 694q-1 -58 -36.5 -95.5t-95.5 -37.5q-61 0 -94 38t-33 95h46q7 -79 82 -79q78 0 85 79h46z" />
    <glyph glyph-name="Aogonek" unicode="&#x104;" horiz-adv-x="592" 
d="M76 0h-73l254 676h83l249 -676h-17q-98 -72 -98 -131q0 -26 15.5 -40t39.5 -14q28 0 55 12l17 -47q-37 -21 -82 -21q-49 0 -78 27t-29 68q0 82 101 147l-79 210h-276zM176 273h241q-99 259 -119 325q-27 -80 -122 -325z" />
    <glyph glyph-name="aogonek" unicode="&#x105;" horiz-adv-x="499" 
d="M420 0h-13q-93 -70 -93 -126q0 -25 15 -38.5t37 -13.5q26 0 53 12l15 -45q-36 -22 -77 -22q-48 0 -75 26t-27 67q0 83 104 146l-3 76q-57 -92 -169 -92q-67 0 -107 39t-40 97q0 90 95 129q78 31 222 38v32q0 67 -20 91q-24 30 -83 30q-79 0 -169 -56l-26 52
q106 63 209 63q89 0 126 -48q29 -38 29 -134q0 -14 -3 -323zM358 242q-143 -10 -202 -40q-49 -23 -49 -70q0 -36 25 -59t71 -23q42 0 80 25.5t56 63.5q19 42 19 103z" />
    <glyph glyph-name="Cacute" unicode="&#x106;" horiz-adv-x="608" 
d="M598 95q-114 -109 -258 -109q-127 0 -210 88.5t-83 241.5q0 175 87.5 274.5t234.5 99.5q113 0 198 -46l-35 -66q-71 44 -167 44q-102 0 -172 -74t-70 -228q0 -124 65.5 -195t165.5 -71q61 0 107 22t93 69zM323 718h-73l171 146h102z" />
    <glyph glyph-name="cacute" unicode="&#x107;" horiz-adv-x="464" 
d="M450 73q-87 -85 -200 -85q-92 0 -150.5 64t-58.5 177q0 130 67.5 203t174.5 73q78 0 142 -34l-32 -58q-49 30 -109 30q-80 0 -127 -58t-47 -153q0 -88 42.5 -136t112.5 -48q75 0 151 69zM257 560h-63l121 152h91z" />
    <glyph glyph-name="Ccircumflex" unicode="&#x108;" horiz-adv-x="608" 
d="M598 95q-114 -109 -258 -109q-127 0 -210 88.5t-83 241.5q0 175 87.5 274.5t234.5 99.5q113 0 198 -46l-35 -66q-71 44 -167 44q-102 0 -172 -74t-70 -228q0 -124 65.5 -195t165.5 -71q61 0 107 22t93 69zM253 727h-62l124 126h67l124 -126h-63l-95 75z" />
    <glyph glyph-name="ccircumflex" unicode="&#x109;" horiz-adv-x="464" 
d="M450 73q-87 -85 -200 -85q-92 0 -150.5 64t-58.5 177q0 130 67.5 203t174.5 73q78 0 142 -34l-32 -58q-49 30 -109 30q-80 0 -127 -58t-47 -153q0 -88 42.5 -136t112.5 -48q75 0 151 69zM174 560h-61l118 149h62l115 -149h-62l-86 97z" />
    <glyph glyph-name="Cdotaccent" unicode="&#x10a;" horiz-adv-x="608" 
d="M598 95q-114 -109 -258 -109q-127 0 -210 88.5t-83 241.5q0 175 87.5 274.5t234.5 99.5q113 0 198 -46l-35 -66q-71 44 -167 44q-102 0 -172 -74t-70 -228q0 -124 65.5 -195t165.5 -71q61 0 107 22t93 69zM378 783q0 -41 -39 -41q-38 0 -38 41q0 42 39 42q38 0 38 -42z
" />
    <glyph glyph-name="cdotaccent" unicode="&#x10b;" horiz-adv-x="464" 
d="M450 73q-87 -85 -200 -85q-92 0 -150.5 64t-58.5 177q0 130 67.5 203t174.5 73q78 0 142 -34l-32 -58q-49 30 -109 30q-80 0 -127 -58t-47 -153q0 -88 42.5 -136t112.5 -48q75 0 151 69zM297 633q0 -41 -39 -41q-38 0 -38 41q0 42 39 42q38 0 38 -42z" />
    <glyph glyph-name="Ccaron" unicode="&#x10c;" horiz-adv-x="608" 
d="M598 95q-114 -109 -258 -109q-127 0 -210 88.5t-83 241.5q0 175 87.5 274.5t234.5 99.5q113 0 198 -46l-35 -66q-71 44 -167 44q-102 0 -172 -74t-70 -228q0 -124 65.5 -195t165.5 -71q61 0 107 22t93 69zM445 853h62l-124 -126h-67l-124 126h63l95 -75z" />
    <glyph glyph-name="ccaron" unicode="&#x10d;" horiz-adv-x="464" 
d="M450 73q-87 -85 -200 -85q-92 0 -150.5 64t-58.5 177q0 130 67.5 203t174.5 73q78 0 142 -34l-32 -58q-49 30 -109 30q-80 0 -127 -58t-47 -153q0 -88 42.5 -136t112.5 -48q75 0 151 69zM339 704h61l-118 -150h-62l-115 150h62l86 -97z" />
    <glyph glyph-name="Dcaron" unicode="&#x10e;" horiz-adv-x="673" 
d="M89 0v673q112 6 183 6q118 0 186 -28q168 -68 168 -291q0 -269 -218 -335q-50 -15 -119 -19.5t-200 -5.5zM159 68q145 0 220 23q171 48 171 268q0 163 -113 224q-57 30 -169 30q-70 0 -109 -3v-542zM391 853h62l-124 -126h-67l-124 126h63l95 -75z" />
    <glyph glyph-name="dcaron" unicode="&#x10f;" horiz-adv-x="553" 
d="M472 0h-64l-3 85q-62 -94 -179 -94q-82 0 -133.5 62.5t-51.5 176.5q0 131 63.5 202t153.5 71q98 0 146 -56v266l68 12v-725zM405 262q0 87 -16 117q-17 29 -48 48t-71 19q-67 0 -113 -56.5t-46 -151.5q0 -99 38.5 -143.5t97.5 -44.5q56 0 94 37t51 77q13 41 13 98z
M627 733q-9 -89 -58 -192h-53q32 85 43 192h68z" />
    <glyph glyph-name="Dcroat" unicode="&#x110;" horiz-adv-x="673" 
d="M89 0v332h-70v58h70v283q112 6 183 6q118 0 186 -28q168 -68 168 -291q0 -269 -218 -335q-50 -15 -119 -19.5t-200 -5.5zM159 67q143 0 220 22q86 24 128.5 94t42.5 176q0 164 -113 225q-59 31 -169 31q-70 0 -109 -3v-222h206v-58h-206v-265z" />
    <glyph glyph-name="dcroat" unicode="&#x111;" horiz-adv-x="553" 
d="M472 0h-64l-3 85q-62 -94 -179 -94q-82 0 -133.5 62.5t-51.5 176.5q0 131 63.5 202t153.5 71q98 0 146 -56v121h-162v56h162v89l68 12v-101h64v-56h-64v-568zM405 262q0 87 -16 117q-17 29 -48 48t-71 19q-67 0 -113 -56.5t-46 -151.5q0 -99 38.5 -143.5t97.5 -44.5
q56 0 94 37t51 77q13 41 13 98z" />
    <glyph glyph-name="Emacron" unicode="&#x112;" horiz-adv-x="545" 
d="M480 610h-321v-227h304v-66h-304v-250h352v-67h-422v676h391v-66zM428 748h-285v55h285v-55z" />
    <glyph glyph-name="emacron" unicode="&#x113;" horiz-adv-x="503" 
d="M473 74q-95 -86 -210 -86q-103 0 -162.5 69.5t-59.5 181.5q0 127 68 196.5t163 69.5q57 0 96.5 -19.5t59.5 -56t28.5 -78.5t8.5 -96l-357 -13q1 -97 45.5 -145t123.5 -48q81 0 158 68zM397 307q-4 65 -31.5 103t-97.5 38q-57 0 -101.5 -37.5t-56.5 -115.5zM401 584h-279
v54h279v-54z" />
    <glyph glyph-name="Ebreve" unicode="&#x114;" horiz-adv-x="545" 
d="M480 610h-321v-227h304v-66h-304v-250h352v-67h-422v676h391v-66zM426 857q-1 -57 -39 -95t-101 -38q-64 0 -99 38t-35 95h49q9 -79 86 -79q82 0 89 79h50z" />
    <glyph glyph-name="ebreve" unicode="&#x115;" horiz-adv-x="503" 
d="M473 74q-95 -86 -210 -86q-103 0 -162.5 69.5t-59.5 181.5q0 127 68 196.5t163 69.5q57 0 96.5 -19.5t59.5 -56t28.5 -78.5t8.5 -96l-357 -13q1 -97 45.5 -145t123.5 -48q81 0 158 68zM397 307q-4 65 -31.5 103t-97.5 38q-57 0 -101.5 -37.5t-56.5 -115.5zM386 694
q-1 -58 -36.5 -95.5t-95.5 -37.5q-61 0 -94 38t-33 95h46q7 -79 82 -79q78 0 85 79h46z" />
    <glyph glyph-name="Edotaccent" unicode="&#x116;" horiz-adv-x="545" 
d="M480 610h-321v-227h304v-66h-304v-250h352v-67h-422v676h391v-66zM328 783q0 -41 -39 -41q-38 0 -38 41q0 42 39 42q38 0 38 -42z" />
    <glyph glyph-name="edotaccent" unicode="&#x117;" horiz-adv-x="503" 
d="M473 74q-95 -86 -210 -86q-103 0 -162.5 69.5t-59.5 181.5q0 127 68 196.5t163 69.5q57 0 96.5 -19.5t59.5 -56t28.5 -78.5t8.5 -96l-357 -13q1 -97 45.5 -145t123.5 -48q81 0 158 68zM397 307q-4 65 -31.5 103t-97.5 38q-57 0 -101.5 -37.5t-56.5 -115.5zM300 633
q0 -41 -39 -41q-38 0 -38 41q0 42 39 42q38 0 38 -42z" />
    <glyph glyph-name="Eogonek" unicode="&#x118;" horiz-adv-x="545" 
d="M480 610h-321v-227h304v-66h-304v-250h352v-67h-29q-98 -72 -98 -131q0 -26 15.5 -40t39.5 -14q28 0 55 12l17 -47q-37 -21 -82 -21q-49 0 -78 27t-29 68q0 81 99 146h-332v676h391v-66z" />
    <glyph glyph-name="eogonek" unicode="&#x119;" horiz-adv-x="503" 
d="M473 74q-65 -59 -129 -75q-91 -69 -91 -125q0 -25 15 -38.5t37 -13.5q26 0 53 12l15 -45q-36 -22 -77 -22q-48 0 -75 26t-27 67q0 71 77 128h-8q-103 0 -162.5 69.5t-59.5 181.5q0 127 68 196.5t163 69.5q57 0 96.5 -19.5t59.5 -56t28.5 -78.5t8.5 -96l-357 -13
q1 -97 45.5 -145t123.5 -48q81 0 158 68zM397 307q-4 65 -31.5 103t-97.5 38q-57 0 -101.5 -37.5t-56.5 -115.5z" />
    <glyph glyph-name="Ecaron" unicode="&#x11a;" horiz-adv-x="545" 
d="M480 610h-321v-227h304v-66h-304v-250h352v-67h-422v676h391v-66zM384 853h62l-124 -126h-67l-124 126h63l95 -75z" />
    <glyph glyph-name="ecaron" unicode="&#x11b;" horiz-adv-x="503" 
d="M473 74q-95 -86 -210 -86q-103 0 -162.5 69.5t-59.5 181.5q0 127 68 196.5t163 69.5q57 0 96.5 -19.5t59.5 -56t28.5 -78.5t8.5 -96l-357 -13q1 -97 45.5 -145t123.5 -48q81 0 158 68zM397 307q-4 65 -31.5 103t-97.5 38q-57 0 -101.5 -37.5t-56.5 -115.5zM344 704h61
l-118 -150h-62l-115 150h62l86 -97z" />
    <glyph glyph-name="Gcircumflex" unicode="&#x11c;" horiz-adv-x="688" 
d="M608 0h-64v89q-69 -101 -213 -101q-127 0 -205.5 87.5t-78.5 240.5q0 175 88 274.5t235 99.5q120 0 209 -48l-36 -66q-77 46 -176 46q-108 0 -176 -78t-68 -224q0 -125 62.5 -194.5t157.5 -69.5q64 0 111 30t69 77q17 40 17 100v21h-164v66h232v-350zM257 727h-62
l124 126h67l124 -126h-63l-95 75z" />
    <glyph glyph-name="gcircumflex" unicode="&#x11d;" horiz-adv-x="496" 
d="M124 14q-46 9 -69 34t-23 58q0 62 79 110q-45 45 -45 120q0 74 50 121.5t139 47.5q41 0 78 -13h153v-59h-84q32 -36 32 -93q0 -80 -51.5 -125.5t-137.5 -45.5q-52 0 -86 17q-25 -9 -42 -26.5t-17 -37.5q0 -54 84 -54q29 0 85.5 1t71.5 1q144 0 144 -112
q0 -89 -76.5 -145.5t-189.5 -56.5q-96 0 -144 36.5t-48 92.5q0 81 97 129zM414 -64q0 40 -22 55t-91 15t-85 -3q-45 -8 -74 -28q-47 -34 -47 -75q0 -43 37.5 -63.5t98.5 -20.5q77 0 130 37.5t53 82.5zM366 338q0 110 -115 110q-55 0 -85.5 -31t-30.5 -79q0 -57 31 -85.5
t81 -28.5q53 0 86 29.5t33 84.5zM168 560h-61l118 149h62l115 -149h-62l-86 97z" />
    <glyph glyph-name="Gbreve" unicode="&#x11e;" horiz-adv-x="688" 
d="M608 0h-64v89q-69 -101 -213 -101q-127 0 -205.5 87.5t-78.5 240.5q0 175 88 274.5t235 99.5q120 0 209 -48l-36 -66q-77 46 -176 46q-108 0 -176 -78t-68 -224q0 -125 62.5 -194.5t157.5 -69.5q64 0 111 30t69 77q17 40 17 100v21h-164v66h232v-350zM495 857
q-1 -57 -39 -95t-101 -38q-64 0 -99 38t-35 95h49q9 -79 86 -79q82 0 89 79h50z" />
    <glyph glyph-name="gbreve" unicode="&#x11f;" horiz-adv-x="496" 
d="M124 14q-46 9 -69 34t-23 58q0 62 79 110q-45 45 -45 120q0 74 50 121.5t139 47.5q41 0 78 -13h153v-59h-84q32 -36 32 -93q0 -80 -51.5 -125.5t-137.5 -45.5q-52 0 -86 17q-25 -9 -42 -26.5t-17 -37.5q0 -54 84 -54q29 0 85.5 1t71.5 1q144 0 144 -112
q0 -89 -76.5 -145.5t-189.5 -56.5q-96 0 -144 36.5t-48 92.5q0 81 97 129zM414 -64q0 40 -22 55t-91 15t-85 -3q-45 -8 -74 -28q-47 -34 -47 -75q0 -43 37.5 -63.5t98.5 -20.5q77 0 130 37.5t53 82.5zM366 338q0 110 -115 110q-55 0 -85.5 -31t-30.5 -79q0 -57 31 -85.5
t81 -28.5q53 0 86 29.5t33 84.5zM383 694q-1 -58 -36.5 -95.5t-95.5 -37.5q-61 0 -94 38t-33 95h46q7 -79 82 -79q78 0 85 79h46z" />
    <glyph glyph-name="Gdotaccent" unicode="&#x120;" horiz-adv-x="688" 
d="M608 0h-64v89q-69 -101 -213 -101q-127 0 -205.5 87.5t-78.5 240.5q0 175 88 274.5t235 99.5q120 0 209 -48l-36 -66q-77 46 -176 46q-108 0 -176 -78t-68 -224q0 -125 62.5 -194.5t157.5 -69.5q64 0 111 30t69 77q17 40 17 100v21h-164v66h232v-350zM390 783
q0 -41 -39 -41q-38 0 -38 41q0 42 39 42q38 0 38 -42z" />
    <glyph glyph-name="gdotaccent" unicode="&#x121;" horiz-adv-x="496" 
d="M124 14q-46 9 -69 34t-23 58q0 62 79 110q-45 45 -45 120q0 74 50 121.5t139 47.5q41 0 78 -13h153v-59h-84q32 -36 32 -93q0 -80 -51.5 -125.5t-137.5 -45.5q-52 0 -86 17q-25 -9 -42 -26.5t-17 -37.5q0 -54 84 -54q29 0 85.5 1t71.5 1q144 0 144 -112
q0 -89 -76.5 -145.5t-189.5 -56.5q-96 0 -144 36.5t-48 92.5q0 81 97 129zM414 -64q0 40 -22 55t-91 15t-85 -3q-45 -8 -74 -28q-47 -34 -47 -75q0 -43 37.5 -63.5t98.5 -20.5q77 0 130 37.5t53 82.5zM366 338q0 110 -115 110q-55 0 -85.5 -31t-30.5 -79q0 -57 31 -85.5
t81 -28.5q53 0 86 29.5t33 84.5zM291 633q0 -41 -39 -41q-38 0 -38 41q0 42 39 42q38 0 38 -42z" />
    <glyph glyph-name="Gcommaaccent" unicode="&#x122;" horiz-adv-x="688" 
d="M608 0h-64v89q-69 -101 -213 -101q-127 0 -205.5 87.5t-78.5 240.5q0 175 88 274.5t235 99.5q120 0 209 -48l-36 -66q-77 46 -176 46q-108 0 -176 -78t-68 -224q0 -125 62.5 -194.5t157.5 -69.5q64 0 111 30t69 77q17 40 17 100v21h-164v66h232v-350zM396 -54
q-9 -93 -58 -193h-53q33 86 43 193h68z" />
    <glyph glyph-name="gcommaaccent" unicode="&#x123;" horiz-adv-x="496" 
d="M128 14q-45 5 -69.5 30.5t-24.5 58.5q0 34 18.5 59.5t63.5 53.5q-50 39 -50 120q0 74 50 121.5t140 47.5q43 0 79 -13h155v-57h-90q38 -35 38 -93q0 -81 -53.5 -126t-140.5 -45q-48 0 -88 20q-26 -10 -42 -28.5t-16 -40.5q0 -54 86 -54q29 0 91.5 1t75.5 1
q142 0 142 -112q0 -90 -77 -146t-197 -56q-99 0 -147 36t-48 93q0 82 104 129zM419 -64q0 40 -22.5 55t-91.5 15q-81 0 -98 -3q-42 -7 -70 -28q-47 -36 -47 -75q0 -46 39 -68t102 -22q83 0 135.5 38.5t52.5 87.5zM372 338q0 53 -29 84t-91 31q-56 0 -87.5 -33t-31.5 -82
q0 -56 32 -86t83 -30q55 0 89.5 30.5t34.5 85.5zM218 568q11 95 55 183h45q-33 -77 -44 -183h-56z" />
    <glyph glyph-name="Hcircumflex" unicode="&#x124;" horiz-adv-x="673" 
d="M264 0h-70v676h70v-293h355v293h70v-676h-70v317h-355v-317zM347 727h-62l124 126h67l124 -126h-63l-95 75z" />
    <glyph glyph-name="hcircumflex" unicode="&#x125;" horiz-adv-x="561" 
d="M148 0h-67v714l67 11v-329q35 48 92.5 78t115.5 30q52 0 79.5 -20t35.5 -63q5 -28 5 -124v-297h-67v288q0 86 -9 114q-14 39 -71 39q-38 0 -82.5 -24.5t-72.5 -62.5q-26 -35 -26 -114v-240zM26 734h-62l124 126h67l124 -126h-63l-95 75z" />
    <glyph glyph-name="Hbar" unicode="&#x126;" horiz-adv-x="673" 
d="M658 481h-74v-481h-70v316h-355v-316h-70v481h-77v58h77v137h70v-137h355v137h70v-137h74v-58zM159 385h355v96h-355v-96z" />
    <glyph glyph-name="hbar" unicode="&#x127;" horiz-adv-x="561" 
d="M148 0h-67v568h-70v56h70v90l67 11v-101h157v-56h-157v-172q35 48 92.5 78t115.5 30q52 0 79.5 -20t35.5 -63q5 -28 5 -124v-297h-67v288q0 86 -9 114q-14 39 -71 39q-38 0 -82.5 -24.5t-72.5 -62.5q-26 -35 -26 -114v-240z" />
    <glyph glyph-name="Itilde" unicode="&#x128;" horiz-adv-x="248" 
d="M159 0h-70v676h70v-676zM15 727h-49q12 51 35.5 77.5t53.5 26.5q29 0 74 -23q41 -19 60 -19q16 0 25 10.5t19 38.5h46q-21 -108 -88 -108q-27 0 -76 23q-41 20 -57 20q-14 0 -23.5 -10.5t-19.5 -35.5z" />
    <glyph glyph-name="itilde" unicode="&#x129;" horiz-adv-x="230" 
d="M12 569h-46q23 105 85 105q28 0 69 -23q35 -20 56 -20q14 0 23 10.5t19 38.5h44q-18 -108 -83 -108q-26 0 -72 23q-44 21 -54 21q-25 0 -41 -47zM148 0h-67v487l67 11v-498z" />
    <glyph glyph-name="Imacron" unicode="&#x12a;" horiz-adv-x="248" 
d="M159 0h-70v676h70v-676zM250 747h-253v53h253v-53z" />
    <glyph glyph-name="imacron" unicode="&#x12b;" horiz-adv-x="230" 
d="M236 584h-243v54h243v-54zM148 0h-67v487l67 11v-498z" />
    <glyph glyph-name="Ibreve" unicode="&#x12c;" horiz-adv-x="248" 
d="M159 0h-70v676h70v-676zM261 857q-1 -57 -39 -95t-101 -38q-64 0 -99 38t-35 95h49q9 -79 86 -79q82 0 89 79h50z" />
    <glyph glyph-name="ibreve" unicode="&#x12d;" horiz-adv-x="230" 
d="M148 0h-67v487l67 11v-498zM244 694q-1 -58 -36.5 -95.5t-95.5 -37.5q-61 0 -94 38t-33 95h46q7 -79 82 -79q78 0 85 79h46z" />
    <glyph glyph-name="Iogonek" unicode="&#x12e;" horiz-adv-x="248" 
d="M159 0h-10q-98 -72 -98 -131q0 -26 15.5 -40t39.5 -14q28 0 55 12l17 -47q-37 -21 -82 -21q-49 0 -78 27t-29 68q0 83 100 146v676h70v-676z" />
    <glyph glyph-name="iogonek" unicode="&#x12f;" horiz-adv-x="230" 
d="M148 0h-10q-93 -70 -93 -126q0 -25 15 -38.5t37 -13.5q26 0 53 12l15 -45q-36 -22 -77 -22q-48 0 -75 26t-27 67q0 79 95 140v487l67 11v-498zM156 638q0 -43 -42 -43q-41 0 -41 43t42 43q41 0 41 -43z" />
    <glyph glyph-name="Idotaccent" unicode="&#x130;" horiz-adv-x="248" 
d="M159 0h-70v676h70v-676zM160 783q0 -41 -39 -41q-38 0 -38 41q0 42 39 42q38 0 38 -42z" />
    <glyph glyph-name="dotlessi" unicode="&#x131;" horiz-adv-x="230" 
d="M148 0h-67v487l67 11v-498z" />
    <glyph glyph-name="IJ" unicode="&#x132;" horiz-adv-x="622" 
d="M159 0h-70v676h70v-676zM248 6l19 67q56 -18 89 -18q68 0 95 50q16 32 16 123v448h71v-447q0 -111 -21 -157q-37 -84 -152 -84q-71 0 -117 18z" />
    <glyph glyph-name="ij" unicode="&#x133;" horiz-adv-x="464" 
d="M148 0h-67v487l67 11v-498zM156 638q0 -43 -42 -43q-41 0 -41 43t42 43q41 0 41 -43zM190 -241l-12 58q51 11 78 26t39 40q15 31 15 100v504l67 11v-504q0 -95 -19 -136q-35 -77 -168 -99zM385 638q0 -43 -42 -43q-41 0 -41 43t42 43q41 0 41 -43z" />
    <glyph glyph-name="Jcircumflex" unicode="&#x134;" horiz-adv-x="375" 
d="M1 6l19 67q56 -18 89 -18q68 0 95 50q16 32 16 123v448h71v-447q0 -111 -21 -157q-37 -84 -152 -84q-70 0 -117 18zM158 727h-62l124 126h67l124 -126h-63l-95 75z" />
    <glyph glyph-name="jcircumflex" unicode="&#x135;" horiz-adv-x="234" 
d="M-39 -241l-10 56q51 10 77 24.5t38 41.5q15 31 15 99v507l67 11v-504q0 -92 -19 -136q-35 -79 -168 -99zM29 560h-61l118 149h62l115 -149h-62l-86 97z" />
    <glyph glyph-name="Kcommaaccent" unicode="&#x136;" horiz-adv-x="592" 
d="M159 0h-70v676h70v-354l316 354h87l-241 -266l266 -410h-86l-229 350l-113 -120v-230zM347 -54q-9 -93 -58 -193h-53q33 86 43 193h68z" />
    <glyph glyph-name="kcommaaccent" unicode="&#x137;" horiz-adv-x="487" 
d="M148 0h-67v713l67 12v-456l221 223h87l-181 -180l208 -312h-81l-174 261l-80 -75v-186zM298 -54q-9 -93 -58 -193h-53q33 86 43 193h68z" />
    <glyph glyph-name="kgreenlandic" unicode="&#x138;" horiz-adv-x="487" 
d="M148 0h-67v487l67 12v-236l223 229h85l-181 -184l208 -308h-79l-177 256l-79 -76v-180z" />
    <glyph glyph-name="Lacute" unicode="&#x139;" horiz-adv-x="502" 
d="M482 0h-393v676h70v-610h323v-66zM117 718h-73l171 146h102z" />
    <glyph glyph-name="lacute" unicode="&#x13a;" horiz-adv-x="230" 
d="M148 0h-67v713l67 12v-725zM86 742h-73l171 146h102z" />
    <glyph glyph-name="Lcommaaccent" unicode="&#x13b;" horiz-adv-x="502" 
d="M482 0h-393v676h70v-610h323v-66zM304 -54q-9 -93 -58 -193h-53q33 86 43 193h68z" />
    <glyph glyph-name="lcommaaccent" unicode="&#x13c;" horiz-adv-x="230" 
d="M148 0h-67v713l67 12v-725zM157 -54q-9 -93 -58 -193h-53q33 86 43 193h68z" />
    <glyph glyph-name="Lcaron" unicode="&#x13d;" horiz-adv-x="502" 
d="M482 0h-393v676h70v-610h323v-66zM351 708q-9 -89 -58 -192h-53q32 85 43 192h68z" />
    <glyph glyph-name="lcaron" unicode="&#x13e;" horiz-adv-x="230" 
d="M148 0h-67v713l67 12v-725zM310 733q-9 -89 -58 -192h-53q32 85 43 192h68z" />
    <glyph glyph-name="Ldot" unicode="&#x13f;" horiz-adv-x="502" 
d="M482 0h-393v676h70v-612h323v-64zM412 312q0 -26 -13.5 -39t-35.5 -13q-18 0 -32.5 13t-14.5 39q0 27 14 40.5t34 13.5q48 0 48 -54z" />
    <glyph glyph-name="ldot" unicode="&#x140;" horiz-adv-x="329" 
d="M148 0h-67v713l67 12v-725zM320 315q0 -24 -13 -36.5t-34 -12.5q-16 0 -29.5 12t-13.5 37t13 38t32 13q45 0 45 -51z" />
    <glyph glyph-name="Lslash" unicode="&#x141;" horiz-adv-x="502" 
d="M482 0h-393v242l-85 -55v70l85 55v364h70v-316l192 126v-69l-192 -126v-225h323v-66z" />
    <glyph glyph-name="lslash" unicode="&#x142;" horiz-adv-x="230" 
d="M148 0h-67v264l-72 -49v63l72 50v386l67 10v-351l73 51v-64l-73 -50v-310z" />
    <glyph glyph-name="Nacute" unicode="&#x143;" horiz-adv-x="673" 
d="M159 0h-70v676h75q307 -482 353 -560q-3 147 -3 560h71v-676h-75l-353 560q2 -93 2 -560zM323 718h-73l171 146h102z" />
    <glyph glyph-name="nacute" unicode="&#x144;" horiz-adv-x="554" 
d="M148 0h-67v487l67 12v-102q37 48 93 77.5t114 29.5q101 0 116 -84q5 -29 5 -124v-296h-67v289q0 82 -9 112q-13 40 -73 40q-37 0 -81 -25t-72 -63q-26 -37 -26 -114v-239zM264 560h-63l121 152h91z" />
    <glyph glyph-name="Ncommaaccent" unicode="&#x145;" horiz-adv-x="673" 
d="M159 0h-70v676h75q307 -482 353 -560q-3 147 -3 560h71v-676h-75l-353 560q2 -93 2 -560zM374 -54q-9 -93 -58 -193h-53q33 86 43 193h68z" />
    <glyph glyph-name="ncommaaccent" unicode="&#x146;" horiz-adv-x="554" 
d="M148 0h-67v487l67 12v-102q37 48 93 77.5t114 29.5q101 0 116 -84q5 -29 5 -124v-296h-67v289q0 82 -9 112q-13 40 -73 40q-37 0 -81 -25t-72 -63q-26 -37 -26 -114v-239zM320 -54q-9 -93 -58 -193h-53q33 86 43 193h68z" />
    <glyph glyph-name="Ncaron" unicode="&#x147;" horiz-adv-x="673" 
d="M159 0h-70v676h75q307 -482 353 -560q-3 147 -3 560h71v-676h-75l-353 560q2 -93 2 -560zM430 853h62l-124 -126h-67l-124 126h63l95 -75z" />
    <glyph glyph-name="ncaron" unicode="&#x148;" horiz-adv-x="554" 
d="M148 0h-67v487l67 12v-102q37 48 93 77.5t114 29.5q101 0 116 -84q5 -29 5 -124v-296h-67v289q0 82 -9 112q-13 40 -73 40q-37 0 -81 -25t-72 -63q-26 -37 -26 -114v-239zM354 704h61l-118 -150h-62l-115 150h62l86 -97z" />
    <glyph glyph-name="napostrophe" unicode="&#x149;" horiz-adv-x="554" 
d="M148 0h-67v487l67 12v-102q37 48 93 77.5t114 29.5q101 0 116 -84q5 -29 5 -124v-296h-67v289q0 82 -9 112q-13 40 -73 40q-37 0 -81 -25t-72 -63q-26 -37 -26 -114v-239zM179 750q-9 -93 -58 -193h-53q33 86 43 193h68z" />
    <glyph glyph-name="Eng" unicode="&#x14a;" horiz-adv-x="673" 
d="M157 0h-68v676h76q288 -432 354 -542q-3 138 -3 542h69v-677q0 -108 -34 -152q-44 -58 -130 -58q-47 0 -79 8l13 66q28 -7 58 -7q58 0 81 35q19 28 19 85v25l-358 551q2 -93 2 -552z" />
    <glyph glyph-name="eng" unicode="&#x14b;" horiz-adv-x="554" 
d="M148 0h-67v487l67 12l2 -108q37 51 93 82t115 31q52 0 78.5 -20.5t34.5 -63.5q5 -29 5 -124v-300q0 -97 -19 -138q-35 -79 -168 -99l-11 58q51 11 77 25.5t38 40.5q16 32 16 103v303q0 82 -9 112q-13 40 -73 40q-37 0 -81 -24t-72 -62q-26 -35 -26 -111v-244z" />
    <glyph glyph-name="Omacron" unicode="&#x14c;" horiz-adv-x="714" 
d="M667 356q0 -169 -84 -269.5t-231 -100.5q-141 0 -223 93.5t-82 241.5q0 167 85 268t238 101q138 0 217.5 -92.5t79.5 -241.5zM591 337q0 58 -11.5 106.5t-37 90t-73 65t-113.5 23.5q-105 0 -169 -81.5t-64 -203.5q0 -141 63.5 -212t172.5 -71q102 0 167 77t65 206z
M489 748h-285v55h285v-55z" />
    <glyph glyph-name="omacron" unicode="&#x14d;" horiz-adv-x="539" 
d="M498 259q0 -124 -61.5 -197.5t-173.5 -73.5q-102 0 -162 69t-60 181q0 121 63.5 194t178.5 73q101 0 158 -68t57 -178zM428 242q0 204 -157 204q-73 0 -116.5 -57t-43.5 -134q0 -105 42.5 -156t116.5 -51q68 0 113 52t45 142zM409 584h-279v54h279v-54z" />
    <glyph glyph-name="Obreve" unicode="&#x14e;" horiz-adv-x="714" 
d="M667 356q0 -169 -84 -269.5t-231 -100.5q-141 0 -223 93.5t-82 241.5q0 167 85 268t238 101q138 0 217.5 -92.5t79.5 -241.5zM591 337q0 58 -11.5 106.5t-37 90t-73 65t-113.5 23.5q-105 0 -169 -81.5t-64 -203.5q0 -141 63.5 -212t172.5 -71q102 0 167 77t65 206z
M487 857q-1 -57 -39 -95t-101 -38q-64 0 -99 38t-35 95h49q9 -79 86 -79q82 0 89 79h50z" />
    <glyph glyph-name="obreve" unicode="&#x14f;" horiz-adv-x="539" 
d="M498 259q0 -124 -61.5 -197.5t-173.5 -73.5q-102 0 -162 69t-60 181q0 121 63.5 194t178.5 73q101 0 158 -68t57 -178zM428 242q0 204 -157 204q-73 0 -116.5 -57t-43.5 -134q0 -105 42.5 -156t116.5 -51q68 0 113 52t45 142zM399 694q-1 -58 -36.5 -95.5t-95.5 -37.5
q-61 0 -94 38t-33 95h46q7 -79 82 -79q78 0 85 79h46z" />
    <glyph glyph-name="Ohungarumlaut" unicode="&#x150;" horiz-adv-x="714" 
d="M667 356q0 -169 -84 -269.5t-231 -100.5q-141 0 -223 93.5t-82 241.5q0 167 85 268t238 101q138 0 217.5 -92.5t79.5 -241.5zM591 337q0 58 -11.5 106.5t-37 90t-73 65t-113.5 23.5q-105 0 -169 -81.5t-64 -203.5q0 -141 63.5 -212t172.5 -71q102 0 167 77t65 206z
M292 727h-70l153 146h93zM459 727h-70l153 146h94z" />
    <glyph glyph-name="ohungarumlaut" unicode="&#x151;" horiz-adv-x="539" 
d="M498 259q0 -124 -61.5 -197.5t-173.5 -73.5q-102 0 -162 69t-60 181q0 121 63.5 194t178.5 73q101 0 158 -68t57 -178zM428 242q0 204 -157 204q-73 0 -116.5 -57t-43.5 -134q0 -105 42.5 -156t116.5 -51q68 0 113 52t45 142zM201 560h-58l117 152h80zM346 560h-58
l116 152h80z" />
    <glyph glyph-name="OE" unicode="&#x152;" horiz-adv-x="951" 
d="M919 0h-417q-61 -9 -138 -9q-150 0 -233.5 89t-83.5 257q0 180 92 265t240 85q52 0 122 -11h387v-66h-321v-227h305v-66h-305v-250h352v-67zM497 71v536q-59 14 -118 14q-114 0 -185 -68.5t-71 -213.5q0 -143 69 -212t182 -69q73 0 123 13z" />
    <glyph glyph-name="oe" unicode="&#x153;" horiz-adv-x="886" 
d="M857 74q-48 -41 -96 -63.5t-118 -22.5q-67 0 -115.5 33t-70.5 90q-25 -58 -75 -90.5t-120 -32.5q-102 0 -161.5 69t-59.5 181q0 121 64.5 194t179.5 73q137 0 177 -119q26 59 78 89t112 30q59 0 99.5 -19.5t60.5 -56.5t28.5 -78t8.5 -96l-357 -13q1 -97 45 -145t123 -48
q81 0 159 68zM425 242q0 203 -154 203q-73 0 -116.5 -56.5t-43.5 -133.5q0 -105 42 -155.5t117 -50.5q68 0 111.5 51.5t43.5 141.5zM780 307q-5 66 -31.5 103.5t-99.5 37.5q-57 0 -100.5 -39t-54.5 -114z" />
    <glyph glyph-name="Racute" unicode="&#x154;" horiz-adv-x="587" 
d="M159 0h-70v673q106 6 177 6q131 0 193.5 -40t62.5 -141q0 -68 -38.5 -111.5t-107.5 -60.5q37 -14 68 -54.5t72 -131.5q57 -123 66 -140h-76q-28 54 -46 97q-38 87 -61.5 123t-56.5 60q-29 20 -100 21q-33 0 -83 2v-303zM159 366q58 -2 95 -2q50 0 82 6q115 20 115 125
q0 65 -40 93t-134 28q-87 0 -118 -3v-247zM256 718h-73l171 146h102z" />
    <glyph glyph-name="racute" unicode="&#x155;" horiz-adv-x="344" 
d="M148 0h-67v487l67 12v-105q31 48 80 78t103 31v-69q-98 -3 -156 -84q-27 -39 -27 -125v-225zM213 560h-63l121 152h91z" />
    <glyph glyph-name="Rcommaaccent" unicode="&#x156;" horiz-adv-x="587" 
d="M159 0h-70v673q106 6 177 6q131 0 193.5 -40t62.5 -141q0 -68 -38.5 -111.5t-107.5 -60.5q37 -14 68 -54.5t72 -131.5q57 -123 66 -140h-76q-28 54 -46 97q-38 87 -61.5 123t-56.5 60q-29 20 -100 21q-33 0 -83 2v-303zM159 366q58 -2 95 -2q50 0 82 6q115 20 115 125
q0 65 -40 93t-134 28q-87 0 -118 -3v-247zM344 -54q-9 -93 -58 -193h-53q33 86 43 193h68z" />
    <glyph glyph-name="rcommaaccent" unicode="&#x157;" horiz-adv-x="344" 
d="M148 0h-67v487l67 12v-105q31 48 80 78t103 31v-69q-98 -3 -156 -84q-27 -39 -27 -125v-225zM158 -54q-9 -93 -58 -193h-53q33 86 43 193h68z" />
    <glyph glyph-name="Rcaron" unicode="&#x158;" horiz-adv-x="587" 
d="M159 0h-70v673q106 6 177 6q131 0 193.5 -40t62.5 -141q0 -68 -38.5 -111.5t-107.5 -60.5q37 -14 68 -54.5t72 -131.5q57 -123 66 -140h-76q-28 54 -46 97q-38 87 -61.5 123t-56.5 60q-29 20 -100 21q-33 0 -83 2v-303zM159 366q58 -2 95 -2q50 0 82 6q115 20 115 125
q0 65 -40 93t-134 28q-87 0 -118 -3v-247zM365 853h62l-124 -126h-67l-124 126h63l95 -75z" />
    <glyph glyph-name="rcaron" unicode="&#x159;" horiz-adv-x="344" 
d="M148 0h-67v487l67 12v-105q31 48 80 78t103 31v-69q-98 -3 -156 -84q-27 -39 -27 -125v-225zM276 704h61l-118 -150h-62l-115 150h62l86 -97z" />
    <glyph glyph-name="Sacute" unicode="&#x15a;" horiz-adv-x="509" 
d="M63 126q84 -70 180 -70q69 0 111 33t42 86q0 39 -26 66t-95 55l-77 32q-71 29 -103 71.5t-32 102.5q0 83 60.5 135.5t167.5 52.5q91 0 174 -44l-35 -66q-66 42 -147 42q-72 0 -108 -33.5t-36 -78.5q0 -42 22 -68t81 -50l86 -36q72 -29 108 -69t36 -100
q0 -92 -62.5 -145.5t-170.5 -53.5q-57 0 -117 20t-106 57zM249 718h-73l171 146h102z" />
    <glyph glyph-name="sacute" unicode="&#x15b;" horiz-adv-x="404" 
d="M57 98q66 -50 139 -50q50 0 79 21t29 57q0 27 -18.5 44.5t-70.5 39.5l-59 25q-102 43 -102 130q0 62 46.5 101t131.5 39q75 0 137 -31l-31 -58q-58 30 -113 30q-51 0 -77 -22t-26 -51q0 -30 15.5 -49t59.5 -35l69 -26q56 -21 81.5 -50.5t25.5 -75.5q0 -66 -45 -107.5
t-133 -41.5q-102 0 -177 54zM208 560h-63l121 152h91z" />
    <glyph glyph-name="Scircumflex" unicode="&#x15c;" horiz-adv-x="509" 
d="M63 126q84 -70 180 -70q69 0 111 33t42 86q0 39 -26 66t-95 55l-77 32q-71 29 -103 71.5t-32 102.5q0 83 60.5 135.5t167.5 52.5q91 0 174 -44l-35 -66q-66 42 -147 42q-72 0 -108 -33.5t-36 -78.5q0 -42 22 -68t81 -50l86 -36q72 -29 108 -69t36 -100
q0 -92 -62.5 -145.5t-170.5 -53.5q-57 0 -117 20t-106 57zM177 727h-62l124 126h67l124 -126h-63l-95 75z" />
    <glyph glyph-name="scircumflex" unicode="&#x15d;" horiz-adv-x="404" 
d="M57 98q66 -50 139 -50q50 0 79 21t29 57q0 27 -18.5 44.5t-70.5 39.5l-59 25q-102 43 -102 130q0 62 46.5 101t131.5 39q75 0 137 -31l-31 -58q-58 30 -113 30q-51 0 -77 -22t-26 -51q0 -30 15.5 -49t59.5 -35l69 -26q56 -21 81.5 -50.5t25.5 -75.5q0 -66 -45 -107.5
t-133 -41.5q-102 0 -177 54zM133 560h-61l118 149h62l115 -149h-62l-86 97z" />
    <glyph glyph-name="Scedilla" unicode="&#x15e;" horiz-adv-x="509" 
d="M158 -231l16 50q28 -8 58 -8q53 0 53 40t-57 40q-12 0 -37 -3l38 100q-127 5 -213 77l47 61q84 -70 180 -70q69 0 111 33t42 86q0 39 -26 66t-95 55l-77 32q-71 29 -103 71.5t-32 102.5q0 83 60.5 135.5t167.5 52.5q91 0 174 -44l-35 -66q-66 42 -147 42
q-72 0 -108 -33.5t-36 -78.5q0 -42 22 -68t81 -50l86 -36q72 -29 108 -69t36 -100q0 -82 -51.5 -134.5t-141.5 -61.5l-21 -51q49 -4 70 -28t21 -57q0 -42 -32.5 -69t-90.5 -27q-38 0 -68 10z" />
    <glyph glyph-name="scedilla" unicode="&#x15f;" horiz-adv-x="404" 
d="M108 -221l15 48q27 -8 54 -8q50 0 50 38t-53 38q-22 0 -35 -2l36 96q-95 6 -158 53l40 56q66 -50 138 -50q50 0 79.5 21t29.5 57q0 27 -18 44.5t-70 39.5l-59 25q-101 42 -101 130q0 61 47.5 100.5t131.5 39.5q76 0 138 -31l-32 -58q-58 30 -113 30q-52 0 -78 -22.5
t-26 -52.5q0 -28 16 -46.5t59 -35.5l68 -26q57 -22 82 -51.5t25 -77.5q0 -58 -40 -97.5t-112 -46.5l-19 -47q46 -4 66 -27.5t20 -54.5q0 -41 -31 -67t-86 -26q-40 0 -64 11z" />
    <glyph glyph-name="Scaron" unicode="&#x160;" horiz-adv-x="509" 
d="M63 126q84 -70 180 -70q69 0 111 33t42 86q0 39 -26 66t-95 55l-77 32q-71 29 -103 71.5t-32 102.5q0 83 60.5 135.5t167.5 52.5q91 0 174 -44l-35 -66q-66 42 -147 42q-72 0 -108 -33.5t-36 -78.5q0 -42 22 -68t81 -50l86 -36q72 -29 108 -69t36 -100
q0 -92 -62.5 -145.5t-170.5 -53.5q-57 0 -117 20t-106 57zM370 853h62l-124 -126h-67l-124 126h63l95 -75z" />
    <glyph glyph-name="scaron" unicode="&#x161;" horiz-adv-x="404" 
d="M57 98q66 -50 139 -50q50 0 79 21t29 57q0 27 -18.5 44.5t-70.5 39.5l-59 25q-102 43 -102 130q0 62 46.5 101t131.5 39q75 0 137 -31l-31 -58q-58 30 -113 30q-51 0 -77 -22t-26 -51q0 -30 15.5 -49t59.5 -35l69 -26q56 -21 81.5 -50.5t25.5 -75.5q0 -66 -45 -107.5
t-133 -41.5q-102 0 -177 54zM308 704h61l-118 -150h-62l-115 150h62l86 -97z" />
    <glyph glyph-name="uni0162" unicode="&#x162;" horiz-adv-x="543" 
d="M166 -231l16 50q28 -8 58 -8q53 0 53 40t-57 40q-12 0 -37 -3l43 112h-9v610h-210v66h498v-66h-218v-610h-12l-25 -60q49 -4 70 -28t21 -57q0 -42 -32.5 -69t-90.5 -27q-38 0 -68 10z" />
    <glyph glyph-name="uni0163" unicode="&#x163;" horiz-adv-x="325" 
d="M105 -221l15 48q27 -8 54 -8q50 0 50 38t-53 38q-22 0 -35 -2l40 107q-27 9 -42 32q-27 41 -27 140v261h-78v51l78 7l4 129l64 10v-138h129v-59h-129v-259q0 -72 15 -94q18 -27 56 -27q27 0 69 14l16 -58q-54 -19 -104 -19h-8l-19 -47q46 -4 66 -27.5t20 -54.5
q0 -41 -31 -67t-86 -26q-40 0 -64 11z" />
    <glyph glyph-name="Tcaron" unicode="&#x164;" horiz-adv-x="543" 
d="M303 0h-70v610h-210v66h498v-66h-218v-610zM363 853h62l-124 -126h-67l-124 126h63l95 -75z" />
    <glyph glyph-name="tcaron" unicode="&#x165;" horiz-adv-x="325" 
d="M331 9q-54 -19 -104 -19q-64 0 -93 42q-27 38 -27 140v261h-78v51l78 7l4 129l64 10v-138h129v-59h-129v-259q0 -72 15 -94q18 -27 56 -27q27 0 69 14zM335 747q-9 -89 -58 -192h-53q32 85 43 192h68z" />
    <glyph glyph-name="Tbar" unicode="&#x166;" horiz-adv-x="543" 
d="M303 0h-70v360h-162v58h162v192h-210v66h498v-66h-218v-192h171v-58h-171v-360z" />
    <glyph glyph-name="tbar" unicode="&#x167;" horiz-adv-x="325" 
d="M331 9q-54 -19 -104 -19q-64 0 -93 42q-27 38 -27 140v103h-73v56h73v102h-78v51l78 7l4 129l64 10v-138h129v-59h-129v-102h124v-56h-124v-101q0 -72 15 -94q18 -27 56 -27q27 0 69 14z" />
    <glyph glyph-name="Utilde" unicode="&#x168;" horiz-adv-x="661" 
d="M579 676v-397q0 -132 -31 -189q-56 -101 -219 -101q-170 0 -222 110q-25 52 -25 178v399h70v-394q0 -101 16 -141q31 -85 164 -85q121 0 156 78q20 39 20 143v399h71zM222 727h-49q12 51 35.5 77.5t53.5 26.5q29 0 74 -23q41 -19 60 -19q16 0 25 10.5t19 38.5h46
q-21 -108 -88 -108q-27 0 -76 23q-41 20 -57 20q-14 0 -23.5 -10.5t-19.5 -35.5z" />
    <glyph glyph-name="utilde" unicode="&#x169;" horiz-adv-x="561" 
d="M471 0h-68v88q-78 -99 -190 -99q-54 0 -88 25t-42 68q-7 42 -7 117v293h67v-283q0 -87 12 -116q18 -42 82 -42q38 0 79 24.5t63 61.5q24 40 24 119v236h68v-492zM178 569h-46q22 105 85 105q28 0 69 -23q35 -20 56 -20q14 0 23 10.5t19 38.5h44q-18 -108 -83 -108
q-26 0 -72 23q-44 21 -54 21q-25 0 -41 -47z" />
    <glyph glyph-name="Umacron" unicode="&#x16a;" horiz-adv-x="661" 
d="M579 676v-397q0 -132 -31 -189q-56 -101 -219 -101q-170 0 -222 110q-25 52 -25 178v399h70v-394q0 -101 16 -141q31 -85 164 -85q121 0 156 78q20 39 20 143v399h71zM477 748h-285v55h285v-55z" />
    <glyph glyph-name="umacron" unicode="&#x16b;" horiz-adv-x="561" 
d="M471 0h-68v88q-78 -99 -190 -99q-54 0 -88 25t-42 68q-7 42 -7 117v293h67v-283q0 -87 12 -116q18 -42 82 -42q38 0 79 24.5t63 61.5q24 40 24 119v236h68v-492zM412 584h-279v54h279v-54z" />
    <glyph glyph-name="Ubreve" unicode="&#x16c;" horiz-adv-x="661" 
d="M579 676v-397q0 -132 -31 -189q-56 -101 -219 -101q-170 0 -222 110q-25 52 -25 178v399h70v-394q0 -101 16 -141q31 -85 164 -85q121 0 156 78q20 39 20 143v399h71zM464 857q-1 -57 -39 -95t-101 -38q-64 0 -99 38t-35 95h49q9 -79 86 -79q82 0 89 79h50z" />
    <glyph glyph-name="ubreve" unicode="&#x16d;" horiz-adv-x="561" 
d="M471 0h-68v88q-78 -99 -190 -99q-54 0 -88 25t-42 68q-7 42 -7 117v293h67v-283q0 -87 12 -116q18 -42 82 -42q38 0 79 24.5t63 61.5q24 40 24 119v236h68v-492zM399 694q-1 -58 -36.5 -95.5t-95.5 -37.5q-61 0 -94 38t-33 95h46q7 -79 82 -79q78 0 85 79h46z" />
    <glyph glyph-name="Uring" unicode="&#x16e;" horiz-adv-x="661" 
d="M579 676v-397q0 -132 -31 -189q-56 -101 -219 -101q-170 0 -222 110q-25 52 -25 178v399h70v-394q0 -101 16 -141q31 -85 164 -85q121 0 156 78q20 39 20 143v399h71zM409 798q0 -36 -24 -62.5t-61 -26.5t-61 25t-24 62q0 38 24.5 62.5t61.5 24.5q39 0 61.5 -23t22.5 -62
zM376 797q0 25 -14.5 39.5t-37.5 14.5t-37 -15t-14 -40t13.5 -40t39.5 -15q23 0 36.5 15.5t13.5 40.5z" />
    <glyph glyph-name="uring" unicode="&#x16f;" horiz-adv-x="561" 
d="M471 0h-68v88q-78 -99 -190 -99q-54 0 -88 25t-42 68q-7 42 -7 117v293h67v-283q0 -87 12 -116q18 -42 82 -42q38 0 79 24.5t63 61.5q24 40 24 119v236h68v-492zM361 637q0 -38 -25.5 -65t-64.5 -27t-64.5 26t-25.5 64q0 40 26 65t65 25q41 0 65 -23.5t24 -64.5zM327 636
q0 26 -15.5 42t-40.5 16t-40 -16.5t-15 -42.5q0 -25 15 -41.5t42 -16.5q25 0 39.5 16.5t14.5 42.5z" />
    <glyph glyph-name="Uhungarumlaut" unicode="&#x170;" horiz-adv-x="661" 
d="M579 676v-397q0 -132 -31 -189q-56 -101 -219 -101q-170 0 -222 110q-25 52 -25 178v399h70v-394q0 -101 16 -141q31 -85 164 -85q121 0 156 78q20 39 20 143v399h71zM240 727h-70l153 146h93zM407 727h-70l153 146h94z" />
    <glyph glyph-name="uhungarumlaut" unicode="&#x171;" horiz-adv-x="561" 
d="M471 0h-68v88q-78 -99 -190 -99q-54 0 -88 25t-42 68q-7 42 -7 117v293h67v-283q0 -87 12 -116q18 -42 82 -42q38 0 79 24.5t63 61.5q24 40 24 119v236h68v-492zM216 560h-58l117 152h80zM361 560h-58l116 152h80z" />
    <glyph glyph-name="Uogonek" unicode="&#x172;" horiz-adv-x="661" 
d="M579 676v-397q0 -132 -31 -189q-48 -84 -166 -97q-88 -67 -88 -124q0 -26 15.5 -40t39.5 -14q28 0 55 12l17 -47q-37 -21 -82 -21q-49 0 -78 27t-29 68q0 75 84 135q-161 5 -209 110q-25 52 -25 178v399h70v-394q0 -101 16 -141q31 -85 164 -85q118 0 156 78
q20 42 20 143v399h71z" />
    <glyph glyph-name="uogonek" unicode="&#x173;" horiz-adv-x="561" 
d="M471 0h-10q-93 -70 -93 -126q0 -25 15 -38.5t37 -13.5q26 0 53 12l15 -45q-36 -22 -77 -22q-48 0 -75 26t-27 67q0 77 94 140v88q-78 -99 -190 -99q-54 0 -88 25t-42 68q-7 42 -7 117v293h67v-283q0 -87 12 -116q18 -42 82 -42q38 0 79 24.5t63 61.5q24 40 24 119v236h68
v-492z" />
    <glyph glyph-name="Wcircumflex" unicode="&#x174;" horiz-adv-x="860" 
d="M679 0h-78l-172 576q-24 -91 -172 -576h-79l-169 676h77q101 -405 138 -580q34 132 170 580h72q129 -413 173 -580q38 172 137 580h75zM335 727h-62l124 126h67l124 -126h-63l-95 75z" />
    <glyph glyph-name="wcircumflex" unicode="&#x175;" horiz-adv-x="688" 
d="M214 0h-72l-133 492h76q79 -302 100 -405q25 85 127 398h72q105 -346 116 -398q14 66 110 405h69l-143 -492h-73l-59.5 200.5l-39.5 131.5l-20 68q-31 -106 -130 -400zM259 560h-61l118 149h62l115 -149h-62l-86 97z" />
    <glyph glyph-name="Ycircumflex" unicode="&#x176;" horiz-adv-x="567" 
d="M314 0h-70v270l-243 406h83q149 -245 199 -335q75 132 203 335h79l-251 -406v-270zM185 727h-62l124 126h67l124 -126h-63l-95 75z" />
    <glyph glyph-name="ycircumflex" unicode="&#x177;" horiz-adv-x="456" 
d="M18 -240l-20 63q68 21 116 62t81 123l-192 484h77q109 -276 155 -407q39 116 148 407h72l-163 -435q-29 -77 -58.5 -129t-64.5 -84.5t-68.5 -50.5t-82.5 -33zM149 560h-61l118 149h62l115 -149h-62l-86 97z" />
    <glyph glyph-name="Ydieresis" unicode="&#x178;" horiz-adv-x="567" 
d="M314 0h-70v270l-243 406h83q149 -245 199 -335q75 132 203 335h79l-251 -406v-270zM232 783q0 -41 -39 -41q-38 0 -38 41q0 42 39 42q38 0 38 -42zM404 783q0 -41 -39 -41q-38 0 -38 41q0 42 39 42q38 0 38 -42z" />
    <glyph glyph-name="Zacute" unicode="&#x179;" horiz-adv-x="572" 
d="M540 0h-521v54l424 556h-384v66h477v-52l-422 -557h426v-67zM297 718h-73l171 146h102z" />
    <glyph glyph-name="zacute" unicode="&#x17a;" horiz-adv-x="439" 
d="M413 0h-388v50l298 380h-272v62h358v-53l-296 -379h300v-60zM233 560h-63l121 152h91z" />
    <glyph glyph-name="Zdotaccent" unicode="&#x17b;" horiz-adv-x="572" 
d="M540 0h-521v54l424 556h-384v66h477v-52l-422 -557h426v-67zM336 783q0 -41 -39 -41q-38 0 -38 41q0 42 39 42q38 0 38 -42z" />
    <glyph glyph-name="zdotaccent" unicode="&#x17c;" horiz-adv-x="439" 
d="M413 0h-388v50l298 380h-272v62h358v-53l-296 -379h300v-60zM272 633q0 -41 -39 -41q-38 0 -38 41q0 42 39 42q38 0 38 -42z" />
    <glyph glyph-name="Zcaron" unicode="&#x17d;" horiz-adv-x="572" 
d="M540 0h-521v54l424 556h-384v66h477v-52l-422 -557h426v-67zM383 853h62l-124 -126h-67l-124 126h63l95 -75z" />
    <glyph glyph-name="zcaron" unicode="&#x17e;" horiz-adv-x="439" 
d="M413 0h-388v50l298 380h-272v62h358v-53l-296 -379h300v-60zM308 704h61l-118 -150h-62l-115 150h62l86 -97z" />
    <glyph glyph-name="longs" unicode="&#x17f;" horiz-adv-x="237" 
d="M153 0h-73v532q0 93 39 140q46 54 125 54q49 0 93 -11l-16 -61q-27 10 -67 10q-50 0 -78 -39q-23 -31 -23 -95v-530z" />
    <glyph glyph-name="florin" unicode="&#x192;" horiz-adv-x="454" 
d="M385 358h-131l-27 -303q-6 -71 -19 -104q-29 -81 -133 -81q-37 0 -75 9l14 67q25 -8 55 -8q57 0 75 45q9 22 13 74l25 301h-98v51h102l7 77q5 67 26 103q42 69 132 69q52 0 86 -12l-14 -67q-35 10 -64 10q-57 0 -78 -41q-12 -21 -17 -69l-6 -70h127v-51z" />
    <glyph glyph-name="Aringacute" unicode="&#x1fa;" horiz-adv-x="592" 
d="M385 739q0 -52 -40 -78l244 -661h-75l-80 211h-276l-82 -211h-73l247 659q-42 24 -42 78q0 39 25.5 64t64.5 25q40 0 63.5 -24t23.5 -63zM176 273h241q-98 257 -119 325q-27 -80 -122 -325zM353 738q0 27 -15.5 42.5t-40.5 15.5q-26 0 -41.5 -16.5t-15.5 -42.5
q0 -27 15.5 -43.5t43.5 -16.5q25 0 39.5 17t14.5 44zM306 847h-51l112 131h73z" />
    <glyph glyph-name="aringacute" unicode="&#x1fb;" horiz-adv-x="499" 
d="M420 0h-62l-3 87q-27 -44 -70.5 -70.5t-97.5 -26.5q-67 0 -107 39t-40 97q0 91 95 128q83 32 220 40v31q0 65 -20 91q-24 30 -82 30q-78 0 -168 -56l-26 52q106 63 207 63q91 0 127 -48q29 -38 29 -134q0 -197 -2 -323zM356 243q-140 -10 -200 -38q-49 -22 -49 -73
q0 -36 25 -60t71 -24q44 0 80.5 24t55.5 63q17 34 17 108zM340 637q0 -37 -24.5 -64t-63.5 -27t-64 26t-25 63q0 39 25.5 64t64.5 25q40 0 63.5 -23.5t23.5 -63.5zM308 636q0 27 -15.5 43.5t-40.5 16.5q-26 0 -41 -17t-15 -44q0 -26 15 -43t43 -17q25 0 39.5 17.5t14.5 43.5
zM254 747h-51l108 139h73z" />
    <glyph glyph-name="AEacute" unicode="&#x1fc;" horiz-adv-x="939" 
d="M86 0h-86l442 676h433v-66h-322v-227h305v-66h-305v-250h353v-67h-422v211h-262zM261 277h223v341zM604 718h-73l171 146h102z" />
    <glyph glyph-name="aeacute" unicode="&#x1fd;" horiz-adv-x="822" 
d="M795 74q-99 -86 -213 -86q-135 0 -187 125q-30 -63 -82 -93t-112 -30q-68 0 -109 39t-41 98q0 92 95 129q80 29 221 39v27q0 65 -22 92q-25 31 -84 31q-81 0 -164 -56l-27 53q103 63 204 63q64 0 98 -25.5t45 -79.5q23 50 70 77.5t102 27.5q58 0 98.5 -19.5t61 -56
t29.5 -78t9 -95.5l-354 -12q0 -98 43 -146t122 -48q83 0 163 71zM436 297l282 12q-4 63 -32.5 100.5t-99.5 37.5q-56 0 -97 -36t-53 -114zM368 240q-143 -10 -200 -37q-50 -23 -50 -70q0 -38 25.5 -61.5t70.5 -23.5q40 0 74.5 23.5t56.5 60.5q23 39 23 108zM427 560h-63
l121 152h91z" />
    <glyph glyph-name="Oslashacute" unicode="&#x1fe;" horiz-adv-x="714" 
d="M121 -46l-42 27l60 87q-92 92 -92 253q0 166 86.5 267.5t239.5 101.5q92 0 160 -43l52 77l42 -26l-55 -81q98 -93 98 -261t-85 -269t-233 -101q-102 0 -175 50zM593 337q0 142 -64 216l-311 -456q56 -43 143 -43q102 0 167 77t65 206zM124 337q0 -133 58 -205l309 454
q-53 36 -133 36q-105 0 -169.5 -81.5t-64.5 -203.5zM334 718h-73l171 146h102z" />
    <glyph glyph-name="oslashacute" unicode="&#x1ff;" horiz-adv-x="539" 
d="M272 560h-63l121 152h91zM98 -44l-39 25l47 70q-65 68 -65 187q0 121 63.5 194t178.5 73q64 0 111 -29l49 72l39 -24l-52 -76q68 -68 68 -189q0 -124 -61.5 -197.5t-173.5 -73.5q-69 0 -121 33zM428 242q0 98 -37 148l-213 -315q36 -27 92 -27q68 0 113 52t45 142z
M111 255q0 -94 35 -146l212 314q-36 23 -87 23q-73 0 -116.5 -57t-43.5 -134z" />
    <glyph glyph-name="uni0218" unicode="&#x218;" horiz-adv-x="509" 
d="M63 126q84 -70 180 -70q69 0 111 33t42 86q0 39 -26 66t-95 55l-77 32q-71 29 -103 71.5t-32 102.5q0 83 60.5 135.5t167.5 52.5q91 0 174 -44l-35 -66q-66 42 -147 42q-72 0 -108 -33.5t-36 -78.5q0 -42 22 -68t81 -50l86 -36q72 -29 108 -69t36 -100
q0 -92 -62.5 -145.5t-170.5 -53.5q-57 0 -117 20t-106 57zM289 -54q-9 -93 -58 -193h-53q33 86 43 193h68z" />
    <glyph glyph-name="uni0219" unicode="&#x219;" horiz-adv-x="404" 
d="M57 98q66 -50 139 -50q50 0 79 21t29 57q0 27 -18.5 44.5t-70.5 39.5l-59 25q-102 43 -102 130q0 62 46.5 101t131.5 39q75 0 137 -31l-31 -58q-58 30 -113 30q-51 0 -77 -22t-26 -51q0 -30 15.5 -49t59.5 -35l69 -26q56 -21 81.5 -50.5t25.5 -75.5q0 -66 -45 -107.5
t-133 -41.5q-102 0 -177 54zM245 -54q-9 -93 -58 -193h-53q33 86 43 193h68z" />
    <glyph glyph-name="uni021A" unicode="&#x21a;" horiz-adv-x="543" 
d="M303 0h-70v610h-210v66h498v-66h-218v-610zM304 -54q-9 -93 -58 -193h-53q33 86 43 193h68z" />
    <glyph glyph-name="uni021B" unicode="&#x21b;" horiz-adv-x="325" 
d="M331 9q-54 -19 -104 -19q-64 0 -93 42q-27 38 -27 140v261h-78v51l78 7l4 129l64 10v-138h129v-59h-129v-259q0 -72 15 -94q18 -27 56 -27q27 0 69 14zM231 -54q-9 -93 -58 -193h-53q33 86 43 193h68z" />
    <glyph glyph-name="circumflex" unicode="&#x2c6;" horiz-adv-x="201" 
d="M14 560h-61l118 149h62l115 -149h-62l-86 97z" />
    <glyph glyph-name="caron" unicode="&#x2c7;" horiz-adv-x="201" 
d="M187 704h61l-118 -150h-62l-115 150h62l86 -97z" />
    <glyph glyph-name="breve" unicode="&#x2d8;" horiz-adv-x="201" 
d="M230 694q-1 -58 -36.5 -95.5t-95.5 -37.5q-61 0 -94 38t-33 95h46q7 -79 82 -79q78 0 85 79h46z" />
    <glyph glyph-name="dotaccent" unicode="&#x2d9;" horiz-adv-x="201" 
d="M140 633q0 -41 -39 -41q-38 0 -38 41q0 42 39 42q38 0 38 -42z" />
    <glyph glyph-name="ring" unicode="&#x2da;" horiz-adv-x="201" 
d="M190 637q0 -38 -25.5 -65t-64.5 -27t-64.5 26t-25.5 64q0 40 26 65t65 25q41 0 65 -23.5t24 -64.5zM156 636q0 26 -15.5 42t-40.5 16t-40 -16.5t-15 -42.5q0 -25 15 -41.5t42 -16.5q25 0 39.5 16.5t14.5 42.5z" />
    <glyph glyph-name="ogonek" unicode="&#x2db;" horiz-adv-x="201" 
d="M178 7q-103 -75 -103 -133q0 -25 15 -38.5t37 -13.5q26 0 53 12l15 -45q-36 -22 -77 -22q-48 0 -75 26t-27 67q0 82 105 147h57z" />
    <glyph glyph-name="tilde" unicode="&#x2dc;" horiz-adv-x="201" 
d="M-1 569h-46q23 105 85 105q28 0 69 -23q35 -20 56 -20q14 0 23 10.5t19 38.5h44q-18 -108 -83 -108q-26 0 -72 23q-43 21 -54 21q-25 0 -41 -47z" />
    <glyph glyph-name="hungarumlaut" unicode="&#x2dd;" horiz-adv-x="201" 
d="M-11 560h-58l117 152h80zM134 560h-58l116 152h80z" />
    <glyph glyph-name="uni0394" unicode="&#x394;" horiz-adv-x="643" 
d="M638 0h-633l278 676h81zM322 608q-25 -73 -222 -547h443q-190 461 -221 547z" />
    <glyph glyph-name="uni03A9" unicode="&#x3a9;" horiz-adv-x="707" 
d="M310 0h-251v60h197q-195 80 -195 305q0 147 82.5 236t214.5 89q129 0 208 -87.5t79 -230.5q0 -221 -194 -312h197v-60h-251v88q85 34 131 103t46 169q0 118 -62.5 192t-156.5 74q-97 0 -159.5 -74t-62.5 -194q0 -98 45.5 -168.5t131.5 -101.5v-88z" />
    <glyph glyph-name="uni03BC" unicode="&#x3bc;" horiz-adv-x="584" 
d="M162 -202h-68v694h67v-282q0 -88 12 -114q17 -40 87 -40q79 0 137 82q25 35 25 112v242h67v-492h-67v103q-29 -50 -73 -80t-95 -30q-64 0 -95 35q3 -71 3 -230z" />
    <glyph glyph-name="pi" unicode="&#x3c0;" horiz-adv-x="565" 
d="M533 438h-68v-255q0 -112 24 -183h-66q-20 67 -20 181v257h-229v-438h-62v438h-67v57h488v-57z" />
    <glyph glyph-name="Wgrave" unicode="&#x1e80;" horiz-adv-x="860" 
d="M679 0h-78l-172 576q-24 -91 -172 -576h-79l-169 676h77q101 -405 138 -580q34 132 170 580h72q129 -413 173 -580q38 172 137 580h75zM533 727h-71l-202 146h102z" />
    <glyph glyph-name="wgrave" unicode="&#x1e81;" horiz-adv-x="688" 
d="M214 0h-72l-133 492h76q79 -302 100 -405q25 85 127 398h72q105 -346 116 -398q14 66 110 405h69l-143 -492h-73l-59.5 200.5l-39.5 131.5l-20 68q-31 -106 -130 -400zM420 560h-65l-147 152h90z" />
    <glyph glyph-name="Wacute" unicode="&#x1e82;" horiz-adv-x="860" 
d="M679 0h-78l-172 576q-24 -91 -172 -576h-79l-169 676h77q101 -405 138 -580q34 132 170 580h72q129 -413 173 -580q38 172 137 580h75zM395 718h-73l171 146h102z" />
    <glyph glyph-name="wacute" unicode="&#x1e83;" horiz-adv-x="688" 
d="M214 0h-72l-133 492h76q79 -302 100 -405q25 85 127 398h72q105 -346 116 -398q14 66 110 405h69l-143 -492h-73l-59.5 200.5l-39.5 131.5l-20 68q-31 -106 -130 -400zM334 560h-63l121 152h91z" />
    <glyph glyph-name="Wdieresis" unicode="&#x1e84;" horiz-adv-x="860" 
d="M679 0h-78l-172 576q-24 -91 -172 -576h-79l-169 676h77q101 -405 138 -580q34 132 170 580h72q129 -413 173 -580q38 172 137 580h75zM382 783q0 -41 -39 -41q-38 0 -38 41q0 42 39 42q38 0 38 -42zM554 783q0 -41 -39 -41q-38 0 -38 41q0 42 39 42q38 0 38 -42z" />
    <glyph glyph-name="wdieresis" unicode="&#x1e85;" horiz-adv-x="688" 
d="M214 0h-72l-133 492h76q79 -302 100 -405q25 85 127 398h72q105 -346 116 -398q14 66 110 405h69l-143 -492h-73l-59.5 200.5l-39.5 131.5l-20 68q-31 -106 -130 -400zM299 633q0 -41 -39 -41q-38 0 -38 41q0 42 39 42q38 0 38 -42zM461 633q0 -41 -39 -41q-38 0 -38 41
q0 42 39 42q38 0 38 -42z" />
    <glyph glyph-name="Ygrave" unicode="&#x1ef2;" horiz-adv-x="567" 
d="M314 0h-70v270l-243 406h83q149 -245 199 -335q75 132 203 335h79l-251 -406v-270zM380 727h-71l-202 146h102z" />
    <glyph glyph-name="ygrave" unicode="&#x1ef3;" horiz-adv-x="456" 
d="M18 -240l-20 63q68 21 116 62t81 123l-192 484h77q109 -276 155 -407q39 116 148 407h72l-163 -435q-29 -77 -58.5 -129t-64.5 -84.5t-68.5 -50.5t-82.5 -33zM293 560h-65l-147 152h90z" />
    <glyph glyph-name="endash" unicode="&#x2013;" horiz-adv-x="525" 
d="M488 249h-451v51h451v-51z" />
    <glyph glyph-name="emdash" unicode="&#x2014;" horiz-adv-x="878" 
d="M842 249h-805v51h805v-51z" />
    <glyph glyph-name="quoteleft" unicode="&#x2018;" horiz-adv-x="184" 
d="M36 448q13 120 74 243h53q-41 -116 -57 -243h-70z" />
    <glyph glyph-name="quoteright" unicode="&#x2019;" horiz-adv-x="183" 
d="M147 691q-15 -120 -75 -243h-53q41 110 57 243h71z" />
    <glyph glyph-name="quotesinglbase" unicode="&#x201a;" horiz-adv-x="183" 
d="M147 137q-15 -120 -75 -243h-53q42 113 57 243h71z" />
    <glyph glyph-name="quotedblleft" unicode="&#x201c;" horiz-adv-x="326" 
d="M177 448q15 121 75 243h53q-42 -113 -57 -243h-71zM36 448q13 120 74 243h53q-41 -116 -57 -243h-70z" />
    <glyph glyph-name="quotedblright" unicode="&#x201d;" horiz-adv-x="326" 
d="M147 691q-15 -120 -75 -243h-53q41 110 57 243h71zM288 691q-12 -116 -74 -243h-53q42 118 57 243h70z" />
    <glyph glyph-name="quotedblbase" unicode="&#x201e;" horiz-adv-x="326" 
d="M147 137q-15 -120 -75 -243h-53q42 113 57 243h71zM288 137q-12 -116 -74 -243h-53q43 121 57 243h70z" />
    <glyph glyph-name="dagger" unicode="&#x2020;" horiz-adv-x="453" 
d="M256 687v-208h176v-58h-176v-514h-59v514h-176v58h176v208h59z" />
    <glyph glyph-name="daggerdbl" unicode="&#x2021;" horiz-adv-x="452" 
d="M431 134h-175v-227h-59v227h-176v60h176v227h-176v60h176v206h59v-207h175v-59h-175v-227h175v-60z" />
    <glyph glyph-name="bullet" unicode="&#x2022;" horiz-adv-x="314" 
d="M253 269q0 -47 -27.5 -72.5t-70.5 -25.5q-38 0 -66 25t-28 73q0 50 28 75.5t68 25.5q42 0 69 -24t27 -77z" />
    <glyph glyph-name="ellipsis" unicode="&#x2026;" horiz-adv-x="780" 
d="M181 45q0 -51 -52 -51q-19 0 -34.5 12.5t-15.5 38.5q0 27 15 40.5t36 13.5q22 0 36.5 -13t14.5 -41zM441 45q0 -51 -52 -51q-19 0 -34.5 12.5t-15.5 38.5q0 27 15 40.5t36 13.5q22 0 36.5 -13t14.5 -41zM701 45q0 -51 -52 -51q-19 0 -34.5 12.5t-15.5 38.5q0 27 15 40.5
t36 13.5q22 0 36.5 -13t14.5 -41z" />
    <glyph glyph-name="perthousand" unicode="&#x2030;" horiz-adv-x="1142" 
d="M323 451q0 -106 -40.5 -163t-109.5 -57q-68 0 -106.5 54.5t-38.5 147.5q0 101 40.5 161t112.5 60q67 0 104.5 -55t37.5 -148zM271 444q0 162 -93 162q-44 0 -70.5 -43t-26.5 -123q0 -160 94 -160q43 0 69.5 41.5t26.5 122.5zM760 212q0 -106 -40.5 -163t-110.5 -57
q-67 0 -105.5 54.5t-38.5 147.5q0 101 40.5 161t111.5 60q67 0 105 -55t38 -148zM708 204q0 162 -94 162q-43 0 -69.5 -43t-26.5 -122q0 -161 94 -161q43 0 69.5 41.5t26.5 122.5zM1114 212q0 -106 -40.5 -163t-110.5 -57q-68 0 -106 54.5t-38 147.5q0 101 40 161t112 60
q67 0 105 -55t38 -148zM1062 204q0 162 -94 162q-43 0 -69.5 -43t-26.5 -122q0 -161 94 -161q43 0 69.5 41.5t26.5 122.5zM260 0h-47l317 644h46z" />
    <glyph glyph-name="guilsinglleft" unicode="&#x2039;" horiz-adv-x="319" 
d="M217 438h71l-175 -184l176 -189h-73l-186 187z" />
    <glyph glyph-name="guilsinglright" unicode="&#x203a;" horiz-adv-x="319" 
d="M101 65h-71l175 184l-176 189h73l187 -187z" />
    <glyph glyph-name="fraction" unicode="&#x2044;" horiz-adv-x="101" 
d="M-84 0h-47l317 644h46z" />
    <glyph glyph-name="zero.superior" unicode="&#x2070;" 
d="M323 671q0 -106 -40.5 -163t-109.5 -57q-68 0 -106.5 54.5t-38.5 147.5q0 101 40.5 161t112.5 60q67 0 104.5 -55t37.5 -148zM271 663q0 162 -93 162q-44 0 -70.5 -43t-26.5 -122q0 -161 94 -161q43 0 69.5 41.5t26.5 122.5z" />
    <glyph glyph-name="four.superior" unicode="&#x2074;" 
d="M218 603q0 155 1 202q-39 -61 -139 -202h138zM268 452h-50v109h-189v36l188 270h51v-264h61v-42h-61v-109z" />
    <glyph glyph-name="five.superior" unicode="&#x2075;" 
d="M55 447v46q8 -1 23 -1q83 0 128 27t45 74q0 45 -24 63.5t-72 18.5q-39 0 -85 -15l21 207h198v-46h-155l-14 -112q35 8 58 8q63 0 96 -31t33 -88q0 -76 -61.5 -114t-162.5 -38q-20 0 -28 1z" />
    <glyph glyph-name="six.superior" unicode="&#x2076;" 
d="M293 874l-4 -48q-18 3 -37 3q-149 0 -163 -182q8 31 38 53t72 22q57 0 88.5 -33t31.5 -97q0 -62 -36.5 -101.5t-100.5 -39.5q-62 0 -103 44.5t-41 142.5q0 104 57 171t155 67q26 0 43 -2zM267 592q0 41 -20.5 65t-60.5 24q-56 0 -77 -49q-10 -18 -10 -45q0 -34 21 -63.5
t62 -29.5q38 0 61.5 26t23.5 72z" />
    <glyph glyph-name="seven.superior" unicode="&#x2077;" 
d="M152 459h-56q51 166 152 361h-217v46h274v-38q-101 -198 -153 -369z" />
    <glyph glyph-name="eight.superior" unicode="&#x2078;" 
d="M223 673q89 -28 89 -103q0 -55 -39 -87t-99 -32q-59 0 -98 30t-39 84q0 78 88 107q-73 29 -73 94q0 49 36.5 78.5t89.5 29.5q55 0 88 -27.5t33 -73.5q0 -30 -18.5 -57t-57.5 -43zM169 654q-81 -24 -81 -84q0 -32 23 -52.5t64 -20.5q40 0 63 19.5t23 50.5q0 35 -22.5 54.5
t-69.5 32.5zM179 690q72 23 72 77q0 27 -18.5 44.5t-55.5 17.5q-36 0 -56 -17t-20 -46q0 -56 78 -76z" />
    <glyph glyph-name="nine.superior" unicode="&#x2079;" 
d="M55 451l4 47q17 -4 40 -4q146 0 161 188q-9 -33 -37.5 -56t-72.5 -23q-56 0 -88 33t-32 97q0 63 38 102t101 39q62 0 102.5 -43.5t40.5 -141.5q0 -105 -56 -173t-155 -68q-23 0 -46 3zM82 733q0 -90 82 -90q52 0 77 52q10 20 10 45q0 34 -19.5 62t-61.5 28q-38 0 -63 -26
t-25 -71z" />
    <glyph glyph-name="parenleft.superior" unicode="&#x207d;" horiz-adv-x="199" 
d="M192 348h-35q-123 110 -123 284q0 160 123 277h35q-113 -128 -113 -275q0 -150 113 -286z" />
    <glyph glyph-name="parenright.superior" unicode="&#x207e;" horiz-adv-x="199" 
d="M7 909h35q123 -110 123 -284q0 -160 -123 -277h-35q113 128 113 275q0 150 -113 286z" />
    <glyph glyph-name="zero.inferior" unicode="&#x2080;" 
d="M323 212q0 -106 -40.5 -163t-109.5 -57q-68 0 -106.5 54.5t-38.5 147.5q0 101 40.5 161t112.5 60q67 0 104.5 -55t37.5 -148zM271 204q0 162 -93 162q-44 0 -70.5 -43t-26.5 -122q0 -161 94 -161q43 0 69.5 41.5t26.5 122.5z" />
    <glyph glyph-name="one.inferior" unicode="&#x2081;" 
d="M216 0h-51v350q-25 -18 -82 -53l-20 37q68 46 105 74h48v-408z" />
    <glyph glyph-name="two.inferior" unicode="&#x2082;" 
d="M306 0h-278v39q125 96 172 147q49 52 49 104q0 32 -19.5 54.5t-59.5 22.5q-50 0 -110 -38l-19 43q71 43 137 43q61 0 92.5 -32t31.5 -88q0 -75 -76 -146q-46 -44 -126 -104q62 1 206 1v-46z" />
    <glyph glyph-name="three.inferior" unicode="&#x2083;" 
d="M53 -12v48q8 -1 24 -1q170 0 170 90q0 33 -18.5 51t-74.5 18q-15 0 -37 -2l-3 40q121 8 121 76q0 58 -72 58q-46 0 -98 -31l-17 45q62 35 123 35q118 0 118 -98q0 -34 -22 -59t-60 -36q44 -2 70.5 -26.5t26.5 -67.5q0 -73 -62 -107t-164 -34q-17 0 -25 1z" />
    <glyph glyph-name="four.inferior" unicode="&#x2084;" 
d="M218 144q0 155 1 202q-39 -61 -139 -202h138zM268 -7h-50v109h-189v36l188 270h51v-264h61v-42h-61v-109z" />
    <glyph glyph-name="five.inferior" unicode="&#x2085;" 
d="M55 -12v46q8 -1 23 -1q83 0 128 27t45 74q0 45 -24 63.5t-72 18.5q-39 0 -85 -15l21 207h198v-46h-155l-14 -112q35 8 58 8q63 0 96 -31t33 -88q0 -76 -61.5 -114t-162.5 -38q-20 0 -28 1z" />
    <glyph glyph-name="six.inferior" unicode="&#x2086;" 
d="M293 415l-4 -48q-18 3 -37 3q-149 0 -163 -182q8 31 38 53t72 22q57 0 88.5 -33t31.5 -97q0 -62 -36.5 -101.5t-100.5 -39.5q-62 0 -103 44.5t-41 142.5q0 104 57 171t155 67q26 0 43 -2zM267 133q0 41 -20.5 65t-60.5 24q-56 0 -77 -49q-10 -18 -10 -45q0 -34 21 -63.5
t62 -29.5q38 0 61.5 26t23.5 72z" />
    <glyph glyph-name="seven.inferior" unicode="&#x2087;" 
d="M152 0h-56q51 166 152 361h-217v46h274v-38q-101 -198 -153 -369z" />
    <glyph glyph-name="eight.inferior" unicode="&#x2088;" 
d="M223 214q89 -28 89 -103q0 -55 -39 -87t-99 -32q-59 0 -98 30t-39 84q0 78 88 107q-73 29 -73 94q0 49 36.5 78.5t89.5 29.5q55 0 88 -27.5t33 -73.5q0 -30 -18.5 -57t-57.5 -43zM169 195q-81 -24 -81 -84q0 -32 23 -52.5t64 -20.5q40 0 63 19.5t23 50.5q0 35 -22.5 54.5
t-69.5 32.5zM179 231q72 23 72 77q0 27 -18.5 44.5t-55.5 17.5q-36 0 -56 -17t-20 -46q0 -56 78 -76z" />
    <glyph glyph-name="nine.inferior" unicode="&#x2089;" 
d="M55 -8l4 47q17 -4 40 -4q146 0 161 188q-9 -33 -37.5 -56t-72.5 -23q-56 0 -88 33t-32 97q0 63 38 102t101 39q62 0 102.5 -43.5t40.5 -141.5q0 -105 -56 -173t-155 -68q-23 0 -46 3zM82 274q0 -90 82 -90q52 0 77 52q10 20 10 45q0 34 -19.5 62t-61.5 28q-38 0 -63 -26
t-25 -71z" />
    <glyph glyph-name="parenleft.inferior" unicode="&#x208d;" horiz-adv-x="199" 
d="M192 -111h-35q-123 110 -123 284q0 160 123 277h35q-113 -128 -113 -275q0 -150 113 -286z" />
    <glyph glyph-name="parenright.inferior" unicode="&#x208e;" horiz-adv-x="199" 
d="M7 450h35q123 -110 123 -284q0 -160 -123 -277h-35q113 128 113 275q0 150 -113 286z" />
    <glyph glyph-name="Euro" unicode="&#x20ac;" horiz-adv-x="655" 
d="M506 247h-278q13 -92 65.5 -142t126.5 -50q54 0 95.5 21t82.5 66l37 -51q-93 -103 -229 -103q-102 0 -171 68.5t-82 190.5h-76v45h74v8q0 32 3 64h-77v44h83q23 119 94 184.5t178 65.5q92 0 168 -44l-31 -65q-65 42 -141 42q-68 0 -121 -45t-73 -138h272v-44h-279
q-3 -28 -3 -60v-12h282v-45z" />
    <glyph glyph-name="afii61289" unicode="&#x2113;" horiz-adv-x="435" 
d="M381 102l32 -39q-66 -75 -152 -75q-63 0 -103 44t-50 130q-24 -21 -56 -41l-25 47q50 34 73 53q-4 102 -4 124q0 121 20 192q15 57 51.5 89t88.5 32q53 0 84 -35.5t31 -94.5q0 -77 -62 -170q-24 -35 -53.5 -65.5t-91.5 -86.5q1 -77 29 -118t79 -41q33 0 56 12.5t53 42.5z
M158 271q80 76 113 125q44 65 44 129q0 77 -63 77q-50 0 -73 -58t-23 -182q0 -51 2 -91z" />
    <glyph glyph-name="trademark" unicode="&#x2122;" horiz-adv-x="833" 
d="M220 316h-47v318h-114v42h276v-42h-115v-318zM442 316h-46l13 360h63q76 -155 110 -232q20 45 110 232h58l15 -360h-47q-12 297 -12 301q-19 -47 -110 -234h-31q-88 178 -113 235q0 -62 -10 -302z" />
    <glyph glyph-name="Omega" unicode="&#x2126;" horiz-adv-x="707" 
d="M310 0h-251v60h197q-195 80 -195 305q0 147 82.5 236t214.5 89q129 0 208 -87.5t79 -230.5q0 -221 -194 -312h197v-60h-251v88q85 34 131 103t46 169q0 118 -62.5 192t-156.5 74q-97 0 -159.5 -74t-62.5 -194q0 -98 45.5 -168.5t131.5 -101.5v-88z" />
    <glyph glyph-name="estimated" unicode="&#x212e;" horiz-adv-x="851" 
d="M803 313h-610q-5 0 -5 -5v-183q0 -11 10 -21q90 -95 230 -95q147 0 242 106h56q-53 -60 -131.5 -94.5t-167.5 -34.5q-156 0 -266.5 98t-110.5 237t110.5 237.5t266.5 98.5t266 -98.5t110 -237.5v-8zM666 337v184q0 10 -10 22q-91 89 -228 89q-141 0 -229 -93
q-11 -11 -11 -23v-179q0 -5 5 -5h468q5 0 5 5z" />
    <glyph glyph-name="onethird" unicode="&#x2153;" horiz-adv-x="795" 
d="M258 0h-47l317 644h46zM217 239h-51v351q-32 -24 -82 -54l-20 37q101 71 105 74h48v-408zM524 -12v48q8 -1 24 -1q170 0 170 90q0 33 -18.5 51t-74.5 18q-15 0 -37 -2l-3 40q121 8 121 76q0 58 -72 58q-46 0 -98 -31l-17 45q62 35 123 35q118 0 118 -98q0 -34 -22 -59
t-60 -36q44 -2 70.5 -26.5t26.5 -67.5q0 -73 -62 -107t-164 -34q-17 0 -25 1z" />
    <glyph glyph-name="twothirds" unicode="&#x2154;" horiz-adv-x="795" 
d="M288 0h-47l317 644h46zM326 239h-278v40q125 96 172 147q49 52 49 103q0 32 -19.5 54.5t-59.5 22.5q-49 0 -110 -37l-19 42q68 43 137 43q61 0 92.5 -32t31.5 -87q0 -75 -76 -146q-48 -47 -126 -104q62 1 206 1v-47zM544 -12v48q8 -1 24 -1q170 0 170 90q0 33 -18.5 51
t-74.5 18q-15 0 -37 -2l-3 40q121 8 121 76q0 58 -72 58q-46 0 -98 -31l-17 45q62 35 123 35q118 0 118 -98q0 -34 -22 -59t-60 -36q44 -2 70.5 -26.5t26.5 -67.5q0 -73 -62 -107t-164 -34q-17 0 -25 1z" />
    <glyph glyph-name="oneeighth" unicode="&#x215b;" horiz-adv-x="795" 
d="M271 0h-47l317 644h46zM222 239h-51v351q-32 -24 -82 -54l-20 37q101 71 105 74h48v-408zM695 214q89 -28 89 -103q0 -55 -39 -87t-99 -32q-59 0 -98 30t-39 84q0 78 88 107q-73 29 -73 94q0 49 36.5 78.5t89.5 29.5q55 0 88 -27.5t33 -73.5q0 -30 -18.5 -57t-57.5 -43z
M641 195q-81 -24 -81 -84q0 -32 23 -52.5t64 -20.5q40 0 63 19.5t23 50.5q0 35 -22.5 54.5t-69.5 32.5zM651 231q72 23 72 77q0 27 -18.5 44.5t-55.5 17.5q-36 0 -56 -17t-20 -46q0 -56 78 -76z" />
    <glyph glyph-name="threeeighths" unicode="&#x215c;" horiz-adv-x="795" 
d="M286 0h-47l317 644h46zM79 227v48q8 -1 24 -1q170 0 170 90q0 33 -18.5 51.5t-74.5 18.5q-4 0 -37 -3l-3 41q121 8 121 76q0 58 -72 58q-44 0 -98 -31l-17 44q59 35 123 35q118 0 118 -98q0 -34 -22 -59t-60 -35q45 -3 71 -27.5t26 -67.5q0 -73 -62 -107t-164 -34
q-17 0 -25 1zM697 214q89 -28 89 -103q0 -55 -39 -87t-99 -32q-59 0 -98 30t-39 84q0 78 88 107q-73 29 -73 94q0 49 36.5 78.5t89.5 29.5q55 0 88 -27.5t33 -73.5q0 -30 -18.5 -57t-57.5 -43zM643 195q-81 -24 -81 -84q0 -32 23 -52.5t64 -20.5q40 0 63 19.5t23 50.5
q0 35 -22.5 54.5t-69.5 32.5zM653 231q72 23 72 77q0 27 -18.5 44.5t-55.5 17.5q-36 0 -56 -17t-20 -46q0 -56 78 -76z" />
    <glyph glyph-name="fiveeighths" unicode="&#x215d;" horiz-adv-x="795" 
d="M293 0h-47l317 644h46zM82 227v47q8 -1 23 -1q83 0 128 27t45 74q0 45 -24 63.5t-72 18.5q-33 0 -85 -15l21 206h198v-46h-155l-14 -111q35 8 58 8q63 0 96 -31t33 -88q0 -76 -61.5 -114.5t-162.5 -38.5q-20 0 -28 1zM704 214q89 -28 89 -103q0 -55 -39 -87t-99 -32
q-59 0 -98 30t-39 84q0 78 88 107q-73 29 -73 94q0 49 36.5 78.5t89.5 29.5q55 0 88 -27.5t33 -73.5q0 -30 -18.5 -57t-57.5 -43zM650 195q-81 -24 -81 -84q0 -32 23 -52.5t64 -20.5q40 0 63 19.5t23 50.5q0 35 -22.5 54.5t-69.5 32.5zM660 231q72 23 72 77q0 27 -18.5 44.5
t-55.5 17.5q-36 0 -56 -17t-20 -46q0 -56 78 -76z" />
    <glyph glyph-name="seveneighths" unicode="&#x215e;" horiz-adv-x="795" 
d="M252 0h-47l317 644h46zM187 239h-56q49 162 152 362h-217v46h274v-38q-100 -197 -153 -370zM700 214q89 -28 89 -103q0 -55 -39 -87t-99 -32q-59 0 -98 30t-39 84q0 78 88 107q-73 29 -73 94q0 49 36.5 78.5t89.5 29.5q55 0 88 -27.5t33 -73.5q0 -30 -18.5 -57t-57.5 -43
zM646 195q-81 -24 -81 -84q0 -32 23 -52.5t64 -20.5q40 0 63 19.5t23 50.5q0 35 -22.5 54.5t-69.5 32.5zM656 231q72 23 72 77q0 27 -18.5 44.5t-55.5 17.5q-36 0 -56 -17t-20 -46q0 -56 78 -76z" />
    <glyph glyph-name="arrowleft" unicode="&#x2190;" horiz-adv-x="768" 
d="M732 370v-66q-500 0 -590 1q91 -83 272 -265l-42 -45l-343 342l344 344l41 -42l-271 -271q86 2 589 2z" />
    <glyph glyph-name="arrowup" unicode="&#x2191;" horiz-adv-x="768" 
d="M352 0q0 504 2 590q-68 -75 -270 -271l-43 40l345 345l341 -344l-44 -41l-265 271q1 -89 1 -590h-67z" />
    <glyph glyph-name="arrowright" unicode="&#x2192;" horiz-adv-x="768" 
d="M35 304v66q503 0 590 -2q-78 71 -272 271l43 42l343 -344l-344 -342l-41 45l271 265q-90 -1 -590 -1z" />
    <glyph glyph-name="arrowdown" unicode="&#x2193;" horiz-adv-x="768" 
d="M352 675h67q0 -501 -1 -590l265 271l44 -41l-341 -344l-345 345l43 41q194 -188 270 -272q-2 86 -2 590z" />
    <glyph glyph-name="uni2196" unicode="&#x2196;" horiz-adv-x="768" 
d="M667 104l-46 -46l-415 418q1 -31 1 -380h-61v483h485v-59q-115 -1 -208.5 -1t-127.5 -0.5t-47 -0.5z" />
    <glyph glyph-name="uni2197" unicode="&#x2197;" horiz-adv-x="768" 
d="M150 58l-47 46l419 414q-13 0 -47 0.5t-127.5 0.5t-208.5 1v59h485v-483h-61q0 317 2 379z" />
    <glyph glyph-name="uni2198" unicode="&#x2198;" horiz-adv-x="768" 
d="M103 563l47 47l415 -418q-2 62 -2 379h61v-482h-485v59q274 1 383 1z" />
    <glyph glyph-name="uni2199" unicode="&#x2199;" horiz-adv-x="768" 
d="M621 612l46 -46l-419 -415q246 0 383 -1v-59h-485v482h61q0 -348 -1 -379z" />
    <glyph glyph-name="partialdiff" unicode="&#x2202;" horiz-adv-x="546" 
d="M417 307q-21 33 -62.5 49t-82.5 16q-64 0 -106 -45t-42 -124q0 -76 40.5 -119t98.5 -43q49 0 88 30t54 92q12 48 12 144zM132 606l-19 51q67 32 149 32q218 0 218 -398q0 -142 -55.5 -222.5t-163.5 -80.5q-89 0 -143 57t-54 157q0 103 58.5 162t147.5 59q93 0 144 -50
q-5 124 -46.5 193t-115.5 69q-71 0 -120 -29z" />
    <glyph glyph-name="Delta" unicode="&#x2206;" horiz-adv-x="643" 
d="M638 0h-633l278 676h81zM322 608q-25 -73 -222 -547h443q-190 461 -221 547z" />
    <glyph glyph-name="product" unicode="&#x220f;" horiz-adv-x="664" 
d="M583 -118h-67v732h-369v-732h-66v794h502v-794z" />
    <glyph glyph-name="summation" unicode="&#x2211;" horiz-adv-x="556" 
d="M533 -118h-498v58l254 355l-245 327v54h483v-61h-398l242 -318l-258 -354h420v-61z" />
    <glyph glyph-name="minus" unicode="&#x2212;" horiz-adv-x="700" 
d="M610 268h-520v54h520v-54z" />
    <glyph glyph-name="uni2215" unicode="&#x2215;" horiz-adv-x="101" 
d="M-84 0h-47l317 644h46z" />
    <glyph glyph-name="uni2219" unicode="&#x2219;" horiz-adv-x="190" 
d="M143 264q0 -26 -13.5 -39t-35.5 -13q-18 0 -33 12.5t-15 39.5t14.5 40.5t34.5 13.5q48 0 48 -54z" />
    <glyph glyph-name="radical" unicode="&#x221a;" horiz-adv-x="638" 
d="M338 -181l-51 -1l-141 289l-67 -31l-22 43l120 57l135 -279l233 781h56z" />
    <glyph glyph-name="infinity" unicode="&#x221e;" horiz-adv-x="730" 
d="M365 329q45 55 86 80.5t89 25.5q61 0 97 -40t36 -103q0 -65 -39 -107t-103 -42q-47 0 -82.5 24t-83.5 83q-49 -58 -86.5 -82t-85.5 -24q-61 0 -99 38.5t-38 103.5q0 66 39.5 107.5t103.5 41.5q46 0 82 -23t84 -83zM333 288q-44 55 -70.5 76.5t-65.5 21.5t-65.5 -27
t-26.5 -69t25.5 -69t64.5 -27q38 0 69.5 23.5t68.5 70.5zM397 290q4 -5 15 -17t15 -16t13 -14t13 -13.5l12 -10.5t12.5 -9.5l12 -6.5t14 -5.5t14 -3t15.5 -1.5q40 0 65 26.5t25 67.5q0 44 -23.5 70.5t-63.5 26.5q-67 0 -139 -94z" />
    <glyph glyph-name="integral" unicode="&#x222b;" horiz-adv-x="321" 
d="M145 -43q0 19 -3 91l-18 462q-2 48 -2 76q0 59 28.5 90.5t82.5 31.5q28 0 58 -7l-6 -52q-20 7 -49 7q-58 0 -58 -77q0 -24 2 -68l19 -462q3 -78 3 -91q0 -63 -28 -90.5t-86 -27.5q-25 0 -56 7l7 53q26 -8 47 -8q29 0 44 13.5t15 51.5z" />
    <glyph glyph-name="approxequal" unicode="&#x2248;" horiz-adv-x="707" 
d="M127 137l-38 31q42 56 78.5 79.5t78.5 23.5q40 0 122 -47q60 -36 99 -36q31 0 56 18.5t55 64.5l39 -30q-35 -55 -69 -81t-82 -26q-50 0 -120 40q-71 41 -104 41q-60 0 -115 -78zM127 325l-38 31q41 56 78 79t79 23q44 0 122 -46q60 -36 99 -36q31 0 56 18.5t55 64.5
l39 -30q-35 -56 -69 -81.5t-82 -25.5t-120 41q-72 40 -104 40q-60 0 -115 -78z" />
    <glyph glyph-name="notequal" unicode="&#x2260;" horiz-adv-x="700" 
d="M235 6h-47l81 166h-179v53h205l67 135h-272v52h297l77 156h48l-77 -156h175v-52h-201l-66 -135h267v-53h-293z" />
    <glyph glyph-name="lessequal" unicode="&#x2264;" horiz-adv-x="700" 
d="M568 146l-451 209v53l451 214v-62l-387 -177l387 -173v-64zM568 0h-451v52h451v-52z" />
    <glyph glyph-name="greaterequal" unicode="&#x2265;" horiz-adv-x="700" 
d="M583 355l-451 -209v63l388 174l-388 176v63l451 -213v-54zM583 0h-451v52h451v-52z" />
    <glyph glyph-name="lozenge" unicode="&#x25ca;" horiz-adv-x="707" 
d="M322 683h64l165 -339l-165 -344h-64l-168 343zM216 343l140 -285l134 286l-135 283z" />
    <glyph glyph-name="Dotlessi" horiz-adv-x="248" 
d="M159 0h-70v676h70v-676z" />
    <glyph glyph-name="Euro.denominator" horiz-adv-x="414" 
d="M318 155h-166q8 -56 39 -86t74 -30q60 0 108 51l29 -30q-58 -68 -146 -68q-63 0 -106 43.5t-52 119.5h-47v31h45v6q0 24 1 36h-46v32h51q14 74 58.5 114.5t111.5 40.5q60 0 109 -29l-25 -44q-41 26 -87 26q-40 0 -71 -26t-43 -82h163v-32h-168q-1 -11 -1 -34v-8h169v-31z
" />
    <glyph glyph-name="Euro.inferior" horiz-adv-x="414" 
d="M318 155h-166q8 -56 39 -86t74 -30q60 0 108 51l29 -30q-58 -68 -146 -68q-63 0 -106 43.5t-52 119.5h-47v31h45v6q0 24 1 36h-46v32h51q14 74 58.5 114.5t111.5 40.5q60 0 109 -29l-25 -44q-41 26 -87 26q-40 0 -71 -26t-43 -82h163v-32h-168q-1 -11 -1 -34v-8h169v-31z
" />
    <glyph glyph-name="Euro.numerator" horiz-adv-x="414" 
d="M318 394h-166q8 -56 39 -86t74 -30q61 0 108 51l30 -30q-61 -68 -147 -68q-63 0 -106 43.5t-52 119.5h-47v32h45v5q0 25 1 37h-46v31h51q14 74 58.5 114.5t111.5 40.5q61 0 110 -29l-26 -44q-40 26 -87 26q-40 0 -71 -26t-43 -82h163v-31h-168q-1 -11 -1 -34v-8h169v-32z
" />
    <glyph glyph-name="Euro.oldstyle" horiz-adv-x="595" 
d="M469 216h-259q12 -81 60.5 -123.5t118.5 -42.5q93 0 166 76l34 -46q-85 -92 -213 -92q-95 0 -159 60t-77 168h-72v42h69v7q0 30 3 57h-72v43h78q22 105 88.5 163.5t165.5 58.5q82 0 157 -40l-29 -60q-58 37 -132 37q-64 0 -113 -39t-67 -120h253v-43h-261q-2 -16 -2 -52
v-12h263v-42z" />
    <glyph glyph-name="Euro.superior" horiz-adv-x="414" 
d="M318 614h-166q8 -56 39 -86t74 -30q60 0 108 51l29 -30q-58 -68 -146 -68q-63 0 -106 43.5t-52 119.5h-47v31h45v6q0 24 1 36h-46v32h51q14 74 58.5 114.5t111.5 40.5q60 0 109 -29l-25 -44q-41 26 -87 26q-40 0 -71 -26t-43 -82h163v-32h-168q-1 -11 -1 -34v-8h169v-31z
" />
    <glyph glyph-name="Kgreenlandic" horiz-adv-x="589" 
d="M159 0h-70v676h70v-354l316 354h87l-241 -266l266 -410h-86l-229 350l-113 -120v-230z" />
    <glyph glyph-name="S_S" horiz-adv-x="1019" 
d="M550 126q84 -70 180 -70q69 0 111 33t42 86q0 39 -26 66t-95 55l-77 32q-71 29 -103 71.5t-32 102.5q0 83 60.5 135.5t167.5 52.5q91 0 174 -44l-35 -66q-66 42 -147 42q-72 0 -108 -33.5t-36 -78.5q0 -42 22 -68t81 -50l86 -36q72 -29 108 -69t36 -100
q0 -92 -62.5 -145.5t-170.5 -53.5q-58 0 -117.5 20t-105.5 57zM84 126q84 -70 180 -70q69 0 111 33t42 86q0 39 -26 66t-95 55l-77 32q-71 29 -103 71.5t-32 102.5q0 83 60.5 135.5t167.5 52.5q91 0 174 -44l-35 -66q-66 42 -147 42q-72 0 -108 -33.5t-36 -78.5
q0 -42 22 -68t81 -50l86 -36q72 -29 108 -69t36 -100q0 -92 -62.5 -145.5t-170.5 -53.5q-58 0 -117.5 20t-105.5 57z" />
    <glyph glyph-name="acute.cap" horiz-adv-x="201" 
d="M36 727h-73l171 146h102z" />
    <glyph glyph-name="ampersand.alt" horiz-adv-x="649" 
d="M624 -14q-75 18 -152 82q-82 -80 -201 -80q-99 0 -162.5 58t-63.5 149q0 78 36.5 127.5t114.5 86.5q-33 60 -33 122q0 66 48.5 112.5t130.5 46.5q77 0 142 -35l-34 -63q-44 32 -102 32q-55 0 -82 -30t-27 -71q0 -58 40 -120q113 -161 195 -237q55 61 80 160l67 -21
q-14 -53 -42 -104.5t-55 -81.5q51 -42 122 -68zM423 116q-108 105 -195 238q-60 -29 -85.5 -64.5t-25.5 -86.5q0 -21 8 -44.5t25 -48t49.5 -40t75.5 -15.5q85 0 148 61z" />
    <glyph glyph-name="braceleft.cap" horiz-adv-x="300" 
d="M296 -126q-93 0 -134 34.5t-41 127.5v114q0 67 -21 95.5t-72 35.5v36q54 10 73.5 39t19.5 93v114q0 93 40.5 127.5t134.5 34.5v-44q-27 0 -43.5 -3t-35 -13.5t-27 -35t-8.5 -62.5v-120q0 -71 -19.5 -101t-65.5 -46q43 -10 64 -42t21 -100v-122q0 -68 31 -93.5t83 -25.5
v-43z" />
    <glyph glyph-name="braceright.cap" horiz-adv-x="300" 
d="M4 725q93 0 134.5 -34t41.5 -127v-115q0 -68 20.5 -96t71.5 -35v-36q-53 -10 -72.5 -39t-19.5 -93v-113q0 -93 -41 -128t-135 -35v44q27 0 44 3t35 13.5t26.5 35t8.5 63.5v119q0 71 19.5 101t65.5 46q-43 10 -64 42.5t-21 99.5v122q0 68 -31 93.5t-83 25.5v43z" />
    <glyph glyph-name="bracketleft.cap" horiz-adv-x="265" 
d="M262 -118h-175v833h175v-44h-115v-743h115v-46z" />
    <glyph glyph-name="bracketright.cap" horiz-adv-x="265" 
d="M4 715h175v-833h-175v45h115v743h-115v45z" />
    <glyph glyph-name="breve.cap" horiz-adv-x="201" 
d="M238 857q-1 -57 -39 -95t-101 -38q-64 0 -99 38t-35 95h49q9 -79 86 -79q82 0 89 79h50z" />
    <glyph glyph-name="caron.alt" horiz-adv-x="191" 
d="M151 719q-9 -89 -58 -192h-53q32 85 43 192h68z" />
    <glyph glyph-name="caron.cap" horiz-adv-x="201" 
d="M196 853h62l-124 -126h-67l-124 126h63l95 -75z" />
    <glyph glyph-name="cedilla.cap" horiz-adv-x="201" 
d="M4 -231l16 50q28 -8 58 -8q53 0 53 40t-57 40q-12 0 -37 -3l47 122h50l-30 -70q49 -4 70 -28t21 -57q0 -42 -32.5 -69t-90.5 -27q-38 0 -68 10z" />
    <glyph glyph-name="cent.denominator" horiz-adv-x="312" 
d="M202 -65h-32v62q-54 2 -88.5 41.5t-34.5 107.5q0 71 34 114t89 52v66h32v-63q48 -1 83 -21l-21 -41q-29 19 -62 20v-231q37 4 76 36l24 -30q-41 -40 -100 -49v-64zM98 148q0 -97 72 -106v228q-72 -18 -72 -122z" />
    <glyph glyph-name="cent.inferior" horiz-adv-x="312" 
d="M202 -65h-32v62q-54 2 -88.5 41.5t-34.5 107.5q0 71 34 114t89 52v66h32v-63q48 -1 83 -21l-21 -41q-29 19 -62 20v-231q37 4 76 36l24 -30q-41 -40 -100 -49v-64zM98 148q0 -97 72 -106v228q-72 -18 -72 -122z" />
    <glyph glyph-name="cent.numerator" horiz-adv-x="312" 
d="M202 175h-32v62q-54 2 -88.5 41.5t-34.5 107.5q0 71 34 114t89 52v66h32v-63q48 -1 83 -21l-21 -41q-29 19 -62 20v-231q37 4 76 36l24 -30q-41 -40 -100 -49v-64zM98 388q0 -97 72 -106v228q-72 -18 -72 -122z" />
    <glyph glyph-name="cent.oldstyle" horiz-adv-x="428" 
d="M279 -101h-41v101q-74 5 -119.5 55t-45.5 135q0 92 45 149t120 69v93h41v-90q64 0 116 -27l-24 -51q-44 26 -92 26v-305q61 6 113 53l26 -41q-62 -56 -139 -64v-103zM138 195q0 -124 100 -139v298q-48 -12 -74 -53.5t-26 -105.5z" />
    <glyph glyph-name="cent.superior" horiz-adv-x="312" 
d="M202 394h-32v62q-54 2 -88.5 41.5t-34.5 107.5q0 71 34 114t89 52v66h32v-63q48 -1 83 -21l-21 -41q-29 19 -62 20v-231q37 4 76 36l24 -30q-41 -40 -100 -49v-64zM98 607q0 -97 72 -106v228q-72 -18 -72 -122z" />
    <glyph glyph-name="circumflex.cap" horiz-adv-x="201" 
d="M5 727h-62l124 126h67l124 -126h-63l-95 75z" />
    <glyph glyph-name="comma.denominator" horiz-adv-x="122" 
d="M96 62q-9 -78 -52 -162h-40q31 70 40 162h52z" />
    <glyph glyph-name="comma.inferior" horiz-adv-x="122" 
d="M96 62q-9 -78 -52 -162h-40q31 70 40 162h52z" />
    <glyph glyph-name="comma.numerator" horiz-adv-x="122" 
d="M96 301q-9 -77 -52 -161h-40q31 67 40 161h52z" />
    <glyph glyph-name="comma.superior" horiz-adv-x="122" 
d="M96 521q-9 -78 -52 -162h-40q31 70 40 162h52z" />
    <glyph glyph-name="commaaccent" horiz-adv-x="191" 
d="M151 -54q-9 -93 -58 -193h-53q33 86 43 193h68z" />
    <glyph glyph-name="dieresis.cap" horiz-adv-x="201" 
d="M53 783q0 -41 -39 -41q-38 0 -38 41q0 42 39 42q38 0 38 -42zM225 783q0 -41 -39 -41q-38 0 -38 41q0 42 39 42q38 0 38 -42z" />
    <glyph glyph-name="dollar.denominator" horiz-adv-x="328" 
d="M185 -64h-31v61q-81 0 -137 46l30 41q52 -42 107 -42v140l-27 10q-83 31 -83 106q0 42 29 72t81 37v68h31v-66q52 -2 105 -28l-25 -43q-38 23 -80 26v-140l19 -7q90 -35 90 -103q0 -47 -29 -76.5t-80 -37.5v-64zM99 303q0 -24 11 -38t44 -28v125q-55 -11 -55 -59z
M237 106q0 41 -52 64v-125q52 13 52 61z" />
    <glyph glyph-name="dollar.inferior" horiz-adv-x="328" 
d="M185 -64h-31v61q-81 0 -137 46l30 41q52 -42 107 -42v140l-27 10q-83 31 -83 106q0 42 29 72t81 37v68h31v-66q52 -2 105 -28l-25 -43q-38 23 -80 26v-140l19 -7q90 -35 90 -103q0 -47 -29 -76.5t-80 -37.5v-64zM99 303q0 -24 11 -38t44 -28v125q-55 -11 -55 -59z
M237 106q0 41 -52 64v-125q52 13 52 61z" />
    <glyph glyph-name="dollar.numerator" horiz-adv-x="328" 
d="M184 175h-31v61h-3q-79 0 -135 46l32 41q50 -41 106 -41v139l-26 11q-83 35 -83 105q0 42 29 72.5t80 37.5v67h31v-65q56 0 106 -28l-25 -43q-36 23 -81 25v-139l20 -8q90 -34 90 -103q0 -47 -29.5 -77t-80.5 -38v-63zM99 542q0 -24 11 -38t43 -28v125q-54 -11 -54 -59z
M237 345q0 21 -11 35.5t-42 28.5v-124q53 11 53 60z" />
    <glyph glyph-name="dollar.oldstyle" horiz-adv-x="480" 
d="M280 -101h-42v99h-2q-110 0 -198 64l39 56q78 -59 161 -59v201l-39 14q-65 23 -93.5 59t-28.5 88q0 58 42 99t119 51v105h42v-102h4q81 0 157 -37l-31 -60q-59 34 -130 36v-196l36 -13q67 -26 99.5 -59.5t32.5 -83.5q0 -66 -45 -108.5t-123 -52.5v-101zM373 150
q0 31 -19.5 51.5t-73.5 42.5v-182q44 7 68.5 29.5t24.5 58.5zM149 427q0 -34 18.5 -54.5t70.5 -38.5v176q-45 -8 -67 -31.5t-22 -51.5z" />
    <glyph glyph-name="dollar.superior" horiz-adv-x="328" 
d="M185 395h-31v61q-81 0 -137 46l30 41q52 -42 107 -42v140l-27 10q-83 31 -83 106q0 42 29 72t81 37v68h31v-66q52 -2 105 -28l-25 -43q-38 23 -80 26v-140l19 -7q90 -34 90 -103q0 -47 -29 -76.5t-80 -37.5v-64zM99 762q0 -24 11 -38t44 -28v125q-55 -11 -55 -59z
M237 565q0 41 -52 64v-125q52 13 52 61z" />
    <glyph glyph-name="dotaccent.cap" horiz-adv-x="201" 
d="M139 783q0 -41 -39 -41q-38 0 -38 41q0 42 39 42q38 0 38 -42z" />
    <glyph glyph-name="eight.denominator" 
d="M223 214q89 -28 89 -103q0 -55 -39 -87t-99 -32q-59 0 -98 30t-39 84q0 78 88 107q-73 29 -73 94q0 49 36.5 78.5t89.5 29.5q55 0 88 -27.5t33 -73.5q0 -30 -18.5 -57t-57.5 -43zM169 195q-81 -24 -81 -84q0 -32 23 -52.5t64 -20.5q40 0 63 19.5t23 50.5q0 35 -22.5 54.5
t-69.5 32.5zM179 231q72 23 72 77q0 27 -18.5 44.5t-55.5 17.5q-36 0 -56 -17t-20 -46q0 -56 78 -76z" />
    <glyph glyph-name="eight.fitted" horiz-adv-x="550" 
d="M354 340q68 -22 103.5 -65t35.5 -99q0 -87 -62.5 -137.5t-155.5 -50.5q-95 0 -156.5 49t-61.5 132q0 118 137 168q-112 46 -112 151q0 79 56.5 124.5t141.5 45.5q90 0 141 -42.5t51 -115.5q0 -108 -118 -160zM265 309q-68 -16 -102.5 -50.5t-34.5 -82.5q0 -53 39.5 -88
t107.5 -35q67 0 107.5 33.5t40.5 85.5q0 56 -39 87t-119 50zM284 367q55 13 88.5 44.5t33.5 76.5t-31 76t-95 31q-61 0 -95.5 -30t-34.5 -77q0 -50 33 -77.5t101 -43.5z" />
    <glyph glyph-name="eight.numerator" 
d="M223 454q89 -28 89 -103q0 -56 -39 -88t-99 -32q-59 0 -98 30.5t-39 84.5q0 77 88 106q-73 29 -73 95q0 49 36.5 78t89.5 29q55 0 88 -27t33 -73q0 -71 -76 -100zM169 434q-40 -11 -60.5 -33.5t-20.5 -49.5q0 -33 23 -53t64 -20q40 0 63 19.5t23 50.5q0 34 -22.5 54
t-69.5 32zM179 471q72 23 72 77q0 27 -18.5 44.5t-55.5 17.5q-36 0 -56 -17.5t-20 -45.5q0 -56 78 -76z" />
    <glyph glyph-name="eight.oldstyle" horiz-adv-x="518" 
d="M337 340q132 -46 132 -167q0 -86 -61.5 -135.5t-152.5 -49.5t-149 48.5t-58 132.5q0 59 35 102.5t95 65.5q-105 43 -105 151q0 78 55 124t136 46q86 0 136 -43t50 -117q0 -106 -113 -158zM249 307q-65 -16 -98.5 -51t-33.5 -80q0 -54 38.5 -89t103.5 -35t103.5 34
t38.5 86q0 54 -38 85.5t-114 49.5zM268 369q53 14 85 44.5t32 74.5q0 46 -30 77.5t-91 31.5q-59 0 -93 -30.5t-34 -78.5q0 -50 32.5 -76.5t98.5 -42.5z" />
    <glyph glyph-name="eight.taboldstyle" horiz-adv-x="525" 
d="M342 340q132 -46 132 -167q0 -86 -61.5 -135.5t-152.5 -49.5t-149 48.5t-58 132.5q0 59 35 102.5t95 65.5q-105 43 -105 151q0 78 55 124t136 46q86 0 136 -43t50 -117q0 -106 -113 -158zM254 307q-65 -16 -98.5 -51t-33.5 -80q0 -54 38.5 -89t103.5 -35t103.5 34
t38.5 86q0 54 -38 85.5t-114 49.5zM273 369q53 14 85 44.5t32 74.5q0 46 -30 77.5t-91 31.5q-59 0 -93 -30.5t-34 -78.5q0 -50 32.5 -76.5t98.5 -42.5z" />
    <glyph glyph-name="emdash.cap" horiz-adv-x="878" 
d="M842 289h-805v51h805v-51z" />
    <glyph glyph-name="endash.cap" horiz-adv-x="525" 
d="M488 289h-451v51h451v-51z" />
    <glyph glyph-name="estimated.alt" horiz-adv-x="731" 
d="M701 97q-148 -109 -321 -109q-155 0 -246 90t-91 236q0 166 101.5 255t246.5 89q67 0 119.5 -16.5t86 -45t55.5 -69.5t31.5 -86t9.5 -99l-578 -20q1 -130 74.5 -198.5t201.5 -68.5q151 0 273 98zM620 398q-15 199 -235 199q-102 0 -176.5 -56.5t-91.5 -162.5z" />
    <glyph glyph-name="five.denominator" 
d="M55 -12v46q8 -1 23 -1q83 0 128 27t45 74q0 45 -24 63.5t-72 18.5q-39 0 -85 -15l21 207h198v-46h-155l-14 -112q35 8 58 8q63 0 96 -31t33 -88q0 -76 -61.5 -114t-162.5 -38q-20 0 -28 1z" />
    <glyph glyph-name="five.fitted" horiz-adv-x="516" 
d="M64 -19v69q14 -1 37 -1q136 0 212.5 44.5t76.5 120.5q0 71 -41.5 101t-121.5 30q-55 0 -138 -25l34 327h320v-66h-262l-20 -182q48 13 101 13q98 0 151.5 -50t53.5 -143q0 -119 -100 -179t-262 -60q-27 0 -41 1z" />
    <glyph glyph-name="five.numerator" 
d="M55 227v47q8 -1 23 -1q83 0 128 27t45 74q0 45 -24 63.5t-72 18.5q-33 0 -85 -15l21 206h198v-46h-155l-14 -111q35 8 58 8q63 0 96 -31t33 -88q0 -76 -61.5 -114.5t-162.5 -38.5q-20 0 -28 1z" />
    <glyph glyph-name="five.oldstyle" horiz-adv-x="490" 
d="M60 -142v68q13 -1 35 -1q127 0 198.5 44.5t71.5 119.5q0 132 -151 132q-62 0 -131 -24l33 316h301v-65h-244l-20 -173q43 12 93 12q92 0 142.5 -50.5t50.5 -141.5q0 -119 -93.5 -178.5t-246.5 -59.5q-26 0 -39 1z" />
    <glyph glyph-name="five.taboldstyle" horiz-adv-x="525" 
d="M72 -142v68q13 -1 31 -1q128 0 201.5 44.5t73.5 119.5q0 132 -152 132q-66 0 -135 -24l33 316h305v-65h-248l-20 -173q43 12 97 12q92 0 143 -50.5t51 -141.5q0 -119 -95.5 -178.5t-249.5 -59.5q-22 0 -35 1z" />
    <glyph glyph-name="florin.denominator" horiz-adv-x="284" 
d="M243 224h-81l-16 -189q-3 -38 -13 -64q-17 -53 -87 -53q-24 0 -48 6l11 47q14 -5 33 -5q35 0 47 29q5 17 7 46l14 183h-59v36h62l4 42q3 43 17 69q26 44 85 44q32 0 56 -8l-12 -46q-21 7 -39 7q-30 0 -45 -26q-8 -13 -11 -45l-3 -37h78v-36z" />
    <glyph glyph-name="florin.inferior" horiz-adv-x="284" 
d="M243 224h-81l-16 -189q-3 -38 -13 -64q-17 -53 -87 -53q-24 0 -48 6l11 47q14 -5 33 -5q35 0 47 29q5 17 7 46l14 183h-59v36h62l4 42q3 43 17 69q26 44 85 44q32 0 56 -8l-12 -46q-21 7 -39 7q-30 0 -45 -26q-8 -13 -11 -45l-3 -37h78v-36z" />
    <glyph glyph-name="florin.numerator" horiz-adv-x="284" 
d="M243 463h-81l-16 -189q-3 -36 -13 -64q-17 -53 -87 -53q-24 0 -48 6l11 47q18 -5 33 -5q35 0 47 29q5 17 7 46l14 183h-59v36h62l4 43q4 44 17 68q25 44 85 44q35 0 56 -7l-12 -46q-18 6 -39 6q-31 0 -45 -26q-7 -13 -11 -44l-3 -38h78v-36z" />
    <glyph glyph-name="florin.oldstyle" horiz-adv-x="422" 
d="M360 314h-125l-22 -253q-6 -63 -18 -92q-30 -73 -128 -73q-37 0 -69 8l13 63q23 -8 53 -8q52 0 70 42q9 27 12 64l21 249h-92v50h96l7 66q7 66 25 97q39 63 124 63q46 0 81 -11l-13 -61q-34 9 -61 9q-54 0 -73 -37q-11 -17 -17 -64l-6 -62h122v-50z" />
    <glyph glyph-name="florin.superior" horiz-adv-x="284" 
d="M243 683h-81l-16 -189q-3 -38 -13 -64q-17 -53 -87 -53q-24 0 -48 6l11 47q14 -5 33 -5q35 0 47 29q5 17 7 46l14 183h-59v36h62l4 42q3 43 17 69q26 44 85 44q32 0 56 -8l-12 -46q-21 7 -39 7q-30 0 -45 -26q-8 -13 -11 -45l-3 -37h78v-36z" />
    <glyph glyph-name="four.denominator" 
d="M218 144q0 155 1 202q-39 -61 -139 -202h138zM268 -7h-50v109h-189v36l188 270h51v-264h61v-42h-61v-109z" />
    <glyph glyph-name="four.fitted" horiz-adv-x="564" 
d="M372 226q0 252 2 328l-247 -328h245zM441 -12h-69v178h-326v49l324 432h71v-421h98v-60h-98v-178z" />
    <glyph glyph-name="four.numerator" 
d="M218 384q0 154 1 202q-32 -51 -139 -202h138zM268 232h-50v110h-189v35l188 270h51v-263h61v-42h-61v-110z" />
    <glyph glyph-name="four.oldstyle" horiz-adv-x="536" 
d="M345 90q0 255 2 330q-92 -138 -232 -330h230zM413 -140h-68v171h-308v48l307 434h69v-423h98v-59h-98v-171z" />
    <glyph glyph-name="four.taboldstyle" horiz-adv-x="525" 
d="M338 90q0 254 2 330q-97 -147 -230 -330h228zM405 -140h-67v171h-306v48l306 434h67v-423h99v-59h-99v-171z" />
    <glyph glyph-name="fourfifths" horiz-adv-x="795" 
d="M307 0h-47l317 644h46zM226 384q0 154 1 202q-32 -51 -139 -202h138zM276 232h-50v110h-189v35l188 270h51v-263h61v-42h-61v-110zM540 -12v46q8 -1 23 -1q83 0 128 27t45 74q0 45 -24 63.5t-72 18.5q-38 0 -85 -15l21 207h198v-46h-155l-14 -112q35 8 58 8q63 0 96 -31
t33 -88q0 -76 -61.5 -114t-162.5 -38q-20 0 -28 1z" />
    <glyph glyph-name="grave.cap" horiz-adv-x="201" 
d="M236 727h-71l-202 146h102z" />
    <glyph glyph-name="guillemotleft.cap" horiz-adv-x="492" 
d="M217 495h71l-175 -184l176 -189h-73l-186 187zM391 495h71l-175 -184l176 -189h-72l-188 187z" />
    <glyph glyph-name="guillemotright.cap" horiz-adv-x="492" 
d="M275 122h-71l175 184l-176 189h73l187 -187zM101 122h-71l175 184l-176 189h73l187 -187z" />
    <glyph glyph-name="guilsinglleft.cap" horiz-adv-x="319" 
d="M217 495h71l-175 -184l176 -189h-73l-186 187z" />
    <glyph glyph-name="guilsinglright.cap" horiz-adv-x="318" 
d="M101 122h-71l175 184l-176 189h73l187 -187z" />
    <glyph glyph-name="hungarumlaut.cap" horiz-adv-x="201" 
d="M-36 727h-70l153 146h93zM131 727h-70l153 146h94z" />
    <glyph glyph-name="hyphen.cap" horiz-adv-x="304" 
d="M267 288h-230v52h230v-52z" />
    <glyph glyph-name="hyphen.denominator" horiz-adv-x="194" 
d="M172 155h-149v42h149v-42z" />
    <glyph glyph-name="hyphen.inferior" horiz-adv-x="194" 
d="M172 155h-149v42h149v-42z" />
    <glyph glyph-name="hyphen.numerator" horiz-adv-x="194" 
d="M172 395h-149v42h149v-42z" />
    <glyph glyph-name="hyphen.superior" horiz-adv-x="194" 
d="M172 614h-149v42h149v-42z" />
    <glyph glyph-name="idotaccent" horiz-adv-x="230" 
d="M148 0h-67v487l67 11v-498zM156 638q0 -43 -42 -43q-41 0 -41 43t42 43q41 0 41 -43z" />
    <glyph glyph-name="macron.cap" horiz-adv-x="201" 
d="M243 748h-285v55h285v-55z" />
    <glyph glyph-name="nine.denominator" 
d="M55 -8l4 47q17 -4 40 -4q146 0 161 188q-9 -33 -37.5 -56t-72.5 -23q-56 0 -88 33t-32 97q0 63 38 102t101 39q62 0 102.5 -43.5t40.5 -141.5q0 -105 -56 -173t-155 -68q-23 0 -46 3zM82 274q0 -90 82 -90q52 0 77 52q10 20 10 45q0 34 -19.5 62t-61.5 28q-38 0 -63 -26
t-25 -71z" />
    <glyph glyph-name="nine.fitted" horiz-adv-x="554" 
d="M95 -15l12 68q24 -5 60 -5q118 0 186 76.5t81 201.5q-24 -41 -71 -69t-109 -28q-88 0 -140 52t-52 153q0 99 60 161.5t162 62.5q44 0 81.5 -15t71 -47t52.5 -92t19 -142q0 -165 -90.5 -273.5t-247.5 -108.5q-44 0 -75 5zM133 434q0 -63 37 -102.5t104 -39.5q47 0 81 24.5
t52 59.5q14 30 14 69q0 57 -35.5 103.5t-105.5 46.5q-66 0 -106.5 -44t-40.5 -117z" />
    <glyph glyph-name="nine.numerator" 
d="M55 231l4 47q20 -3 40 -3q146 0 161 188q-9 -33 -37.5 -56.5t-72.5 -23.5q-56 0 -88 33t-32 97q0 63 38 102t101 39q62 0 102.5 -43t40.5 -141q0 -105 -56 -173t-155 -68q-16 0 -46 2zM82 513q0 -89 82 -89q52 0 77 52q10 20 10 45q0 34 -19.5 62t-61.5 28
q-38 0 -63 -26.5t-25 -71.5z" />
    <glyph glyph-name="nine.oldstyle" horiz-adv-x="544" 
d="M78 -143l6 67q25 -4 62 -4q122 0 187.5 74.5t77.5 205.5q-54 -101 -178 -101q-83 0 -135.5 52.5t-52.5 151.5t60 161.5t159 62.5q41 0 77.5 -14.5t69 -47t51.5 -93t19 -142.5q0 -165 -88.5 -271.5t-242.5 -106.5q-41 0 -72 5zM113 303q0 -62 35 -103t102 -41
q45 0 80.5 24t52.5 60q13 27 13 72q0 57 -34 103.5t-102 46.5q-65 0 -106 -44t-41 -118z" />
    <glyph glyph-name="nine.taboldstyle" horiz-adv-x="525" 
d="M70 -143l6 67q25 -4 62 -4q122 0 187.5 74.5t77.5 205.5q-54 -101 -178 -101q-86 0 -137 52t-51 152q0 99 60 161.5t159 62.5q41 0 77.5 -14.5t69 -47t51.5 -93t19 -142.5q0 -165 -88.5 -271.5t-242.5 -106.5q-41 0 -72 5zM105 303q0 -62 35 -103t102 -41q45 0 80.5 24
t52.5 60q13 27 13 72q0 57 -34 103.5t-102 46.5q-65 0 -106 -44t-41 -118z" />
    <glyph glyph-name="numbersign.oldstyle" horiz-adv-x="546" 
d="M163 -26h-42l26 181h-110v56h118l16 113h-109v56h117l25 169h42l-25 -169h137l25 169h42l-25 -169h110v-56h-118l-16 -113h107v-56h-115l-26 -181h-42l26 181h-137zM213 324l-16 -113h137l16 113h-137z" />
    <glyph glyph-name="ogonek.cap" horiz-adv-x="201" 
d="M179 7q-108 -77 -108 -138q0 -26 15.5 -40t39.5 -14q28 0 55 12l17 -47q-37 -21 -82 -21q-49 0 -78 27t-29 68q0 85 111 153h59z" />
    <glyph glyph-name="one.denominator" 
d="M216 0h-51v350q-25 -18 -82 -53l-20 37q68 46 105 74h48v-408z" />
    <glyph glyph-name="one.fitted" horiz-adv-x="423" 
d="M272 0h-70v562q-63 -43 -134 -85l-29 51q81 53 172 119h61v-647z" />
    <glyph glyph-name="one.numerator" 
d="M216 239h-51v351q-32 -24 -82 -54l-20 37q101 71 105 74h48v-408z" />
    <glyph glyph-name="one.oldstyle" horiz-adv-x="400" 
d="M367 0h-287v60h112v375q-69 -41 -127 -70l-28 50q60 35 164 102h59v-457h107v-60z" />
    <glyph glyph-name="one.taboldstyle" horiz-adv-x="525" 
d="M438 0h-310v60h128v375q-82 -46 -145 -75l-27 51q75 40 181 106h58v-457h115v-60z" />
    <glyph glyph-name="onefifth" horiz-adv-x="795" 
d="M263 0h-47l317 644h46zM223 239h-51v351q-32 -24 -82 -54l-20 37q101 71 105 74h48v-408zM520 -12v46q8 -1 23 -1q83 0 128 27t45 74q0 45 -24 63.5t-72 18.5q-38 0 -85 -15l21 207h198v-46h-155l-14 -112q35 8 58 8q63 0 96 -31t33 -88q0 -76 -61.5 -114t-162.5 -38
q-20 0 -28 1z" />
    <glyph glyph-name="parenleft.cap" horiz-adv-x="296" 
d="M301 -126h-49q-202 169 -202 432q0 75 17 140t48 116.5t62.5 88t73.5 74.5h50q-41 -45 -70 -83.5t-57.5 -90t-43 -112.5t-14.5 -130q0 -77 16 -144t46.5 -122t57 -90.5t65.5 -78.5z" />
    <glyph glyph-name="parenleft.denominator" horiz-adv-x="199" 
d="M192 -111h-35q-123 110 -123 284q0 160 123 277h35q-113 -128 -113 -275q0 -150 113 -286z" />
    <glyph glyph-name="parenleft.numerator" horiz-adv-x="199" 
d="M192 129h-35q-123 110 -123 284q0 160 123 277h35q-113 -128 -113 -275q0 -150 113 -286z" />
    <glyph glyph-name="parenright.cap" horiz-adv-x="296" 
d="M-3 726h49q202 -169 202 -432q0 -75 -17 -140t-48 -116.5t-62.5 -88t-73.5 -74.5h-50q41 45 70 83.5t57.5 90t43 112.5t14.5 130q0 77 -16 144t-46.5 122t-57 90.5t-65.5 78.5z" />
    <glyph glyph-name="parenright.denominator" horiz-adv-x="199" 
d="M7 450h35q123 -110 123 -284q0 -160 -123 -277h-35q113 128 113 275q0 150 -113 286z" />
    <glyph glyph-name="parenright.numerator" horiz-adv-x="199" 
d="M7 690h35q123 -110 123 -284q0 -160 -123 -277h-35q113 128 113 275q0 150 -113 286z" />
    <glyph glyph-name="percent.oldstyle" horiz-adv-x="756" 
d="M258 -30h-46l283 575h45zM315 365q0 -85 -39 -131.5t-107 -46.5q-66 0 -103.5 44t-37.5 120q0 82 39.5 130.5t109.5 48.5q65 0 101.5 -44.5t36.5 -120.5zM264 360q0 123 -91 123q-42 0 -67.5 -33t-25.5 -94q0 -122 91 -122q42 0 67.5 31.5t25.5 94.5zM728 168
q0 -86 -39.5 -132.5t-107.5 -46.5q-65 0 -102.5 44.5t-37.5 120.5q0 81 39 129.5t109 48.5q65 0 102 -44t37 -120zM677 162q0 123 -91 123q-42 0 -67.5 -32.5t-25.5 -93.5q0 -123 91 -123q41 0 67 32t26 94z" />
    <glyph glyph-name="period.denominator" horiz-adv-x="122" 
d="M94 30q0 -36 -34 -36q-14 0 -24 8.5t-10 27.5q0 18 10 27.5t24 9.5q34 0 34 -37z" />
    <glyph glyph-name="period.inferior" horiz-adv-x="122" 
d="M94 30q0 -36 -34 -36q-14 0 -24 8.5t-10 27.5q0 18 10 27.5t24 9.5q34 0 34 -37z" />
    <glyph glyph-name="period.numerator" horiz-adv-x="122" 
d="M94 270q0 -36 -34 -36q-14 0 -24 8.5t-10 27.5q0 18 10 27.5t24 9.5q34 0 34 -37z" />
    <glyph glyph-name="period.superior" horiz-adv-x="122" 
d="M94 489q0 -36 -34 -36q-14 0 -24 8.5t-10 27.5q0 18 10 27.5t24 9.5q34 0 34 -37z" />
    <glyph glyph-name="periodcentered.cap" horiz-adv-x="190" 
d="M143 311q0 -26 -13.5 -39t-35.5 -13q-18 0 -33 12.5t-15 39.5t14.5 40.5t34.5 13.5q48 0 48 -54z" />
    <glyph glyph-name="perthousand.oldstyle" horiz-adv-x="1100" 
d="M315 365q0 -85 -39 -131.5t-107 -46.5q-66 0 -103.5 44t-37.5 120q0 82 39.5 130.5t109.5 48.5q65 0 101.5 -44.5t36.5 -120.5zM264 360q0 123 -91 123q-42 0 -67.5 -33t-25.5 -94q0 -122 91 -122q42 0 67.5 31.5t25.5 94.5zM728 168q0 -86 -39.5 -132.5t-107.5 -46.5
q-65 0 -102.5 44.5t-37.5 120.5q0 81 39 129.5t109 48.5q65 0 102 -44t37 -120zM677 162q0 123 -91 123q-42 0 -67.5 -32.5t-25.5 -93.5q0 -123 91 -123q41 0 67 32t26 94zM1071 168q0 -86 -39 -132.5t-107 -46.5q-66 0 -103.5 44.5t-37.5 120.5q0 81 39.5 129.5t109.5 48.5
q65 0 101.5 -44t36.5 -120zM1020 162q0 123 -90 123q-42 0 -67.5 -32.5t-25.5 -93.5q0 -123 90 -123q42 0 67.5 32t25.5 94zM258 -30h-46l283 575h45z" />
    <glyph glyph-name="ring.cap" horiz-adv-x="201" 
d="M186 798q0 -36 -24 -62.5t-61 -26.5t-61 25t-24 62q0 38 24.5 62.5t61.5 24.5q39 0 61.5 -23t22.5 -62zM153 797q0 25 -14.5 39.5t-37.5 14.5t-37 -15t-14 -40t13.5 -40t39.5 -15q23 0 36.5 15.5t13.5 40.5z" />
    <glyph glyph-name="seven.denominator" 
d="M152 0h-56q51 166 152 361h-217v46h274v-38q-101 -198 -153 -369z" />
    <glyph glyph-name="seven.fitted" horiz-adv-x="482" 
d="M200 0h-82q89 278 250 581h-357v66h435v-56q-166 -335 -246 -591z" />
    <glyph glyph-name="seven.numerator" 
d="M152 239h-56q49 162 152 362h-217v46h274v-38q-100 -197 -153 -370z" />
    <glyph glyph-name="seven.oldstyle" horiz-adv-x="475" 
d="M192 -132h-81q83 260 253 584h-352v65h428v-56q-172 -349 -248 -593z" />
    <glyph glyph-name="seven.taboldstyle" horiz-adv-x="525" 
d="M209 -132h-81q84 256 256 584h-357v65h434v-56q-174 -343 -252 -593z" />
    <glyph glyph-name="six.denominator" 
d="M293 415l-4 -48q-18 3 -37 3q-149 0 -163 -182q8 31 38 53t72 22q57 0 88.5 -33t31.5 -97q0 -62 -36.5 -101.5t-100.5 -39.5q-62 0 -103 44.5t-41 142.5q0 104 57 171t155 67q26 0 43 -2zM267 133q0 41 -20.5 65t-60.5 24q-56 0 -77 -49q-10 -18 -10 -45q0 -34 21 -63.5
t62 -29.5q38 0 61.5 26t23.5 72z" />
    <glyph glyph-name="six.fitted" horiz-adv-x="554" 
d="M474 661l-10 -69q-25 4 -59 4q-119 0 -186 -71t-85 -203q63 98 184 98q87 0 138.5 -54t51.5 -155q0 -99 -59.5 -161t-161.5 -62q-42 0 -79.5 15t-72 47.5t-54.5 92.5t-20 142q0 164 94.5 272.5t249.5 108.5q38 0 69 -5zM438 211q0 65 -35.5 106t-104.5 41
q-47 0 -82.5 -24t-53.5 -60q-15 -32 -15 -71q0 -57 37 -105t107 -48q67 0 107 43.5t40 117.5z" />
    <glyph glyph-name="six.numerator" 
d="M293 654l-4 -48q-12 3 -37 3q-149 0 -163 -181q8 31 38 52.5t72 21.5q57 0 88.5 -33t31.5 -97q0 -62 -36.5 -101.5t-100.5 -39.5q-62 0 -103 44.5t-41 143.5q0 104 57 171t155 67q26 0 43 -3zM267 373q0 40 -20.5 64.5t-60.5 24.5q-55 0 -77 -49q-10 -20 -10 -45
q0 -34 21 -63.5t62 -29.5q38 0 61.5 26t23.5 72z" />
    <glyph glyph-name="six.oldstyle" horiz-adv-x="544" 
d="M462 658l-6 -68q-24 5 -58 5q-232 0 -264 -277q23 42 68 71t111 29q85 0 135.5 -53t50.5 -154q0 -99 -58 -161t-157 -62q-41 0 -78 15t-70.5 47.5t-53 92.5t-19.5 142q0 164 90.5 270.5t241.5 106.5q34 0 67 -4zM430 211q0 66 -34.5 107.5t-101.5 41.5q-45 0 -79.5 -25
t-52.5 -60q-14 -27 -14 -73q0 -57 35.5 -105t104.5 -48q65 0 103.5 44t38.5 118z" />
    <glyph glyph-name="six.taboldstyle" horiz-adv-x="525" 
d="M452 658l-6 -68q-24 5 -58 5q-232 0 -264 -277q23 42 68 71t111 29q85 0 135.5 -53t50.5 -154q0 -99 -58 -161t-157 -62q-41 0 -78 15t-70.5 47.5t-53 92.5t-19.5 142q0 164 90.5 270.5t241.5 106.5q34 0 67 -4zM420 211q0 66 -34.5 107.5t-101.5 41.5q-45 0 -79.5 -25
t-52.5 -60q-14 -27 -14 -73q0 -57 35.5 -105t104.5 -48q65 0 103.5 44t38.5 118z" />
    <glyph glyph-name="sterling.denominator" horiz-adv-x="346" 
d="M278 164h-101q2 -16 2 -22q0 -55 -69 -96q68 1 217 1v-47h-282v41q85 43 85 97q0 11 -3 26h-72v37h58l-11 23q-11 24 -17 44t-6 38q0 51 35 80t96 29t110 -29l-21 -46q-38 27 -84 27q-78 0 -78 -67q0 -32 21 -77l9 -22h111v-37z" />
    <glyph glyph-name="sterling.inferior" horiz-adv-x="346" 
d="M278 164h-101q2 -16 2 -22q0 -55 -69 -96q68 1 217 1v-47h-282v41q85 43 85 97q0 11 -3 26h-72v37h58l-11 23q-11 24 -17 44t-6 38q0 51 35 80t96 29t110 -29l-21 -46q-38 27 -84 27q-78 0 -78 -67q0 -32 21 -77l9 -22h111v-37z" />
    <glyph glyph-name="sterling.numerator" horiz-adv-x="346" 
d="M278 404h-101q2 -16 2 -22q0 -55 -69 -97q68 1 217 1v-47h-282v41q85 45 85 98q0 11 -3 26h-72v37h58q-34 64 -34 105q0 51 34.5 79.5t96.5 28.5q61 0 110 -29l-21 -45q-39 26 -84 26q-78 0 -78 -66q0 -33 21 -78q6 -14 8 -21h112v-37z" />
    <glyph glyph-name="sterling.oldstyle" horiz-adv-x="516" 
d="M422 233h-157q4 -22 4 -33q0 -79 -109 -141q102 2 336 2v-61h-422v52q65 31 96 68.5t31 74.5q0 18 -4 38h-107v49h89l-5 10q-46 85 -46 142q0 73 51 114t142 41q81 0 160 -41l-27 -62q-62 38 -127 38q-124 0 -124 -100q0 -38 33 -109l14 -33h172v-49z" />
    <glyph glyph-name="sterling.superior" horiz-adv-x="346" 
d="M278 623h-101q2 -16 2 -22q0 -55 -69 -96q68 1 217 1v-47h-282v41q85 43 85 97q0 11 -3 26h-72v37h58l-11 24q-11 23 -17 43t-6 38q0 51 35 80t96 29t110 -29l-21 -46q-38 27 -84 27q-78 0 -78 -67q0 -32 21 -77l9 -22h111v-37z" />
    <glyph glyph-name="three.denominator" 
d="M53 -12v48q8 -1 24 -1q170 0 170 90q0 33 -18.5 51t-74.5 18q-15 0 -37 -2l-3 40q121 8 121 76q0 58 -72 58q-46 0 -98 -31l-17 45q62 35 123 35q118 0 118 -98q0 -34 -22 -59t-60 -36q44 -2 70.5 -26.5t26.5 -67.5q0 -73 -62 -107t-164 -34q-17 0 -25 1z" />
    <glyph glyph-name="three.fitted" horiz-adv-x="519" 
d="M47 -20v69q12 -1 36 -1q137 0 212.5 40.5t75.5 110.5q0 51 -33 79.5t-126 28.5q-21 0 -61 -4l-4 66q109 6 157 40.5t48 85.5q0 94 -125 94q-77 0 -163 -49l-25 63q102 55 198 55q186 0 186 -155q0 -54 -33.5 -92.5t-95.5 -57.5q152 -12 152 -151q0 -58 -28.5 -102
t-79 -70t-113.5 -38.5t-137 -12.5q-27 0 -41 1z" />
    <glyph glyph-name="three.numerator" 
d="M53 227v48q8 -1 24 -1q170 0 170 90q0 33 -18.5 51.5t-74.5 18.5q-4 0 -37 -3l-3 41q121 8 121 76q0 58 -72 58q-44 0 -98 -31l-17 44q59 35 123 35q118 0 118 -98q0 -34 -22 -59t-60 -35q45 -3 71 -27.5t26 -67.5q0 -73 -62 -107t-164 -34q-17 0 -25 1z" />
    <glyph glyph-name="three.oldstyle" horiz-adv-x="468" 
d="M32 -142v68q11 -1 34 -1q128 0 197.5 39t69.5 109q0 49 -31.5 78.5t-114.5 29.5q-32 0 -57 -4l-4 66q100 6 145 40t45 82q0 94 -114 94q-73 0 -152 -48l-27 60q95 55 187 55q173 0 173 -154q0 -109 -117 -144q68 -4 104 -43.5t36 -109.5q0 -58 -27 -101.5t-74.5 -68
t-106 -36.5t-127.5 -12q-26 0 -39 1z" />
    <glyph glyph-name="three.taboldstyle" horiz-adv-x="525" 
d="M58 -142v68q11 -1 34 -1q128 0 197.5 39t69.5 109q0 49 -31.5 78.5t-114.5 29.5q-32 0 -57 -4l-4 66q100 6 145 40t45 82q0 94 -114 94q-72 0 -152 -48l-27 60q95 55 187 55q173 0 173 -154q0 -109 -117 -144q68 -4 104 -43.5t36 -109.5q0 -58 -27 -101.5t-74.5 -68
t-106 -36.5t-127.5 -12q-26 0 -39 1z" />
    <glyph glyph-name="threefifths" horiz-adv-x="795" 
d="M285 0h-47l317 644h46zM80 227v48q8 -1 24 -1q170 0 170 90q0 33 -18.5 51.5t-74.5 18.5q-4 0 -37 -3l-3 41q121 8 121 76q0 58 -72 58q-44 0 -98 -31l-17 44q59 35 123 35q118 0 118 -98q0 -34 -22 -59t-60 -35q45 -3 71 -27.5t26 -67.5q0 -73 -62 -107t-164 -34
q-17 0 -25 1zM528 -12v46q8 -1 23 -1q83 0 128 27t45 74q0 45 -24 63.5t-72 18.5q-38 0 -85 -15l21 207h198v-46h-155l-14 -112q35 8 58 8q63 0 96 -31t33 -88q0 -76 -61.5 -114t-162.5 -38q-20 0 -28 1z" />
    <glyph glyph-name="tilde.cap" horiz-adv-x="201" 
d="M-7 727h-49q12 51 35.5 77.5t53.5 26.5q29 0 74 -23q41 -19 60 -19q16 0 25 10.5t19 38.5h46q-21 -108 -88 -108q-27 0 -76 23q-41 20 -57 20q-14 0 -23.5 -10.5t-19.5 -35.5z" />
    <glyph glyph-name="two.denominator" 
d="M306 0h-278v39q125 96 172 147q49 52 49 104q0 32 -19.5 54.5t-59.5 22.5q-50 0 -110 -38l-19 43q71 43 137 43q61 0 92.5 -32t31.5 -88q0 -75 -76 -146q-46 -44 -126 -104q62 1 206 1v-46z" />
    <glyph glyph-name="two.fitted" horiz-adv-x="531" 
d="M476 0h-451v53q174 127 277 233q90 92 90 179q0 52 -33 88t-102 36q-86 0 -181 -58l-28 60q110 67 219 67q97 0 149 -50.5t52 -137.5q0 -116 -125 -236q-99 -94 -208 -171q103 1 341 1v-64z" />
    <glyph glyph-name="two.numerator" 
d="M306 239h-278v40q125 96 172 147q49 52 49 103q0 32 -19.5 54.5t-59.5 22.5q-49 0 -110 -37l-19 42q68 43 137 43q61 0 92.5 -32t31.5 -87q0 -75 -76 -146q-48 -47 -126 -104q62 1 206 1v-47z" />
    <glyph glyph-name="two.oldstyle" horiz-adv-x="508" 
d="M451 0h-408v48q153 102 234 176q72 64 72 137q0 40 -26 70t-84 30q-74 0 -154 -52l-24 60q93 57 187 57q84 0 128 -43t44 -114q0 -99 -96 -185q-71 -63 -166 -124q85 1 293 1v-61z" />
    <glyph glyph-name="two.taboldstyle" horiz-adv-x="525" 
d="M462 0h-408v48q153 102 233 176q73 65 73 137q0 40 -26 70t-84 30q-74 0 -154 -52l-24 60q93 57 187 57q84 0 128 -43t44 -114q0 -99 -97 -185q-64 -58 -165 -124q85 1 293 1v-61z" />
    <glyph glyph-name="twofifths" horiz-adv-x="795" 
d="M303 0h-47l317 644h46zM326 239h-278v40q125 96 172 147q49 52 49 103q0 32 -19.5 54.5t-59.5 22.5q-49 0 -110 -37l-19 42q68 43 137 43q61 0 92.5 -32t31.5 -87q0 -75 -76 -146q-48 -47 -126 -104q62 1 206 1v-47zM531 -12v46q8 -1 23 -1q83 0 128 27t45 74
q0 45 -24 63.5t-72 18.5q-39 0 -85 -15l21 207h198v-46h-155l-14 -112q35 8 58 8q63 0 96 -31t33 -88q0 -76 -61.5 -114t-162.5 -38q-20 0 -28 1z" />
    <glyph glyph-name="yen.denominator" horiz-adv-x="375" 
d="M319 190h-90l-18 -30v-11h108v-32h-108v-117h-51v117h-107v32h107v11l-18 30h-89v31h70l-111 187h59q88 -149 114 -201q34 59 124 201h57l-117 -187h70v-31z" />
    <glyph glyph-name="yen.inferior" horiz-adv-x="375" 
d="M319 190h-90l-18 -30v-11h108v-32h-108v-117h-51v117h-107v32h107v11l-18 30h-89v31h70l-111 187h59q88 -149 114 -201q34 59 124 201h57l-117 -187h70v-31z" />
    <glyph glyph-name="yen.numerator" horiz-adv-x="375" 
d="M319 430h-89l-19 -30v-12h108v-32h-108v-117h-51v117h-107v32h107v12l-18 30h-89v31h70l-111 186h59q89 -148 114 -198l124 198h57l-117 -186h70v-31z" />
    <glyph glyph-name="yen.oldstyle" horiz-adv-x="597" 
d="M492 273h-133l-32 -48v-16h165v-42h-165v-167h-67v167h-162v42h162v16l-31 48h-131v42h104l-165 260h77q136 -206 181 -287l189 287h75l-172 -260h105v-42z" />
    <glyph glyph-name="yen.superior" horiz-adv-x="375" 
d="M319 649h-90l-18 -30v-11h108v-32h-108v-117h-51v117h-107v32h107v11l-18 30h-89v31h70l-111 187h59q88 -149 114 -201q34 59 124 201h57l-117 -187h70v-31z" />
    <glyph glyph-name="zero.denominator" 
d="M323 212q0 -106 -40.5 -163t-109.5 -57q-68 0 -106.5 54.5t-38.5 147.5q0 101 40.5 161t112.5 60q67 0 104.5 -55t37.5 -148zM271 204q0 162 -93 162q-44 0 -70.5 -43t-26.5 -122q0 -161 94 -161q43 0 69.5 41.5t26.5 122.5z" />
    <glyph glyph-name="zero.fitted" horiz-adv-x="554" 
d="M513 337q0 -168 -64 -258.5t-176 -90.5q-109 0 -171 86.5t-62 233.5q0 160 65.5 255t180.5 95q107 0 167 -86.5t60 -234.5zM443 324q0 265 -162 265q-76 0 -121.5 -70.5t-45.5 -199.5q0 -264 163 -264q75 0 120.5 68t45.5 201z" />
    <glyph glyph-name="zero.numerator" 
d="M323 451q0 -106 -40.5 -163t-109.5 -57q-68 0 -106.5 54.5t-38.5 147.5q0 101 40.5 161t112.5 60q67 0 104.5 -55t37.5 -148zM271 444q0 162 -93 162q-44 0 -70.5 -43t-26.5 -123q0 -160 94 -160q43 0 69.5 41.5t26.5 122.5z" />
    <glyph glyph-name="zero.oldstyle" horiz-adv-x="554" 
d="M514 268q0 -135 -65 -207.5t-175 -72.5q-108 0 -170.5 69.5t-62.5 187.5q0 129 65.5 205t179.5 76q106 0 167 -69.5t61 -188.5zM445 257q0 87 -39.5 145.5t-123.5 58.5q-73 0 -121.5 -55.5t-48.5 -152.5q0 -101 46 -151t119 -50t120.5 53t47.5 152z" />
    <glyph glyph-name="zero.taboldstyle" horiz-adv-x="525" 
d="M489 268q0 -136 -60.5 -208t-168.5 -72q-106 0 -165.5 69t-59.5 188q0 129 62.5 205t174.5 76q104 0 160.5 -69t56.5 -189zM421 257q0 57 -12.5 100t-48 73.5t-92.5 30.5q-72 0 -117 -54.5t-45 -153.5q0 -103 43.5 -152t114.5 -49t114 52t43 153z" />
    </font>
</defs>
</svg>
